<svg width="226" height="219" viewBox="0 0 226 219" fill="none" xmlns="http://www.w3.org/2000/svg">
<path d="M146.073 19.6028C134.13 19.6028 122.493 22.0531 111.775 27.2601H111.469L111.163 26.9538C99.832 15.3147 83.9079 7.04475 64.6152 3.06294C55.4282 1.22517 45.0163 0 34.9106 0C24.8049 0 18.0678 0.918881 18.0678 0.918881C14.393 1.53147 12.2493 4.9007 12.2493 7.65734C12.2493 9.4951 12.8618 11.3329 14.393 12.558C14.6992 12.8643 15.3117 13.4769 15.9241 14.0895C23.2737 22.0531 46.5474 51.7636 30.6233 94.951C11.3306 107.815 0 128.95 0 151.615C0 188.983 30.3171 219 67.3713 219C91.5637 219 114.225 205.829 126.168 184.695C127.393 182.245 128.618 180.101 129.537 178.263C131.374 173.975 132.905 169.38 133.824 164.48C134.13 162.336 134.743 159.885 134.743 157.435C135.049 155.291 135.049 153.453 135.049 151.615C135.049 122.211 116.675 96.7888 89.1138 87.6C88.1951 91.5818 87.8889 95.5636 87.8889 99.5455C87.8889 100.158 87.8889 100.771 87.8889 101.383C108.407 109.653 121.881 129.256 121.881 151.615C121.881 151.922 121.881 152.534 121.881 152.841C121.881 155.291 121.575 158.048 121.268 160.498C120.35 165.399 119.125 169.993 116.981 174.281C116.062 176.425 114.837 178.569 113.612 180.713C103.507 196.334 86.664 205.829 67.9837 205.829C38.2791 205.829 13.7805 181.632 13.7805 151.615C13.7805 125.274 32.7669 102.915 58.4905 98.3203C58.4905 93.7259 59.103 89.1315 59.7154 84.5371C55.7344 85.1497 51.7534 85.7622 47.7724 86.9874L47.1599 87.2937L47.4661 86.6811C55.1219 52.9888 41.9539 26.6476 33.3794 14.3958L32.7669 13.7832H33.6856C40.729 13.7832 51.1409 14.0895 62.7778 16.5399C78.0894 19.9091 90.645 26.035 99.832 34.6112L100.138 34.9175L99.832 35.2238C85.7452 45.6378 75.0271 60.3399 70.1274 76.8797C69.5149 79.0238 68.9024 81.4741 68.29 83.9245C67.3713 88.5189 66.7588 93.4196 66.7588 98.014C66.7588 98.6266 66.7588 99.2392 66.7588 99.5455C66.7588 101.383 66.7588 103.221 67.065 105.059C68.9024 132.625 85.439 157.741 110.244 170.606C112.081 166.317 113.306 162.029 113.919 157.435C95.5447 147.021 82.9892 128.031 80.8455 106.897C80.5393 104.446 80.5393 101.996 80.5393 99.5455V99.2392C80.5393 94.3385 81.1518 89.4378 82.0705 84.8434C82.6829 82.393 83.2954 79.9427 83.9079 77.7986C88.5014 64.628 97.3821 52.6825 109.019 44.7189L109.325 44.4126L109.631 44.7189C111.775 47.7818 113.306 50.8448 114.837 53.9077L115.144 54.214L113.919 55.1329C104.732 60.9524 99.5257 67.6909 101.363 71.3664C102.282 73.5105 105.65 74.4294 110.55 73.8168C115.45 73.2042 121.575 71.3664 127.393 68.3035C139.336 62.1776 147.604 53.2951 145.154 49.007C143.317 45.6378 135.661 45.6378 126.474 49.007H126.168L125.862 48.7007C124.331 45.3315 122.493 41.9622 120.35 38.8993L120.043 38.593L120.656 38.2867C128.618 34.9175 137.192 33.386 146.073 33.386C182.821 33.386 212.526 63.0965 212.526 99.8517C212.526 136.607 182.821 166.317 146.073 166.317C144.542 166.317 143.011 166.317 141.48 166.317C140.561 170.912 139.336 175.2 137.805 179.488C140.561 179.794 143.317 179.794 146.073 179.794C190.171 179.794 226 143.958 226 99.8517C226 55.4392 190.171 19.6028 146.073 19.6028Z" fill="#EF3167" fill-opacity="0.5"/>
</svg>
