<svg width="10" height="23" viewBox="0 0 10 23" fill="none" xmlns="http://www.w3.org/2000/svg">
<path d="M8.47087 10.8794C8.03398 10.8794 7.71845 10.5386 7.71845 10.1492V9.24868C8.17961 9.10264 8.51942 8.66455 8.51942 8.15344V5.79259C8.51942 5.15979 8.00971 4.64868 7.37864 4.64868H6.79612C6.79612 4.6 6.82039 4.52698 6.82039 4.47831L6.31068 1.09524C6.28641 0.486772 5.80097 0 5.1699 0H4.58738C3.98058 0 3.47087 0.486772 3.4466 1.09524L2.96116 4.40529V4.47831C2.96116 4.52698 2.96116 4.6 2.98544 4.64868H2.6699C2.03884 4.64868 1.52913 5.15979 1.52913 5.79259V8.15344C1.52913 8.66455 1.86893 9.10264 2.3301 9.24868V10.1492C2.3301 10.563 1.99029 10.8794 1.57767 10.8794C0.679612 10.8794 0 11.5608 0 12.4127V21.4667C0 22.3185 0.679612 23 1.52913 23H8.47087C9.32039 23 10 22.3185 10 21.4667V12.4127C10 11.5608 9.29612 10.8794 8.47087 10.8794Z" fill="#EF3167"/>
</svg>
