<svg width="15" height="19" viewBox="0 0 15 19" fill="none" xmlns="http://www.w3.org/2000/svg">
<path d="M11.6953 19C10.7002 19 9.67338 18.819 8.64661 18.4571C7.52505 18.0651 6.4193 17.4468 5.45571 16.6778C3.30738 14.9889 1.82251 12.7119 0.764139 10.9174C0.448208 10.3896 0.163871 9.86187 0.053295 9.28885C-0.0572807 8.77615 0.0059054 8.26345 0.227057 7.8563C0.290243 7.73567 0.369226 7.63011 0.448208 7.52456C0.748342 7.17773 1.19065 6.9817 1.71193 6.93646C2.35959 6.89122 3.05464 7.10233 3.54433 7.50948C3.71809 7.66027 3.87606 7.82615 4.01822 8.0071L4.04982 8.03726V8.05234C4.22358 8.27853 4.38154 8.5198 4.49212 8.80631C4.50792 8.85155 4.52371 8.89678 4.55531 8.9571C4.55531 8.97218 4.5711 8.98726 4.5711 9.00234C4.71327 9.36425 4.83964 9.78647 4.95022 10.2992C4.99761 10.5103 5.0292 10.7214 5.07659 10.9325C5.12398 11.219 5.18717 11.5357 5.25035 11.8222C5.40832 12.1992 5.59788 12.5008 5.83483 12.742C6.27713 13.1643 6.94058 13.3905 7.55665 13.3301C8.17271 13.2698 8.77298 12.923 9.1205 12.4254C9.5786 11.7619 9.6102 10.8119 9.23108 9.90711C8.88356 9.09282 8.29908 8.41424 7.60404 7.69043L7.50926 7.59995C6.97218 7.02694 6.43509 6.43884 6.02438 5.77534C5.9612 5.66979 5.89801 5.56423 5.85062 5.4436C5.29774 4.3428 5.20296 3.03089 5.59788 1.85469C5.81903 1.20628 6.21394 0.648339 6.68784 0.331671C6.94058 0.165797 7.20912 0.0602414 7.49346 0.0150032C8.31488 -0.0905528 9.19949 0.36183 10.0209 1.34199C11.8849 3.55867 12.8011 6.469 12.5168 9.31901C12.4852 9.56028 12.4536 9.81663 12.422 10.0579C12.3746 10.3595 12.2956 10.6762 12.2324 10.9627C12.1692 11.2341 12.106 11.5055 12.0587 11.777V11.8222L12.0429 11.8373C11.9797 12.2293 11.9323 12.5611 11.9323 12.8627C11.9165 13.9182 12.3114 14.8079 12.9907 15.2754C13.196 15.4111 13.433 15.5167 13.6541 15.6222C14.128 15.8333 14.6019 16.0444 14.8546 16.5119C15.1706 17.0849 14.9336 17.7936 14.5071 18.2159L14.4439 18.2611L14.3965 18.3063C13.97 18.6683 13.3856 18.8794 12.5799 18.9698C12.2956 18.9849 11.9955 19 11.6953 19Z" fill="#EF3167"/>
</svg>
