<svg width="14" height="19" viewBox="0 0 14 19" fill="none" xmlns="http://www.w3.org/2000/svg">
<path d="M11.8653 0H2.13465C0.942574 0 0 0.924177 0 2.09299V16.907C0 18.0486 0.942574 19 2.13465 19H11.8653C13.0297 19 14 18.0758 14 16.907V2.09299C14 0.924177 13.0297 0 11.8653 0ZM4.40792 16.8526C3.18812 16.8526 2.16238 15.8741 2.16238 14.6509C2.16238 13.4549 3.1604 12.4492 4.40792 12.4492C5.62772 12.4492 6.65347 13.4278 6.65347 14.6509C6.65347 15.8469 5.65545 16.8526 4.40792 16.8526ZM4.40792 11.6881C3.18812 11.6881 2.16238 10.7096 2.16238 9.48641C2.16238 8.29041 3.1604 7.28469 4.40792 7.28469C5.62772 7.28469 6.65347 8.26323 6.65347 9.48641C6.65347 10.7096 5.65545 11.6881 4.40792 11.6881ZM4.40792 6.5236C3.18812 6.5236 2.16238 5.54506 2.16238 4.32189C2.16238 3.09871 3.1604 2.12017 4.40792 2.12017C5.62772 2.12017 6.65347 3.09871 6.65347 4.32189C6.65347 5.54506 5.65545 6.5236 4.40792 6.5236ZM9.59208 16.8526C8.37228 16.8526 7.34653 15.8741 7.34653 14.6509C7.34653 13.4549 8.34455 12.4492 9.59208 12.4492C10.8119 12.4492 11.8376 13.4278 11.8376 14.6509C11.8099 15.8469 10.8119 16.8526 9.59208 16.8526ZM9.59208 11.6881C8.37228 11.6881 7.34653 10.7096 7.34653 9.48641C7.34653 8.29041 8.34455 7.28469 9.59208 7.28469C10.8119 7.28469 11.8376 8.26323 11.8376 9.48641C11.8099 10.7096 10.8119 11.6881 9.59208 11.6881ZM9.59208 6.5236C8.37228 6.5236 7.34653 5.54506 7.34653 4.32189C7.34653 3.09871 8.34455 2.12017 9.59208 2.12017C10.8119 2.12017 11.8376 3.09871 11.8376 4.32189C11.8376 5.54506 10.8119 6.5236 9.59208 6.5236Z" fill="#EF3167"/>
</svg>
