<svg width="18" height="19" viewBox="0 0 18 19" fill="none" xmlns="http://www.w3.org/2000/svg">
<g clip-path="url(#clip0_185_116)">
<path d="M15.5143 10.3636C15.4285 10.3636 15.2571 10.3636 15.1714 10.3636C13.4571 10.1909 11.6571 10.1045 9.85712 10.1045V18.9136V18.9999C11.4 18.9999 13.0285 18.8272 14.5714 18.5681C15.5143 18.3954 16.2857 17.7045 16.4571 16.7545C16.8857 15.1136 17.0571 12.3499 16.9714 10.1045C16.5428 10.2772 16.0285 10.3636 15.5143 10.3636Z" fill="#EF3167"/>
<path d="M8.14288 10.1045C6.34288 10.1045 4.54288 10.1909 2.82859 10.3636C2.65716 10.3636 2.57145 10.3636 2.40002 10.3636C1.88573 10.3636 1.37145 10.2772 0.942876 10.1045C0.857162 12.3499 1.02859 15.1136 1.45716 16.7545C1.7143 17.7045 2.48573 18.4818 3.42859 18.5681C4.97145 18.8272 6.51431 18.9999 8.14288 18.9999V18.9136V10.1045Z" fill="#EF3167"/>
<path d="M17.9143 6.13182L17.8286 5.87273C17.5714 5.09545 16.8 4.40455 15.7714 4.31818C15.6857 4.31818 15.6857 4.31818 15.6 4.31818C15.6 4.23182 15.6 4.14545 15.6 4.05909C15.6 1.81364 13.8 0.0863636 11.6571 0.0863636C10.6286 0.0863636 9.68571 0.518182 8.99999 1.12273C8.31428 0.431818 7.28571 0 6.25714 0C4.11428 0 2.31428 1.81364 2.31428 3.97273C2.31428 4.05909 2.31428 4.14545 2.31428 4.31818C2.22857 4.31818 2.22857 4.31818 2.14285 4.31818C1.19999 4.40455 0.342852 5.09545 0.171423 5.87273L0.0857091 6.13182C-0.0857195 6.82273 0.085709 7.51364 0.599995 8.03182C1.11428 8.46364 1.71428 8.63636 2.39999 8.63636C2.48571 8.63636 2.57142 8.63636 2.65714 8.63636C4.45714 8.46364 6.25714 8.37727 8.05714 8.37727V3.97273H9.77142V8.37727C11.5714 8.37727 13.4571 8.46364 15.1714 8.63636C15.9429 8.72273 16.7143 8.46364 17.2286 7.94545C17.9143 7.42727 18.0857 6.73636 17.9143 6.13182ZM4.88571 4.05909C4.88571 3.19545 5.48571 2.59091 6.25714 2.59091C7.02857 2.59091 7.62857 3.19545 7.71428 3.97273C6.77142 3.97273 5.82857 4.05909 4.88571 4.05909ZM13.1143 4.05909C12.1714 3.97273 11.2286 3.97273 10.2857 3.97273C10.2857 3.19545 10.8857 2.59091 11.6571 2.59091C12.4286 2.59091 13.1143 3.19545 13.1143 4.05909Z" fill="#EF3167"/>
</g>
<defs>
<clipPath id="clip0_185_116">
<rect width="18" height="19" fill="white"/>
</clipPath>
</defs>
</svg>
