<svg width="9" height="26" viewBox="0 0 9 26" fill="none" xmlns="http://www.w3.org/2000/svg">
<path d="M8.96016 13.5284V13.4921L8.94715 13.48C8.93414 13.4437 8.92113 13.4195 8.89511 13.3832C8.89511 13.3711 8.8821 13.359 8.86909 13.3469C8.85608 13.3227 8.83006 13.2985 8.80404 13.2744C8.79103 13.2623 8.77802 13.2502 8.77802 13.2502C8.752 13.226 8.72598 13.2139 8.69996 13.1776L8.67394 13.1655C8.6219 13.1292 8.56986 13.0929 8.4918 13.0566L8.46578 13.0445C8.43976 13.0324 8.42675 13.0203 8.40073 13.0082L8.14053 12.8872C7.99742 12.8267 7.8413 12.7662 7.67217 12.7057L7.64615 12.6936C7.55508 12.6573 7.46401 12.621 7.37294 12.5847L7.34692 12.5726C7.30789 12.5605 7.25585 12.5363 7.20381 12.5121C7.15177 12.4879 7.11274 12.4758 7.0607 12.4516H7.04769C7.00866 12.4395 6.96963 12.4153 6.9306 12.4032L6.89157 12.3791C6.86555 12.367 6.82652 12.3549 6.8005 12.3428L6.74846 12.3186C6.72244 12.3065 6.69642 12.2944 6.65739 12.2702L6.61836 12.2581C6.59234 12.246 6.56632 12.2218 6.5403 12.2097L6.50127 12.1855C6.42321 12.1371 6.34515 12.0887 6.2801 12.0524L6.25408 12.0282C6.22806 12.0161 6.20204 11.9919 6.18903 11.9798L6.15 11.9556C6.13699 11.9435 6.11097 11.9193 6.09796 11.9072L6.05893 11.8709C6.04592 11.8588 6.0199 11.8346 6.00689 11.8225L5.98087 11.7983C5.96786 11.7741 5.94184 11.762 5.92883 11.7378L5.91582 11.7136C5.8898 11.6894 5.87679 11.6531 5.86378 11.6289L5.85077 11.6047C5.83776 11.5805 5.82475 11.5563 5.82475 11.5442L5.81174 11.5079C5.79873 11.4838 5.79873 11.4717 5.78572 11.4475C5.78572 11.4354 5.77271 11.4233 5.77271 11.4112C5.77271 11.387 5.7597 11.3749 5.7597 11.3507C5.7597 11.3386 5.7597 11.3265 5.74669 11.3144C5.74669 11.2902 5.74669 11.266 5.73368 11.2418V11.2055C5.73368 11.1692 5.73368 11.1329 5.73368 11.0966C5.81174 10.2981 6.33214 9.81414 6.83953 9.34229C7.3209 8.89464 7.77625 8.47119 7.88033 7.81786C7.9714 7.22503 7.50304 6.03936 6.43622 4.18827C5.60358 2.68804 4.65385 1.2725 4.34161 0.849043C3.67811 -0.0583554 3.00159 -0.0220595 2.79343 0.0142364C2.57226 0.0142364 1.89574 0.123124 1.53146 1.13941C1.24524 1.92582 0.178423 5.28925 0.0223028 7.26132C-0.0297371 7.89045 0.00929284 8.326 0.139393 8.60427C0.438622 9.20921 0.998051 9.53587 1.59651 9.86253C2.234 10.2134 2.8845 10.5764 3.19674 11.3507C3.20975 11.387 3.22276 11.4233 3.23577 11.4596L3.24878 11.4958C3.24878 11.52 3.26179 11.5442 3.26179 11.5684C3.26179 11.5805 3.26179 11.5926 3.26179 11.6047C3.26179 11.6289 3.26179 11.641 3.26179 11.6652C3.26179 11.6773 3.26179 11.6894 3.26179 11.7015C3.26179 11.7257 3.26179 11.7378 3.26179 11.762V11.7741C3.26179 11.7862 3.26179 11.7862 3.26179 11.7983C3.26179 11.8225 3.24878 11.8467 3.24878 11.8709V11.8951C3.23577 11.9314 3.23577 11.9556 3.22276 11.9798L3.20975 12.004C3.19674 12.0282 3.19674 12.0524 3.18373 12.0645L3.15771 12.1008C3.1447 12.125 3.13169 12.1371 3.13169 12.1613L3.10567 12.1976C3.09266 12.2218 3.07965 12.2339 3.06664 12.2581L3.04062 12.2823C3.02761 12.3065 3.0146 12.3186 2.98858 12.3428L2.96256 12.3791C2.93654 12.4032 2.91052 12.4395 2.8845 12.4758C2.85848 12.5 2.83246 12.5363 2.80644 12.5605L2.78042 12.5847C2.7544 12.6089 2.74139 12.621 2.71537 12.6452L2.67634 12.6815C2.65032 12.7057 2.63731 12.7178 2.61129 12.742L2.57226 12.7783C2.54624 12.8025 2.52022 12.8146 2.4942 12.8388L2.45517 12.863C2.42915 12.8872 2.39012 12.9114 2.3641 12.9356L2.33808 12.9477C2.31206 12.9719 2.27303 12.9961 2.24701 13.0082L2.20798 13.0324C2.16895 13.0566 2.14293 13.0808 2.1039 13.105L2.07788 13.1171C1.99982 13.1776 1.90875 13.226 1.83069 13.2864C1.68758 13.3832 1.55748 13.4679 1.41437 13.5647L1.29728 13.6494C1.27126 13.6615 1.25825 13.6857 1.23223 13.6978L1.21922 13.7099L1.10213 13.8067L1.03708 13.9035C1.02407 13.9277 0.998051 13.9398 0.985041 13.964L0.959021 13.9882C0.933001 14.0124 0.919991 14.0366 0.906981 14.0608C0.893971 14.0729 0.893971 14.085 0.880961 14.0971C0.867951 14.1213 0.854941 14.1576 0.841931 14.1817C0.841931 14.1938 0.828921 14.2059 0.828921 14.218C0.815911 14.2664 0.802901 14.3148 0.802901 14.3511C0.789891 14.6052 0.906981 14.8351 1.12815 15.0045C1.59651 15.3674 2.63731 15.4884 4.27657 15.3674L5.85077 24.8044C5.85077 24.8286 5.86378 24.8528 5.87679 24.877C5.87679 24.9011 5.87679 24.9253 5.87679 24.9495C5.90281 25.0705 5.99388 25.2278 6.35816 25.2883C6.46224 25.3004 6.56632 25.3125 6.69642 25.3125C6.8005 25.3125 6.91759 25.3004 7.02167 25.2883C7.22983 25.2641 7.75023 25.1794 7.94538 24.9374C8.01043 24.8649 8.03645 24.7802 8.02344 24.6834C8.02344 24.6592 8.01043 24.635 8.01043 24.6229C8.01043 24.5987 8.01043 24.5745 8.01043 24.5503L6.42321 15.1254C7.64615 14.9198 8.41374 14.6536 8.76501 14.2906C8.98618 14.0608 9.05123 13.8067 8.96016 13.5284Z" fill="#E73467"/>
</svg>
