<svg width="16" height="16" viewBox="0 0 16 16" fill="none" xmlns="http://www.w3.org/2000/svg">
<path d="M9.99857 10.2C9.99857 10.4667 9.7986 11.3333 7.99886 12.8C6.19911 11.3333 5.99914 10.4667 5.99914 10.2C5.99914 9.73333 6.26577 9.4 6.66572 9.4C7.06566 9.4 7.33229 9.8 7.33229 10.2C7.33229 10.6 7.59892 10.8667 7.99886 10.8667C8.3988 10.8667 8.66543 10.6 8.66543 10.2C8.66543 9.73333 8.93206 9.4 9.332 9.4C9.73194 9.4 9.99857 9.73333 9.99857 10.2ZM15.3311 7.33333V12.6667C15.3311 14.5333 13.8647 16 11.9983 16H3.99943C2.13303 16 0.666571 14.5333 0.666571 12.6667V7.33333C0.666571 6.93333 0.9332 6.66667 1.33314 6.66667H14.6646C15.0645 6.66667 15.3311 6.93333 15.3311 7.33333ZM11.3317 10.2C11.3317 9 10.4652 8.06667 9.332 8.06667C8.79874 8.06667 8.33214 8.26667 7.99886 8.6C7.66557 8.26667 7.19897 8.06667 6.66572 8.06667C5.53254 8.06667 4.666 9.06667 4.666 10.2C4.666 11.2667 5.46589 12.4667 7.13231 13.8C7.39894 14 7.66557 14.0667 7.99886 14.0667C8.33214 14.0667 8.59877 14 8.8654 13.8C10.5318 12.4 11.3317 11.2667 11.3317 10.2ZM12.7982 0C12.7315 0 3.33286 0 3.33286 0C1.46646 0 0 1.46667 0 3.33333C0 4.46667 0.866543 5.33333 1.99971 5.33333H13.998C15.0645 5.33333 15.9311 4.53333 15.9977 3.46667C16.0644 1.66667 14.6646 0.0666667 12.7982 0Z" fill="#EF3167"/>
</svg>
