<svg width="32" height="32" viewBox="0 0 32 32" fill="none" xmlns="http://www.w3.org/2000/svg">
<path d="M15.3715 13C13.5393 13.2989 12.3221 15.0406 12.6349 16.8563C12.9477 18.6721 14.6815 19.9071 16.4979 19.5974C18.3143 19.2877 19.5473 17.5569 19.2345 15.7411C18.9326 13.9095 17.1879 12.6903 15.3715 13Z" fill="#EF3167"/>
<path d="M21.9169 6.74183L20.5518 6.22373L19.4454 7.15943L18.0802 6.64132L16.9738 7.57702L15.6087 7.05892L14.5023 7.99462L13.1372 7.47652L12.0308 8.41222L10.6657 7.89412L9.55926 8.82982L8.20994 8.32256L7.10354 9.25826L9.95282 25.8557L11.318 26.3738L12.4244 25.4381L13.7895 25.9562L14.8959 25.0205L16.261 25.5386L17.3674 24.6029L18.7325 25.121L19.8389 24.1853L21.2041 24.7034L22.3105 23.7677L23.6756 24.2858L24.782 23.3501L21.9169 6.74183ZM16.7817 21.1844C14.0705 21.6465 11.5093 19.8211 11.0318 17.1265C10.5651 14.4162 12.3875 11.8595 15.083 11.3865C17.7943 10.9244 20.3555 12.7498 20.833 15.4444C21.2997 18.1547 19.4822 20.7381 16.7817 21.1844Z" fill="#EF3167"/>
</svg>
