<svg width="19" height="22" viewBox="0 0 19 22" fill="none" xmlns="http://www.w3.org/2000/svg">
<path d="M15.5579 5.87273C14.3789 4.66364 13.3684 3.62727 13.3684 0.863636C13.3684 0.604545 13.2842 0.345455 13.1158 0.259091C12.9474 0.0863636 12.6947 0 12.4421 0C10.4211 0.259091 6.63158 1.72727 6.63158 6.04545C6.63158 6.21818 6.71579 9.24091 6.21053 9.75909C6.12632 9.84546 6.04211 9.93182 5.78947 9.93182C5.62105 9.93182 5.53684 9.84546 5.45263 9.75909C4.94737 9.24091 4.86316 7.51364 4.94737 6.56364C4.94737 6.30455 4.86316 6.13182 4.77895 5.95909C4.69474 5.87273 4.69474 5.78636 4.61053 5.78636C4.27368 5.61364 3.93684 5.61364 3.6 5.78636C3.51579 5.87273 3.34737 5.95909 3.34737 6.13182L3.17895 6.56364C2.67368 7.77273 2 9.41364 2 10.7955C2 15.8909 5.03158 19 10 19C15.1368 19 18 16.2364 18 11.2273C18 8.29091 16.7368 6.99545 15.5579 5.87273Z" fill="#EF3167"/>
</svg>
