<svg width="14" height="21" viewBox="0 0 14 21" fill="none" xmlns="http://www.w3.org/2000/svg">
<path fill-rule="evenodd" clip-rule="evenodd" d="M10.357 1.16101C11.7543 1.49977 13.6449 1.92322 13.9737 3.44763C14.0559 4.20984 13.9737 4.80267 13.3161 5.22612C13.2339 5.22612 13.2339 5.31081 13.2339 5.3955C13.0695 5.90364 12.9873 6.41177 12.9051 6.91991C12.8229 7.17398 12.8229 7.42805 12.7407 7.68212C12.6585 8.19026 12.4119 8.61371 11.9187 8.86778C11.8365 8.95247 11.7543 8.95247 11.7543 9.12185C11.6721 9.5453 11.5899 9.88406 11.5077 10.3075C11.4256 10.8156 11.3434 11.3238 11.2612 11.7472C11.179 12.1707 11.0968 12.5941 11.0146 13.0176C11.0146 13.187 10.9324 13.2716 10.9324 13.441C10.768 14.2032 10.5214 14.8808 10.0282 15.5583C9.2062 16.5745 8.05542 17.2521 6.74025 17.4214C6.65806 17.4214 6.49366 17.4214 6.41146 17.4214C6.32926 17.4214 6.16487 17.4214 6.08267 17.4214C5.91827 17.4214 5.83607 17.4214 5.83607 17.5908C5.42508 18.099 5.17849 18.7765 4.93189 19.3693C4.84969 19.6234 4.7675 19.8775 4.7675 20.1315C4.7675 20.3009 4.7675 20.4703 4.6853 20.555C4.6031 20.8937 4.35651 21.0631 4.02771 20.9784C3.69892 20.8937 3.45233 20.7243 3.53452 20.3856C3.69892 19.7928 3.78112 19.1999 3.78112 18.5224C3.78112 18.1837 3.69892 17.8449 3.61672 17.4214C3.61672 17.3368 3.61672 17.3368 3.61672 17.2521C3.53452 16.8286 3.28793 16.7439 2.95914 16.6592C2.30155 16.4052 1.80836 15.9817 1.39737 15.4736C0.493189 14.7114 0 13.6951 0 12.5094C0 12.1707 0 11.8319 0.0821982 11.4085C0.328793 10.0534 0.575388 8.61371 0.90418 7.25867C0.90418 7.08929 0.90418 7.0046 0.821982 6.83522C0.493189 6.41178 0.410991 5.98833 0.493189 5.48019C0.575388 5.05674 0.575387 4.63329 0.739784 4.20984C0.739784 4.04046 0.821982 3.87108 0.821982 3.7017C0.821982 3.53232 0.821982 3.27825 0.90418 3.10887C0.90418 3.02418 0.90418 2.93949 0.821982 2.93949C0.164396 1.83853 0.821982 0.568179 1.56177 0.22942C1.80836 0.14473 2.05496 0.0600404 2.30155 0.0600404C2.38375 0.0600404 2.46595 0.0600404 2.54814 0.0600404C5.01409 -0.194029 7.48004 0.398799 9.86379 1.07632C10.0282 1.07632 10.1926 1.07632 10.357 1.16101Z" fill="#EF3167"/>
</svg>
