<svg width="17" height="17" viewBox="0 0 17 17" fill="none" xmlns="http://www.w3.org/2000/svg">
<path d="M10.8182 4.91111C11.5909 4.91111 12.2091 4.91111 12.8273 4.98667C12.75 4.60889 12.6727 4.38222 12.6727 4.38222C12.5955 4.08 12.3636 3.85333 12.0545 3.85333C11.9773 3.85333 11.3591 3.77778 10.3545 3.62667C10.3545 1.58667 8.65455 0 6.56818 0C4.48182 0 2.85909 1.58667 2.70455 3.55111C1.7 3.70222 1.08182 3.77778 1.00455 3.77778C0.695455 3.85333 0.463636 4.08 0.386364 4.38222C0.386364 4.38222 0 5.96889 0 8.31111C0 10.6533 0.386364 12.24 0.386364 12.24C0.463636 12.5422 0.695455 12.7689 1.00455 12.7689C1.08182 12.7689 1.85455 12.92 3.09091 12.9956C3.09091 12.6178 3.09091 12.1644 3.09091 11.7111C3.09091 9.44444 3.47727 7.25333 3.55455 7.17778C3.70909 6.27111 4.40455 5.59111 5.33182 5.36444C5.40909 5.36444 7.49545 4.91111 10.8182 4.91111ZM6.56818 2.26667C7.26364 2.26667 7.88182 2.79556 8.03636 3.4C7.57273 3.4 7.03182 3.4 6.49091 3.4C5.95 3.4 5.48636 3.4 5.02273 3.4C5.25455 2.79556 5.87273 2.26667 6.56818 2.26667ZM16.6136 7.48C16.5364 7.17778 16.3045 6.95111 15.9955 6.87556C15.9182 6.87556 13.9091 6.42222 10.8182 6.42222C7.72727 6.42222 5.71818 6.8 5.64091 6.87556C5.33182 6.95111 5.1 7.17778 5.02273 7.48C5.02273 7.55556 4.63636 9.59556 4.63636 11.7111C4.63636 13.8267 5.02273 15.8667 5.02273 15.9422C5.1 16.2444 5.33182 16.4711 5.64091 16.5467C5.71818 16.5467 7.72727 17 10.8182 17C13.9091 17 15.9182 16.6222 15.9955 16.5467C16.3045 16.4711 16.5364 16.2444 16.6136 15.9422C16.6136 15.8667 17 13.8267 17 11.7111C17 9.59556 16.6136 7.55556 16.6136 7.48ZM10.8182 13.2222C9.11818 13.2222 7.72727 11.8622 7.72727 10.2V9.44444C7.72727 8.99111 8.03636 8.68889 8.5 8.68889C8.88636 8.68889 9.27273 8.99111 9.27273 9.44444V10.2C9.27273 11.0311 9.96818 11.7111 10.8182 11.7111C11.6682 11.7111 12.3636 11.0311 12.3636 10.2V9.52C12.3636 9.06667 12.6727 8.76444 13.1364 8.76444C13.5227 8.76444 13.9091 9.06667 13.9091 9.52V10.2756C13.9091 11.8622 12.5182 13.2222 10.8182 13.2222Z" fill="#EF3167"/>
</svg>
