<svg width="15" height="17" viewBox="0 0 15 17" fill="none" xmlns="http://www.w3.org/2000/svg">
<path d="M1.18197 11.4652L1.34813 11.4871L1.80509 11.5502L1.95509 11.572L2.46513 10.754L2.38666 10.703C2.24357 10.6083 2.19973 10.4093 2.28973 10.2587C2.37974 10.1082 2.56898 10.0621 2.71206 10.1568L2.79976 10.215L3.05593 9.8048L2.96131 9.74168C2.81822 9.64701 2.77668 9.44795 2.86669 9.29744C2.9567 9.14694 3.14594 9.10081 3.28902 9.19549L3.39288 9.26346L3.64905 8.8532L3.53827 8.78038C3.39518 8.68571 3.35133 8.48665 3.44365 8.33614C3.53365 8.18563 3.7229 8.13951 3.86598 8.23418L3.98599 8.31429L4.24216 7.90404L4.11523 7.81908C3.97214 7.7244 3.92829 7.52534 4.0183 7.37484C4.1083 7.22433 4.29755 7.17821 4.44063 7.27531L4.5768 7.36513L4.83296 6.95487L4.68988 6.8602C4.54679 6.76553 4.50294 6.56647 4.59295 6.41596C4.68296 6.26546 4.8722 6.22176 5.01528 6.31643L5.1676 6.41839L5.42377 6.00571L5.26453 5.8989C5.12144 5.80422 5.0799 5.60517 5.1676 5.45466C5.25761 5.30415 5.44685 5.25803 5.58994 5.3527L5.75841 5.46437L6.16689 4.80894L6.11612 0.893329C6.39075 0.762243 6.76924 0.633583 7.21465 0.51949C9.09785 0.0267007 12.1765 -0.25732 13.6443 0.325287L13.5289 2.76253C13.5289 2.76253 15.8275 5.5202 14.6782 7.45495L14.4474 9.86791L14.4059 10.3073L14.1312 13.1524L14.0574 13.9316L13.762 17H12.2688L12.2319 16.2912H12.2296L12.135 14.587H12.1442L12.1096 13.9316H12.098L12.0034 12.2275H12.0219L11.9873 11.572H11.9665L11.8719 9.86791H11.8973L11.8557 9.04255C10.7203 9.77567 9.45095 10.7248 8.47473 11.8051C7.79392 13.4412 6.97695 15.1332 6.17382 16.3324C6.05843 16.5024 5.94534 16.665 5.83226 16.8131C4.37832 16.9733 3.13671 16.9806 1.2512 16.6529C0.951186 16.5873 0.635012 16.313 0.445769 15.9926C0.235756 15.643 0.29576 15.7644 0.00497246 12.662C-0.0596466 11.9556 0.515005 11.3706 1.18197 11.4652Z" fill="#EF3167"/>
</svg>
