<svg width="21" height="18" viewBox="0 0 21 18" fill="none" xmlns="http://www.w3.org/2000/svg">
<path d="M20.9394 0.324941L20.9039 0.0171021L20.6013 0.111164C19.6581 0.393349 18.5636 0.761045 17.5759 1.34252C16.4903 1.9753 15.6806 2.7962 15.2178 3.71971L15.2089 3.73682C14.595 4.88266 14.5416 6.18242 14.5416 7.41378C14.5327 7.90974 14.3992 8.24323 14.1056 8.45701C13.9632 8.56817 13.803 8.59382 13.6072 8.61948H13.5895C13.1356 8.30309 12.1746 7.81568 10.5729 7.81568H10.4395C8.67759 7.81568 7.68988 8.39715 7.31615 8.68789C7.24497 8.67933 7.17378 8.66223 7.11149 8.64513C7.10259 8.64513 7.0937 8.63658 7.0759 8.63658C6.93353 8.58527 6.80005 8.49121 6.68437 8.35439C6.58649 8.24323 6.50641 8.11496 6.47081 7.9867C6.39073 7.69596 6.39073 7.37957 6.39963 7.06318V6.96057C6.40853 6.01995 6.34624 4.79715 5.80344 3.71116C5.34073 2.7962 4.52209 1.9753 3.44539 1.33397C2.44878 0.743943 1.35429 0.376247 0.411075 0.0940618L0.0996349 0L0.0640417 0.307838C-0.167314 2.07791 0.233109 3.89929 1.18523 5.42138C1.55006 6.0114 2.01277 6.58432 2.59116 7.1658C2.72463 7.30261 2.867 7.43943 3.00938 7.57625C3.35641 7.90974 3.71234 8.25178 4.00599 8.62803C4.39751 9.14109 4.60217 9.74822 4.55768 10.3382V10.3639C4.53988 10.552 4.52209 10.7401 4.53099 10.9368C4.31743 11.1848 3.97039 11.6893 3.74794 12.4675C3.57887 13.066 3.52548 13.7159 3.57887 14.4086C3.58777 14.5368 3.60556 14.6736 3.62336 14.8105L3.64116 14.9558C4.05048 17.4442 5.53649 17.8803 7.09369 17.9743C7.77886 18.0171 8.24158 17.752 8.73988 17.4698C9.1759 17.2219 9.62971 16.9653 10.2704 16.914L10.4928 16.9311C11.2581 16.9311 11.7564 17.2133 12.2369 17.4869C12.6996 17.752 13.1356 18 13.7407 18C13.7852 18 13.8297 18 13.8831 17.9914C15.3424 17.8974 16.7572 17.5126 17.2555 15.3492C17.2911 15.1867 17.3267 15.0071 17.3534 14.8276C17.389 14.5454 17.4157 14.2717 17.4157 14.0067C17.4335 12.4333 16.8284 11.4499 16.5259 11.0565C16.5526 10.8342 16.5259 10.6119 16.5081 10.3981L16.4992 10.3553C16.4547 9.85938 16.5882 9.33777 16.864 8.88456C17.1399 8.43135 17.5403 8.038 17.9229 7.65321C18.0742 7.49929 18.2344 7.33682 18.3856 7.17435C18.964 6.59287 19.4178 6.0285 19.7827 5.43848C20.7704 3.91639 21.1619 2.09501 20.9394 0.324941ZM8.31276 14.9387L8.22378 14.9473C7.93013 14.9815 7.55641 15.0071 7.19158 14.9302C6.95132 14.8874 6.61319 14.7762 6.36403 14.5197C6.26615 14.4171 6.17717 14.2803 6.08819 14.0922C5.88353 13.6732 5.76785 13.2114 5.75005 12.7496C6.36403 12.7667 7.01361 12.8095 7.63649 12.9805C7.82336 13.0318 8.06361 13.1088 8.23268 13.2542C8.32166 13.3311 8.40174 13.4337 8.48183 13.5705C8.72208 13.9724 8.83776 14.4599 8.90895 14.9045C8.69539 14.896 8.49963 14.9216 8.31276 14.9387ZM14.9242 14.1178C14.8352 14.2974 14.7462 14.4342 14.6483 14.5368C14.3992 14.7933 14.0611 14.9045 13.8208 14.9473C13.456 15.0157 13.0733 14.99 12.7886 14.9644L12.6996 14.9558C12.5395 14.9387 12.3793 14.9216 12.2191 14.9216C12.1835 14.9216 12.1479 14.9216 12.1212 14.9216C12.2013 14.477 12.3081 13.9981 12.5484 13.5876C12.6284 13.4508 12.7085 13.3482 12.7975 13.2713C12.9666 13.1259 13.2068 13.0489 13.3937 12.9976C14.0166 12.8266 14.6661 12.7838 15.2801 12.7667C15.2534 13.2456 15.1378 13.7074 14.9242 14.1178Z" fill="#EF3167"/>
</svg>
