<svg width="26" height="26" viewBox="0 0 26 26" fill="none" xmlns="http://www.w3.org/2000/svg">
<path d="M13 0C10.4288 0 7.91543 0.762437 5.77759 2.19089C3.63975 3.61935 1.97351 5.64967 0.989572 8.02511C0.00563258 10.4006 -0.251811 13.0144 0.249797 15.5362C0.751405 18.0579 1.98953 20.3743 3.80762 22.1924C5.6257 24.0105 7.94208 25.2486 10.4638 25.7502C12.9856 26.2518 15.5994 25.9944 17.9749 25.0104C20.3503 24.0265 22.3806 22.3602 23.8091 20.2224C25.2376 18.0846 26 15.5712 26 13C25.9985 9.55264 24.6284 6.24689 22.1908 3.80924C19.7531 1.37159 16.4474 0.00147654 13 0ZM6.59263 21.1652C7.1498 19.9952 10.5582 18.8516 13 18.8516C15.4418 18.8516 18.8627 19.9952 19.4074 21.1652C17.5849 22.6115 15.3267 23.3987 13 23.3987C10.6734 23.3987 8.41514 22.6115 6.59263 21.1652ZM21.2697 19.2806C19.4102 17.0185 14.8999 16.251 13.0014 16.251C11.1029 16.251 6.59402 17.0185 4.7331 19.2806C3.55684 17.7392 2.83485 15.8997 2.64864 13.9698C2.46243 12.0398 2.81941 10.0962 3.67928 8.35835C4.53915 6.62051 5.86768 5.15763 7.51491 4.13484C9.16213 3.11204 11.0625 2.57005 13.0014 2.57005C14.9403 2.57005 16.8407 3.11204 18.4879 4.13484C20.1351 5.15763 21.4636 6.62051 22.3235 8.35835C23.1834 10.0962 23.5404 12.0398 23.3542 13.9698C23.1679 15.8997 22.446 17.7392 21.2697 19.2806ZM13 5.19972C12.1 5.19972 11.2202 5.46661 10.4718 5.96664C9.72346 6.46667 9.1402 7.17738 8.79577 8.0089C8.45135 8.84042 8.36123 9.75539 8.53682 10.6381C8.7124 11.5209 9.14581 12.3317 9.78222 12.9681C10.4186 13.6045 11.2295 14.0379 12.1122 14.2135C12.995 14.3891 13.9099 14.299 14.7415 13.9546C15.573 13.6101 16.2837 13.0269 16.7837 12.2785C17.2837 11.5302 17.5506 10.6504 17.5506 9.75035C17.5523 9.15229 17.4357 8.5598 17.2076 8.00694C16.9795 7.45409 16.6444 6.95177 16.2215 6.52888C15.7986 6.10598 15.2963 5.77085 14.7434 5.54275C14.1906 5.31464 13.5981 5.19807 13 5.19972ZM13 11.7004C12.6143 11.7004 12.2373 11.586 11.9166 11.3718C11.5959 11.1575 11.346 10.8529 11.1984 10.4966C11.0508 10.1403 11.0122 9.74818 11.0874 9.36991C11.1626 8.99163 11.3484 8.64416 11.6211 8.37144C11.8938 8.09872 12.2413 7.91299 12.6196 7.83775C12.9978 7.7625 13.3899 7.80112 13.7463 7.94872C14.1026 8.09631 14.4071 8.34626 14.6214 8.66695C14.8357 8.98763 14.9501 9.36466 14.9501 9.75035C14.9501 10.0064 14.8996 10.26 14.8016 10.4966C14.7036 10.7332 14.56 10.9482 14.3789 11.1293C14.1978 11.3103 13.9829 11.454 13.7463 11.552C13.5097 11.65 13.2561 11.7004 13 11.7004Z" fill="#E73467"/>
</svg>
