<svg width="24" height="24" viewBox="0 0 24 24" fill="none" xmlns="http://www.w3.org/2000/svg">
<path d="M12 6C13.8387 5.99389 15.6419 6.50678 17.2021 7.47973C18.7624 8.45267 20.0164 9.84616 20.82 11.5C20.0115 13.15 18.7563 14.5401 17.1972 15.5124C15.638 16.4846 13.8374 17 12 17C10.1626 17 8.36195 16.4846 6.80282 15.5124C5.24368 14.5401 3.98853 13.15 3.18 11.5C3.98362 9.84616 5.23763 8.45267 6.79788 7.47973C8.35813 6.50678 10.1613 5.99389 12 6ZM12 4C9.62547 4.00141 7.30636 4.71755 5.34446 6.05521C3.38256 7.39286 1.86874 9.2901 1 11.5C1.86767 13.7106 3.38125 15.6085 5.3434 16.9462C7.30555 18.2839 9.62523 18.9994 12 18.9994C14.3748 18.9994 16.6945 18.2839 18.6566 16.9462C20.6187 15.6085 22.1323 13.7106 23 11.5C22.1313 9.2901 20.6174 7.39286 18.6555 6.05521C16.6936 4.71755 14.3745 4.00141 12 4ZM12 9C12.4945 9 12.9778 9.14662 13.3889 9.42133C13.8 9.69603 14.1205 10.0865 14.3097 10.5433C14.4989 11.0001 14.5484 11.5028 14.452 11.9877C14.3555 12.4727 14.1174 12.9181 13.7678 13.2678C13.4181 13.6174 12.9727 13.8555 12.4877 13.952C12.0028 14.0484 11.5001 13.9989 11.0433 13.8097C10.5865 13.6205 10.196 13.3 9.92133 12.8889C9.64662 12.4778 9.5 11.9945 9.5 11.5C9.5 10.837 9.76339 10.2011 10.2322 9.73223C10.7011 9.26339 11.337 9 12 9ZM12 7C11.11 7 10.24 7.26392 9.49993 7.75839C8.75991 8.25285 8.18314 8.95566 7.84254 9.77792C7.50195 10.6002 7.41283 11.505 7.58647 12.3779C7.7601 13.2508 8.18868 14.0526 8.81802 14.682C9.44736 15.3113 10.2492 15.7399 11.1221 15.9135C11.995 16.0872 12.8998 15.9981 13.7221 15.6575C14.5443 15.3169 15.2471 14.7401 15.7416 14.0001C16.2361 13.26 16.5 12.39 16.5 11.5C16.4981 10.3071 16.0234 9.16358 15.1799 8.32006C14.3364 7.47655 13.1929 7.00185 12 7Z" fill="#8E7D82"/>
</svg>
