<svg width="25" height="25" viewBox="0 0 25 25" fill="none" xmlns="http://www.w3.org/2000/svg">
<path d="M18.6377 16.75C17.8852 16.7539 17.1613 17.0405 16.6079 17.5536L9.23016 13.2286C9.28578 12.9893 9.31554 12.7448 9.31891 12.4991C9.31554 12.2534 9.28578 12.0089 9.23016 11.7696L16.5298 7.48392C17.0536 7.96965 17.7276 8.25907 18.4385 8.30346C19.1495 8.34785 19.8539 8.14451 20.4333 7.72766C21.0127 7.31081 21.4317 6.7059 21.6197 6.01472C21.8078 5.32353 21.7534 4.58828 21.4658 3.93269C21.1782 3.27709 20.6749 2.74118 20.0406 2.41514C19.4063 2.0891 18.6797 1.99282 17.9831 2.14253C17.2865 2.29223 16.6624 2.67877 16.2159 3.23709C15.7694 3.79541 15.5277 4.49144 15.5314 5.20803C15.5362 5.45386 15.5675 5.69843 15.6246 5.9375L8.32491 10.2232C7.88279 9.80678 7.3293 9.52947 6.73255 9.42539C6.1358 9.32131 5.52182 9.39501 4.96616 9.63741C4.41051 9.87982 3.93741 10.2804 3.60508 10.7897C3.27276 11.2991 3.0957 11.8952 3.0957 12.5045C3.0957 13.1138 3.27276 13.7098 3.60508 14.2192C3.93741 14.7286 4.41051 15.1291 4.96616 15.3715C5.52182 15.6139 6.1358 15.6876 6.73255 15.5835C7.3293 15.4795 7.88279 15.2021 8.32491 14.7857L15.6974 19.1187C15.6438 19.3404 15.6161 19.5675 15.6148 19.7955C15.6155 20.3971 15.7935 20.9849 16.1262 21.4847C16.4589 21.9845 16.9315 22.3738 17.4841 22.6035C18.0367 22.8331 18.6446 22.8928 19.2309 22.775C19.8173 22.6571 20.3557 22.367 20.7782 21.9414C21.2007 21.5157 21.4882 20.9736 21.6045 20.3836C21.7208 19.7935 21.6606 19.182 21.4315 18.6264C21.2024 18.0708 20.8147 17.596 20.3174 17.262C19.8201 16.928 19.2356 16.7498 18.6377 16.75ZM18.6377 4.16696C18.8425 4.16696 19.0428 4.22809 19.2132 4.34262C19.3835 4.45716 19.5163 4.61994 19.5946 4.81039C19.673 5.00083 19.6934 5.21038 19.6534 5.41253C19.6134 5.61468 19.5146 5.80033 19.3697 5.94602C19.2248 6.09171 19.0401 6.19087 18.8392 6.23098C18.6382 6.27108 18.4299 6.25032 18.2407 6.17132C18.0515 6.09232 17.8898 5.95863 17.7761 5.78716C17.6624 5.61569 17.6018 5.41415 17.6019 5.20803C17.6027 4.9319 17.712 4.66729 17.9061 4.47203C18.1002 4.27678 18.3632 4.16767 18.6377 4.16696ZM6.21266 13.542C6.00782 13.542 5.80757 13.4809 5.63725 13.3664C5.46693 13.2519 5.33418 13.0891 5.25579 12.8987C5.1774 12.7083 5.15689 12.4988 5.19685 12.2967C5.23681 12.0946 5.33545 11.9089 5.4803 11.7632C5.62515 11.6175 5.8097 11.5183 6.0106 11.4781C6.21151 11.4378 6.41976 11.4585 6.60901 11.5373C6.79826 11.6162 6.96002 11.7498 7.07382 11.9211C7.18763 12.0925 7.24837 12.2939 7.24837 12.5C7.24744 12.776 7.13799 13.0404 6.94393 13.2354C6.74988 13.4305 6.48698 13.5413 6.21266 13.542ZM18.6377 20.8545C18.4328 20.8545 18.2326 20.7934 18.0623 20.6789C17.8919 20.5644 17.7592 20.4016 17.6808 20.2112C17.6024 20.0208 17.5819 19.8113 17.6219 19.6092C17.6618 19.4071 17.7605 19.2214 17.9053 19.0757C18.0501 18.93 18.2347 18.8308 18.4356 18.7906C18.6365 18.7503 18.8448 18.771 19.034 18.8498C19.2233 18.9287 19.385 19.0623 19.4988 19.2336C19.6126 19.405 19.6734 19.6064 19.6734 19.8125C19.6724 20.0885 19.563 20.3529 19.3689 20.5479C19.1749 20.743 18.912 20.8538 18.6377 20.8545Z" fill="#8E7D82"/>
</svg>
