<svg width="12" height="18" viewBox="0 0 12 18" fill="none" xmlns="http://www.w3.org/2000/svg">
<path d="M11.4683 15.2414L4.39725 8.99156L11.4683 2.74175C11.809 2.44055 12.0005 2.03204 12.0005 1.60608C12.0005 1.18012 11.809 0.771609 11.4683 0.47041C11.1275 0.169212 10.6653 0 10.1834 0C9.70145 0 9.23926 0.169212 8.89848 0.47041L0.533002 7.86435C0.364045 8.01338 0.230002 8.19039 0.138544 8.38527C0.0470867 8.58014 9.53674e-06 8.78904 9.53674e-06 9.00002C9.53674e-06 9.21099 0.0470867 9.4199 0.138544 9.61477C0.230002 9.80964 0.364045 9.98666 0.533002 10.1357L8.89848 17.5296C9.06709 17.679 9.26737 17.7974 9.48785 17.8783C9.70833 17.9591 9.94468 18.0007 10.1834 18.0007C10.4221 18.0007 10.6584 17.9591 10.8789 17.8783C11.0994 17.7974 11.2997 17.679 11.4683 17.5296C11.8057 17.2237 11.9945 16.8133 11.9945 16.3861C11.9945 15.9589 11.8057 15.5473 11.4683 15.2414Z" fill="#430315"/>
</svg>
