<svg width="25" height="25" viewBox="0 0 25 25" fill="none" xmlns="http://www.w3.org/2000/svg">
<path d="M17.0844 3.12504C16.1983 3.1318 15.3238 3.3296 14.5201 3.7051C13.7163 4.08059 13.002 4.62507 12.4251 5.30182C11.8482 4.62507 11.1338 4.08059 10.33 3.7051C9.52626 3.3296 8.65184 3.1318 7.76568 3.12504C7.01571 3.11752 6.27179 3.26058 5.57745 3.54585C4.88312 3.83112 4.25232 4.25287 3.72199 4.7864C3.19166 5.31994 2.77244 5.95454 2.48888 6.65307C2.20532 7.35159 2.06312 8.10001 2.07059 8.8545C2.07059 12.792 5.59131 15.9974 10.9234 20.875L12.4251 22.2393L13.9267 20.8643C19.2588 16 22.7795 12.7911 22.7795 8.85361C22.7869 8.09919 22.6446 7.35087 22.361 6.65245C22.0774 5.95403 21.6581 5.31953 21.1278 4.78609C20.5975 4.25265 19.9667 3.83098 19.2724 3.54577C18.5782 3.26056 17.8343 3.11752 17.0844 3.12504ZM12.528 19.3233L12.4242 19.4277L12.3203 19.3233C7.39559 14.8331 4.14113 11.8643 4.14113 8.8545C4.12932 8.3724 4.215 7.89292 4.39297 7.44514C4.57095 6.99737 4.8375 6.59064 5.17645 6.24964C5.5154 5.90864 5.91969 5.64048 6.36478 5.46144C6.80987 5.28239 7.28647 5.19619 7.76568 5.20807C8.55263 5.21196 9.32139 5.44653 9.97789 5.88309C10.6344 6.31964 11.1502 6.93926 11.4621 7.66611H13.3986C13.7071 6.93894 14.2206 6.31862 14.8756 5.88179C15.5307 5.44495 16.2986 5.21073 17.0844 5.20807C17.5636 5.19632 18.0401 5.28261 18.4851 5.46171C18.93 5.64081 19.3342 5.90898 19.6731 6.24997C20.0119 6.59096 20.2784 6.99764 20.4563 7.44536C20.6342 7.89307 20.7199 8.37248 20.7081 8.8545C20.7081 11.8643 17.4572 14.8331 12.528 19.3233Z" fill="#EF3167"/>
</svg>
