<svg width="24" height="24" viewBox="0 0 24 24" fill="none" xmlns="http://www.w3.org/2000/svg">
<g clip-path="url(#clip0_331_2724)">
<path d="M16.3629 12.956C16.7057 12.9571 17.0424 12.866 17.3378 12.6922C17.6333 12.5183 17.8764 12.2682 18.0419 11.968L21.4779 5.74002C21.5587 5.59456 21.6 5.43053 21.598 5.26417C21.5959 5.09781 21.5505 4.93486 21.4661 4.79144C21.3818 4.64802 21.2615 4.52909 21.1171 4.44642C20.9727 4.36374 20.8093 4.32017 20.6429 4.32002H6.4399L5.5379 2.40002H2.3999V4.31902H4.3189L7.7739 11.6L6.4739 13.942C6.31303 14.2344 6.23102 14.5636 6.23592 14.8973C6.24082 15.2309 6.33247 15.5576 6.50186 15.8451C6.67124 16.1326 6.91254 16.3711 7.20201 16.5372C7.49149 16.7032 7.8192 16.791 8.1529 16.792H19.6739V14.875H8.1579L9.2139 12.956H16.3629ZM7.3519 6.23902H19.0119L16.3629 11.039H9.6259L7.3519 6.23902ZM8.1579 17.755C7.77836 17.755 7.40734 17.8676 7.09176 18.0784C6.77619 18.2893 6.53022 18.589 6.38498 18.9397C6.23973 19.2903 6.20173 19.6762 6.27578 20.0484C6.34982 20.4207 6.53259 20.7626 6.80096 21.031C7.06934 21.2993 7.41127 21.4821 7.78352 21.5562C8.15577 21.6302 8.54162 21.5922 8.89227 21.4469C9.24292 21.3017 9.54263 21.0557 9.75349 20.7402C9.96435 20.4246 10.0769 20.0536 10.0769 19.674C10.0773 19.4219 10.0279 19.1721 9.93165 18.939C9.83536 18.706 9.69404 18.4942 9.51578 18.3159C9.33752 18.1375 9.12582 17.9961 8.89281 17.8997C8.65981 17.8033 8.41007 17.7548 8.1579 17.755ZM17.7579 17.755C17.3784 17.755 17.0073 17.8676 16.6918 18.0784C16.3762 18.2893 16.1302 18.589 15.985 18.9397C15.8397 19.2903 15.8017 19.6762 15.8758 20.0484C15.9498 20.4207 16.1326 20.7626 16.401 21.031C16.6693 21.2993 17.0113 21.4821 17.3835 21.5562C17.7558 21.6302 18.1416 21.5922 18.4923 21.4469C18.8429 21.3017 19.1426 21.0557 19.3535 20.7402C19.5644 20.4246 19.6769 20.0536 19.6769 19.674C19.6773 19.4215 19.6278 19.1714 19.5313 18.9381C19.4347 18.7048 19.2931 18.4928 19.1144 18.3144C18.9357 18.136 18.7235 17.9947 18.49 17.8985C18.2566 17.8023 18.0064 17.7532 17.7539 17.754L17.7579 17.755Z" fill="white"/>
</g>
<defs>
<clipPath id="clip0_331_2724">
<rect width="24" height="24" fill="white"/>
</clipPath>
</defs>
</svg>
