<svg width="24" height="24" viewBox="0 0 24 24" fill="none" xmlns="http://www.w3.org/2000/svg">
<g clip-path="url(#clip0_331_2730)">
<path d="M11.71 17.99C10.5491 17.9344 9.42928 17.5429 8.48667 16.8629C7.54407 16.183 6.81924 15.2439 6.40027 14.1598C5.9813 13.0756 5.88621 11.8932 6.12657 10.756C6.36693 9.61891 6.93238 8.57607 7.75422 7.75422C8.57607 6.93238 9.61891 6.36693 10.756 6.12657C11.8932 5.88621 13.0756 5.9813 14.1598 6.40027C15.2439 6.81924 16.183 7.54407 16.8629 8.48667C17.5429 9.42928 17.9344 10.5491 17.99 11.71L15.89 11.08C15.7268 10.3864 15.3812 9.74901 14.8891 9.23372C14.397 8.71843 13.7761 8.34395 13.0908 8.149C12.4054 7.95406 11.6804 7.94573 10.9907 8.12487C10.3011 8.30401 9.67181 8.66412 9.16796 9.16796C8.66412 9.67181 8.30401 10.3011 8.12487 10.9907C7.94573 11.6804 7.95406 12.4054 8.149 13.0908C8.34395 13.7761 8.71843 14.397 9.23372 14.8891C9.74901 15.3812 10.3864 15.7268 11.08 15.89L11.71 17.99ZM22 12C22 12.3 21.99 12.6 21.96 12.9L19.99 12.31C20 12.21 20 12.1 20 12C20 10.4178 19.5308 8.87104 18.6518 7.55544C17.7727 6.23985 16.5233 5.21447 15.0615 4.60897C13.5997 4.00347 11.9911 3.84504 10.4393 4.15372C8.88743 4.4624 7.46197 5.22433 6.34315 6.34315C5.22433 7.46197 4.4624 8.88743 4.15372 10.4393C3.84504 11.9911 4.00347 13.5997 4.60897 15.0615C5.21447 16.5233 6.23985 17.7727 7.55544 18.6518C8.87104 19.5308 10.4178 20 12 20C12.1 20 12.21 20 12.31 19.99L12.9 21.96C12.6 21.99 12.3 22 12 22C10.0222 22 8.08879 21.4135 6.4443 20.3147C4.79981 19.2159 3.51809 17.6541 2.76121 15.8268C2.00433 13.9996 1.8063 11.9889 2.19215 10.0491C2.578 8.10929 3.53041 6.32746 4.92894 4.92894C6.32746 3.53041 8.10929 2.578 10.0491 2.19215C11.9889 1.8063 13.9996 2.00433 15.8268 2.76121C17.6541 3.51809 19.2159 4.79981 20.3147 6.4443C21.4135 8.08879 22 10.0222 22 12ZM18.23 16.26L22 15L12 12L15 22L16.26 18.23L20.53 22.5L22.51 20.52L18.23 16.26Z" fill="#EF3167"/>
</g>
<defs>
<clipPath id="clip0_331_2730">
<rect width="24" height="24" fill="white"/>
</clipPath>
</defs>
</svg>
