<svg width="33" height="32" viewBox="0 0 33 32" fill="none" xmlns="http://www.w3.org/2000/svg">
<g clip-path="url(#clip0_148_36)">
<path d="M22.3657 17.2746C22.8227 17.2761 23.2717 17.1546 23.6656 16.9228C24.0595 16.691 24.3837 16.3575 24.6044 15.9573L29.1857 7.65328C29.2934 7.45933 29.3485 7.24063 29.3458 7.01881C29.343 6.79699 29.2824 6.57973 29.17 6.3885C29.0576 6.19728 28.8972 6.03871 28.7046 5.92847C28.5121 5.81824 28.2942 5.76015 28.0724 5.75995H9.13502L7.93235 3.19995H3.74835V5.75862H6.30702L10.9137 15.4666L9.18035 18.5893C8.96586 18.9791 8.85651 19.4181 8.86304 19.863C8.86958 20.3078 8.99177 20.7434 9.21762 21.1268C9.44347 21.5101 9.7652 21.8281 10.1512 22.0495C10.5371 22.2708 10.9741 22.3879 11.419 22.3893H26.7804V19.8333H11.4257L12.8337 17.2746H22.3657ZM10.351 8.31862H25.8977L22.3657 14.7186H13.383L10.351 8.31862ZM11.4257 23.6733C10.9196 23.6733 10.4249 23.8233 10.0042 24.1045C9.5834 24.3856 9.25545 24.7853 9.06179 25.2528C8.86813 25.7203 8.81746 26.2348 8.91618 26.7311C9.01491 27.2275 9.2586 27.6834 9.61644 28.0412C9.97427 28.399 10.4302 28.6427 10.9265 28.7415C11.4228 28.8402 11.9373 28.7895 12.4048 28.5958C12.8724 28.4022 13.272 28.0742 13.5531 27.6535C13.8343 27.2327 13.9844 26.738 13.9844 26.232C13.9849 25.8957 13.9191 25.5627 13.7907 25.252C13.6623 24.9412 13.4739 24.6589 13.2362 24.4211C12.9985 24.1833 12.7162 23.9947 12.4056 23.8661C12.0949 23.7376 11.7619 23.6729 11.4257 23.6733ZM24.2257 23.6733C23.7196 23.6733 23.2249 23.8233 22.8042 24.1045C22.3834 24.3856 22.0554 24.7853 21.8618 25.2528C21.6681 25.7203 21.6175 26.2348 21.7162 26.7311C21.8149 27.2275 22.0586 27.6834 22.4164 28.0412C22.7743 28.399 23.2302 28.6427 23.7265 28.7415C24.2228 28.8402 24.7373 28.7895 25.2048 28.5958C25.6724 28.4022 26.072 28.0742 26.3531 27.6535C26.6343 27.2327 26.7844 26.738 26.7844 26.232C26.7849 25.8953 26.7189 25.5618 26.5902 25.2507C26.4615 24.9396 26.2726 24.657 26.0343 24.4192C25.7961 24.1813 25.5132 23.9928 25.2019 23.8646C24.8906 23.7364 24.557 23.6709 24.2204 23.6719L24.2257 23.6733Z" fill="#8E7D82"/>
</g>
<defs>
<clipPath id="clip0_148_36">
<rect width="32" height="32" fill="white" transform="translate(0.54834)"/>
</clipPath>
</defs>
</svg>
