<svg width="20" height="20" viewBox="0 0 20 20" fill="none" xmlns="http://www.w3.org/2000/svg">
<path d="M13.963 10.556C14.3058 10.5571 14.6425 10.466 14.9379 10.2922C15.2333 10.1183 15.4765 9.86819 15.642 9.568L19.078 3.34C19.1588 3.19453 19.2001 3.03051 19.1981 2.86415C19.196 2.69778 19.1506 2.53483 19.0662 2.39142C18.9819 2.248 18.8616 2.12907 18.7172 2.04639C18.5728 1.96371 18.4094 1.92015 18.243 1.92H4.04L3.138 0H0V1.919H1.919L5.374 9.2L4.074 11.542C3.91313 11.8344 3.83112 12.1636 3.83602 12.4973C3.84092 12.8309 3.93257 13.1576 4.10195 13.4451C4.27134 13.7326 4.51263 13.9711 4.80211 14.1371C5.09159 14.3032 5.41929 14.391 5.753 14.392H17.274V12.475H5.758L6.814 10.556H13.963ZM4.952 3.839H16.612L13.963 8.639H7.226L4.952 3.839ZM5.758 15.355C5.37846 15.355 5.00744 15.4675 4.69186 15.6784C4.37628 15.8893 4.13032 16.189 3.98507 16.5396C3.83983 16.8903 3.80183 17.2761 3.87587 17.6484C3.94992 18.0206 4.13269 18.3626 4.40106 18.6309C4.66944 18.8993 5.01137 19.0821 5.38362 19.1561C5.75587 19.2302 6.14172 19.1922 6.49237 19.0469C6.84302 18.9017 7.14273 18.6557 7.35359 18.3401C7.56445 18.0246 7.677 17.6535 7.677 17.274C7.67739 17.0218 7.62804 16.7721 7.53175 16.539C7.43546 16.306 7.29414 16.0942 7.11588 15.9158C6.93762 15.7375 6.72592 15.596 6.49291 15.4996C6.2599 15.4032 6.01016 15.3547 5.758 15.355ZM15.358 15.355C14.9785 15.355 14.6074 15.4675 14.2919 15.6784C13.9763 15.8893 13.7303 16.189 13.5851 16.5396C13.4398 16.8903 13.4018 17.2761 13.4759 17.6484C13.5499 18.0206 13.7327 18.3626 14.0011 18.6309C14.2694 18.8993 14.6114 19.0821 14.9836 19.1561C15.3559 19.2302 15.7417 19.1922 16.0924 19.0469C16.443 18.9017 16.7427 18.6557 16.9536 18.3401C17.1645 18.0246 17.277 17.6535 17.277 17.274C17.2774 17.0215 17.2279 16.7714 17.1314 16.5381C17.0348 16.3048 16.8932 16.0928 16.7145 15.9144C16.5358 15.736 16.3236 15.5947 16.0901 15.4985C15.8567 15.4023 15.6065 15.3532 15.354 15.354L15.358 15.355Z" fill="white"/>
</svg>
