<svg width="19" height="17" viewBox="0 0 19 17" fill="none" xmlns="http://www.w3.org/2000/svg">
<path d="M13.7059 0.000243393C12.9138 0.00635837 12.1322 0.182192 11.4138 0.515895C10.6953 0.849598 10.0568 1.33342 9.54117 1.93475C9.02554 1.33342 8.387 0.849598 7.66858 0.515895C6.95017 0.182192 6.16857 0.00635837 5.37646 0.000243393C4.70621 -0.00634231 4.04137 0.120816 3.42085 0.374279C2.80034 0.627742 2.2366 1.00242 1.76264 1.47638C1.28867 1.95035 0.913996 2.51408 0.660534 3.1346C0.407071 3.75512 0.279913 4.41995 0.286498 5.09021C0.286498 8.58856 3.43293 11.4393 8.19944 15.7706L9.54117 16.9832L10.8829 15.7616C15.6494 11.4393 18.7958 8.58926 18.7958 5.0909C18.8025 4.42059 18.6754 3.75568 18.422 3.13508C18.1686 2.51448 17.7939 1.95066 17.32 1.47662C16.846 1.00259 16.2822 0.627848 15.6616 0.374343C15.0411 0.120837 14.3762 -0.0063438 13.7059 0.000243393ZM9.63418 14.3914L9.54186 14.4837L9.44955 14.3914C5.04398 10.4023 2.1384 7.76464 2.1384 5.09021C2.12804 4.66212 2.2047 4.23638 2.36375 3.83879C2.5228 3.44121 2.76092 3.08006 3.06369 2.77723C3.36645 2.47441 3.72755 2.23621 4.1251 2.07707C4.52265 1.91794 4.94837 1.84118 5.37646 1.85146C6.07991 1.85498 6.76708 2.06348 7.35388 2.45144C7.94068 2.8394 8.40168 3.38999 8.68046 4.03584H10.4109C10.6866 3.38958 11.1456 2.83827 11.7312 2.45005C12.3168 2.06183 13.0033 1.85372 13.7059 1.85146C14.1341 1.84099 14.56 1.91761 14.9577 2.07665C15.3554 2.2357 15.7166 2.47387 16.0196 2.77672C16.3225 3.07957 16.5607 3.44078 16.7199 3.83846C16.879 4.23614 16.9557 4.662 16.9453 5.09021C16.9453 7.76534 14.0391 10.403 9.63418 14.3914Z" fill="#8E7D82"/>
</svg>
