<svg width="34" height="34" viewBox="0 0 34 34" fill="none" xmlns="http://www.w3.org/2000/svg">
<g clip-path="url(#clip0_148_41)">
<path d="M23.375 4.25C22.1625 4.25925 20.9661 4.52832 19.8664 5.03907C18.7667 5.54981 17.7893 6.29038 17 7.21084C16.2107 6.29038 15.2333 5.54981 14.1336 5.03907C13.0339 4.52832 11.8375 4.25925 10.625 4.25C9.59898 4.23997 8.58127 4.43466 7.63141 4.82267C6.68155 5.21069 5.81861 5.78424 5.09308 6.50977C4.36755 7.2353 3.794 8.09824 3.40598 9.0481C3.01797 9.99796 2.82328 11.0157 2.83332 12.0417C2.83332 17.3967 7.64998 21.76 14.9458 28.39L17 30.2458L19.0541 28.3758C26.35 21.76 31.1666 17.3967 31.1666 12.0417C31.1767 11.0157 30.982 9.99796 30.594 9.0481C30.206 8.09824 29.6324 7.2353 28.9069 6.50977C28.1814 5.78424 27.3184 5.21069 26.3686 4.82267C25.4187 4.43466 24.401 4.23997 23.375 4.25ZM17.1416 26.2792L17 26.4208L16.8583 26.2792C10.115 20.1733 5.66665 16.1358 5.66665 12.0417C5.65073 11.3862 5.76809 10.7343 6.01164 10.1255C6.25518 9.51675 6.61982 8.96378 7.08346 8.50015C7.54709 8.03651 8.10006 7.67187 8.70883 7.42832C9.3176 7.18478 9.9695 7.06741 10.625 7.08334C11.7018 7.08857 12.7536 7.40762 13.6519 8.00142C14.5502 8.59523 15.2558 9.43803 15.6825 10.4267H18.3316C18.7538 9.43763 19.4563 8.59391 20.3526 7.99974C21.2489 7.40557 22.2996 7.08699 23.375 7.08334C24.0305 7.06741 24.6824 7.18478 25.2911 7.42832C25.8999 7.67187 26.4529 8.03651 26.9165 8.50015C27.3801 8.96378 27.7448 9.51675 27.9883 10.1255C28.2319 10.7343 28.3492 11.3862 28.3333 12.0417C28.3333 16.1358 23.885 20.1733 17.1416 26.2792Z" fill="#E73467"/>
</g>
<defs>
<clipPath id="clip0_148_41">
<rect width="34" height="34" fill="white"/>
</clipPath>
</defs>
</svg>
