<svg width="20" height="20" viewBox="0 0 20 20" fill="none" xmlns="http://www.w3.org/2000/svg">
<path d="M10.005 4.87301C8.99075 4.87281 7.9992 5.1734 7.15578 5.73675C6.31235 6.3001 5.65492 7.10092 5.26664 8.03792C4.87837 8.97492 4.77667 10.006 4.97442 11.0008C5.17217 11.9956 5.66049 12.9094 6.37761 13.6267C7.09474 14.344 8.00846 14.8325 9.00322 15.0304C9.99798 15.2284 11.0291 15.1269 11.9662 14.7388C12.9033 14.3507 13.7042 13.6934 14.2677 12.8501C14.8312 12.0068 15.132 11.0153 15.132 10.001C15.1332 9.32734 15.0014 8.66007 14.7442 8.03744C14.487 7.41481 14.1094 6.84908 13.6331 6.37268C13.1567 5.89628 12.5911 5.51858 11.9685 5.26123C11.3459 5.00389 10.6787 4.87196 10.005 4.87301ZM10.005 13.334C9.34557 13.3342 8.70087 13.1388 8.15247 12.7726C7.60406 12.4064 7.17658 11.8858 6.92408 11.2766C6.67159 10.6674 6.60542 9.99699 6.73395 9.35019C6.86248 8.7034 7.17994 8.10924 7.64616 7.64287C8.11239 7.1765 8.70645 6.85887 9.35321 6.73015C9.99997 6.60142 10.6704 6.66739 11.2796 6.9197C11.8889 7.17201 12.4097 7.59934 12.7761 8.14764C13.1425 8.69593 13.338 9.34057 13.338 10C13.3367 10.8837 12.9851 11.7308 12.3604 12.3557C11.7357 12.9806 10.8887 13.3324 10.005 13.334ZM16.534 4.66301C16.534 4.90035 16.4636 5.13236 16.3318 5.3297C16.1999 5.52704 16.0125 5.68084 15.7932 5.77167C15.574 5.86249 15.3327 5.88626 15.0999 5.83995C14.8671 5.79365 14.6533 5.67936 14.4855 5.51154C14.3177 5.34372 14.2034 5.1299 14.1571 4.89712C14.1108 4.66434 14.1345 4.42306 14.2254 4.20379C14.3162 3.98452 14.47 3.79711 14.6673 3.66525C14.8647 3.53339 15.0967 3.46301 15.334 3.46301C15.4919 3.46208 15.6483 3.49249 15.7943 3.55246C15.9403 3.61244 16.073 3.7008 16.1846 3.81241C16.2962 3.92403 16.3846 4.05668 16.4446 4.20269C16.5045 4.3487 16.5349 4.50517 16.534 4.66301ZM19.934 5.87701C19.9671 4.32211 19.387 2.81664 18.319 1.68601C17.1867 0.621266 15.683 0.0413296 14.129 0.0700117C12.478 -0.0239883 7.52901 -0.0239883 5.87901 0.0700117C4.324 0.0382383 2.81843 0.616919 1.68501 1.68201C0.618823 2.81374 0.0389788 4.31847 0.0700117 5.87301C-0.0239883 7.52401 -0.0239883 12.473 0.0700117 14.125C0.0371962 15.6796 0.61731 17.1846 1.68501 18.315C2.81772 19.3791 4.32112 19.9589 5.87501 19.931C7.52601 20.025 12.475 20.025 14.125 19.931C15.6798 19.9639 17.185 19.3834 18.315 18.315C19.3795 17.1822 19.959 15.6782 19.93 14.124C20.024 12.473 20.024 7.52401 19.93 5.87701H19.934ZM17.797 15.896C17.6273 16.3259 17.3711 16.7164 17.0442 17.0432C16.7174 17.3701 16.3269 17.6263 15.897 17.796C14.581 18.318 11.458 18.196 10.003 18.196C8.54801 18.196 5.42101 18.312 4.10901 17.796C3.67909 17.6263 3.28861 17.3701 2.96178 17.0432C2.63494 16.7164 2.37873 16.3259 2.20901 15.896C1.68701 14.579 1.80901 11.456 1.80901 9.99601C1.80901 8.53601 1.69301 5.41301 2.20901 4.09601C2.37873 3.66609 2.63494 3.27561 2.96178 2.94878C3.28861 2.62194 3.67909 2.36573 4.10901 2.19601C5.42501 1.67401 8.54801 1.79601 10.003 1.79601C11.458 1.79601 14.585 1.68001 15.897 2.19601C16.3269 2.36573 16.7174 2.62194 17.0442 2.94878C17.3711 3.27561 17.6273 3.66609 17.797 4.09601C18.319 5.41301 18.197 8.53601 18.197 9.99601C18.197 11.456 18.319 14.584 17.797 15.896Z" fill="#E9164D"/>
</svg>
