<svg width="221" height="58" viewBox="0 0 221 58" fill="none" xmlns="http://www.w3.org/2000/svg">
<path d="M31.4356 9.64965C28.8007 9.64965 26.3029 10.2458 24.0682 11.3092C24.0682 11.3092 24.0682 11.3092 24.0655 11.3065C21.565 8.73933 18.17 6.96434 13.9881 6.07013C11.6138 5.55992 9.363 5.41492 7.60374 5.41492C5.47652 5.41492 4.053 5.62169 3.94557 5.6378C3.12906 5.76132 2.64023 6.45413 2.64023 7.16305C2.64023 7.56048 2.79063 7.95522 3.121 8.2694C3.15323 8.30162 3.26604 8.40903 3.43256 8.59432C4.82922 10.09 10.0372 16.5321 6.54819 25.8662C2.60262 28.471 0 32.942 0 38.0145C0 46.0463 6.53744 52.585 14.5736 52.585C20.0179 52.585 24.7692 49.5882 27.2698 45.1548C27.5276 44.6983 27.7667 44.223 27.9735 43.7369C28.3764 42.8051 28.6826 41.8223 28.8733 40.7938C28.9726 40.297 29.0452 39.7842 29.0908 39.2766C29.1231 38.8577 29.1472 38.4388 29.1472 38.0145C29.1472 31.5617 24.9975 26.0622 19.102 24.1584C18.9059 25.0284 18.8066 25.9387 18.8066 26.8651C18.8066 27.0102 18.8119 27.1605 18.8173 27.3055C23.1174 28.9973 26.0826 33.1622 26.0826 38.0119C26.0826 38.1058 26.0826 38.2025 26.0773 38.2965C26.0665 38.8443 26.0155 39.3787 25.9215 39.905C25.755 40.9442 25.4461 41.927 25.0163 42.84C24.7988 43.3153 24.5517 43.7611 24.275 44.1907C22.2311 47.3943 18.6481 49.5157 14.5763 49.5157C8.22687 49.5157 3.06997 44.3572 3.06997 38.0119C3.06997 32.3136 7.23577 27.5606 12.6908 26.6637C12.6962 25.5977 12.8036 24.5477 12.9863 23.5327C12.0543 23.632 11.1491 23.8227 10.2789 24.0912C11.8985 16.9725 9.25825 11.4595 7.21966 8.48959C8.87685 8.46274 11.1061 8.57284 13.4348 9.07499C16.7008 9.78391 19.3464 11.0729 21.3582 12.9203C18.3339 15.1116 16.0482 18.2587 14.947 21.9188C14.7939 22.4156 14.6676 22.9258 14.5629 23.4467C14.3587 24.443 14.2406 25.4688 14.2218 26.5161C14.2191 26.6342 14.2191 26.7497 14.2191 26.8678C14.2191 27.2626 14.2352 27.6573 14.262 28.0467C14.6784 34.2309 18.3822 39.529 23.6304 42.209C24.0682 41.2745 24.361 40.2568 24.4845 39.1934C20.6169 37.0049 17.8773 33.0494 17.3723 28.4307C17.3159 27.9178 17.2837 27.3968 17.2837 26.8678V26.8249C17.2864 25.7749 17.4072 24.7491 17.6275 23.7663C17.7376 23.2615 17.8773 22.7674 18.0438 22.2894C19.0268 19.4134 20.915 16.9564 23.3618 15.2485C23.7755 15.8688 24.1488 16.5321 24.4684 17.2356C24.4684 17.2356 24.4684 17.241 24.4711 17.2437C22.5023 18.4977 21.3313 19.9908 21.7637 20.842C22.2767 21.8517 24.8391 21.5778 27.4873 20.2324C30.1356 18.8871 31.868 16.9778 31.355 15.9709C30.9468 15.1679 29.2332 15.1787 27.2161 15.8984C26.875 15.1518 26.4855 14.4483 26.0504 13.7796C27.713 13.0922 29.534 12.7109 31.4437 12.7109C39.2542 12.7109 45.6063 19.0616 45.6063 26.8705C45.6063 34.6794 39.2542 41.0301 31.4437 41.0301C31.0945 41.0301 30.748 41.0194 30.4069 40.9925C30.2108 42.0291 29.9208 43.028 29.534 43.9867C30.1625 44.0592 30.7964 44.0941 31.4437 44.0941C40.9409 44.0941 48.6682 36.3684 48.6682 26.8732C48.6682 17.378 40.9356 9.64965 31.4356 9.64965Z" fill="#EF3167"/>
<path d="M73.9155 24.6283C72.3281 23.9006 70.5662 23.5354 68.6297 23.5354C66.9537 23.5354 65.4308 23.8066 64.061 24.3464C62.6885 24.8888 61.5416 25.6595 60.6177 26.6638C59.6937 27.6681 59.0518 28.8469 58.6892 30.203L63.368 30.2245C63.599 29.5612 63.9992 28.9893 64.5713 28.514C65.1407 28.0387 65.788 27.6761 66.5105 27.4318C67.233 27.1874 67.9313 27.0639 68.6109 27.0639C69.3898 27.0639 70.1633 27.2008 70.9288 27.4747C71.6943 27.7486 72.3684 28.1541 72.9539 28.6885C73.5395 29.2229 73.9477 29.8512 74.1787 30.5709H67.378V33.3636H74.2002C73.8672 34.4592 73.1822 35.3158 72.1428 35.9281C71.1034 36.543 69.927 36.8491 68.6136 36.8491C67.4586 36.8491 66.4165 36.586 65.4845 36.0597C64.5525 35.5333 63.8703 34.7707 63.4379 33.7745H58.6946C59.084 35.1467 59.7421 36.3255 60.666 37.3137C61.59 38.3019 62.7315 39.0645 64.0878 39.5989C65.4442 40.1333 66.9617 40.3991 68.635 40.3991C70.6575 40.3991 72.4571 40.0339 74.039 39.3062C75.621 38.5785 76.8512 37.5715 77.7321 36.2852C78.6131 35.0017 79.0536 33.565 79.0536 31.9753C79.0536 30.3856 78.5943 28.9302 77.6784 27.6439C76.7625 26.3603 75.5082 25.3534 73.9209 24.6229L73.9155 24.6283Z" fill="#EF3167"/>
<path d="M97.3258 24.6175C96.2944 24.169 95.1072 23.9462 93.7643 23.9462H82.0485V39.9694H86.5527V34.7733H94.1537C96.2031 34.7733 97.7877 34.3088 98.9078 33.377C100.025 32.4452 100.586 31.1079 100.586 29.3597V29.2738C100.586 28.2212 100.302 27.2921 99.7296 26.4918C99.1602 25.6916 98.3571 25.0659 97.3258 24.6202V24.6175ZM95.9828 30.8206C95.6874 31.1159 95.3248 31.2958 94.9004 31.363C94.476 31.4301 93.8637 31.4597 93.0713 31.4597H86.5312V27.2384C88.3925 27.2384 89.7328 27.2357 90.5493 27.2276C91.3658 27.2196 91.9379 27.2169 92.2709 27.2169H93.0713C93.8368 27.2169 94.4384 27.2518 94.8789 27.3243C95.3194 27.3968 95.6874 27.5874 95.9828 27.8989C96.2783 28.2104 96.426 28.7045 96.426 29.3812C96.426 30.0579 96.2783 30.5252 95.9828 30.8206Z" fill="#EF3167"/>
<path d="M118.66 24.6928C117.115 23.9651 115.375 23.5999 113.441 23.5999C111.507 23.5999 109.861 23.9651 108.287 24.6928C106.713 25.4205 105.467 26.4302 104.551 27.7137C103.635 29 103.176 30.434 103.176 32.0237C103.176 33.6134 103.638 35.0231 104.561 36.3014C105.485 37.5796 106.732 38.5812 108.298 39.3116C109.863 40.0393 111.58 40.4045 113.441 40.4045C115.302 40.4045 117.115 40.0393 118.66 39.3116C120.204 38.5839 121.418 37.5822 122.299 36.3121C123.18 35.0419 123.62 33.6134 123.62 32.0237C123.62 30.434 123.18 28.9812 122.299 27.703C121.418 26.4248 120.204 25.4232 118.66 24.6928ZM118.141 34.6311C117.62 35.3588 116.943 35.9174 116.105 36.2987C115.267 36.68 114.381 36.8733 113.441 36.8733C112.501 36.8733 111.59 36.6827 110.744 36.2987C109.901 35.9174 109.221 35.3534 108.708 34.6096C108.195 33.8658 107.94 32.9904 107.94 31.978C107.94 30.9656 108.193 30.1171 108.698 29.3786C109.203 28.6429 109.877 28.0843 110.723 27.7003C111.566 27.319 112.474 27.1257 113.441 27.1257C114.408 27.1257 115.267 27.3217 116.105 27.7111C116.943 28.1004 117.62 28.667 118.141 29.4109C118.66 30.1547 118.92 31.0247 118.92 32.021C118.92 33.0172 118.66 33.9007 118.141 34.6311Z" fill="#EF3167"/>
<path d="M127.375 34.5128C126.986 35.6111 126.242 36.1589 125.146 36.1589V39.9694C126.199 39.8405 126.94 39.7358 127.365 39.6552C127.789 39.5773 128.375 39.3115 129.119 38.8657C129.863 38.4173 130.451 37.7406 130.883 36.8303C131.533 35.3426 132.035 33.8711 132.387 32.4129C132.742 30.9548 133.069 29.2523 133.373 27.3028H139.459V39.9694H143.942V23.9462H129.301C129.027 27.7862 128.385 31.3093 127.373 34.5128H127.375Z" fill="#EF3167"/>
<path d="M154.871 23.9462L146.166 39.9694H150.78L152.448 36.8947H162.042L163.71 39.9694H168.324L159.641 23.9462H154.876H154.871ZM154.221 33.6025L157.253 28.0386L160.264 33.6025H154.221Z" fill="#EF3167"/>
<path d="M175.399 34.8163V23.9462H170.916V39.9694H175.399L185.579 29.0993V39.9694H190.083V23.9462H185.579L175.399 34.8163Z" fill="#EF3167"/>
<path d="M219.614 28.6562C218.69 27.668 217.409 26.8919 215.771 26.328C214.132 25.7641 212.295 25.4768 210.259 25.4607H209.392V23.9462H204.887V25.4607H203.998C202.035 25.4768 200.209 25.7722 198.519 26.3495C196.83 26.9269 195.479 27.7056 194.469 28.6884C193.459 29.6712 192.954 30.7668 192.954 31.9806C192.954 33.1944 193.464 34.2712 194.48 35.262C195.498 36.2502 196.859 37.0343 198.562 37.6117C200.265 38.189 202.099 38.479 204.063 38.479H204.885V39.9721H209.389V38.479H210.256C212.292 38.479 214.127 38.1944 215.757 37.6224C217.387 37.0531 218.671 36.2717 219.601 35.2835C220.533 34.2953 220.997 33.1944 220.997 31.9806C220.997 30.7668 220.535 29.6471 219.611 28.6562H219.614ZM204.887 35.0982H204.28C202.634 35.0982 201.154 34.8539 199.841 34.3625C198.527 33.8711 197.869 33.0789 197.869 31.9806C197.869 30.8823 198.527 30.0472 199.841 29.5558C201.154 29.0644 202.634 28.82 204.28 28.82H204.887V35.0982ZM214.46 34.3732C213.275 34.8566 211.855 35.0982 210.192 35.0982H209.392V28.82H210.17C211.801 28.82 213.222 29.0617 214.428 29.545C215.634 30.0284 216.235 30.842 216.235 31.9806C216.235 33.1192 215.644 33.8899 214.46 34.3732Z" fill="#EF3167"/>
<path d="M184.904 20.4392C186.054 19.9854 187.225 19.5826 188.603 18.9891C186.199 17.3592 182.941 17.6169 180.376 18.4655C177.728 19.3033 176.178 20.3586 173.266 20.4473C176.202 24.0966 181.44 21.7496 184.904 20.4365V20.4392Z" fill="#EF3167"/>
</svg>
