<svg width="232" height="61" viewBox="0 0 232 61" fill="none" xmlns="http://www.w3.org/2000/svg">
<path d="M117.999 9.58593C140.85 9.18456 163.701 10.308 186.402 12.9486C203.702 15.1853 216.164 19.0894 221.799 23.0029C227.433 26.9163 227.815 32.3168 220.2 36.433C212.585 40.5492 195.272 45.1085 176.084 47.6993C156.895 50.2901 127.832 51.7952 105.07 51.9797C82.3089 52.1642 55.6136 50.9667 39.5354 48.8052C23.4573 46.6437 12.8603 42.9282 8.59408 39.0231C4.32786 35.118 5.30275 29.5494 13.937 25.3738C22.5713 21.1982 40.9455 16.4971 60.4039 13.9702C79.8623 11.4434 117.341 10.8211 130.684 10.2129C144.026 9.60482 140.754 10.1258 140.46 10.3164M81.0855 10.8606C100.997 8.74161 130.329 8.11861 152.021 9.22587C173.713 10.3331 198.268 14.019 211.236 17.5042C224.203 20.9893 231.385 25.8861 229.829 30.1344C228.273 34.3826 216.48 39.5549 201.904 42.9945C187.328 46.4341 164.066 49.3745 142.373 50.7717C120.681 52.169 92.0441 52.3159 71.747 51.3739C51.4499 50.4318 32.1839 48.2241 20.58 45.1272C8.97598 42.0302 0.669577 37.1192 2.11901 32.7904C3.56845 28.4616 15.7137 22.6651 29.2734 19.1506C42.833 15.6361 73.8657 13.0795 83.4808 11.7214C93.0959 10.3633 86.7034 10.7114 86.9752 11.0056" stroke="#F27C96" stroke-width="2"/>
<path d="M109.334 50.892C86.8584 49.7493 64.4883 47.0573 42.3831 42.8351C25.7502 39.4145 14.2637 34.6616 9.5387 30.3686C4.81366 26.0755 5.60639 20.6596 14.035 17.0748C22.4636 13.4901 40.5781 10.1295 60.1202 8.86158C79.6622 7.59367 108.754 8.08919 131.31 9.47002C153.867 10.8509 180.021 13.8787 195.464 17.1439C210.907 20.4091 220.585 24.841 223.959 29.0315C227.333 33.2221 225.164 38.7122 215.714 42.2887C206.265 45.8653 187.069 49.2896 167.27 50.4744C147.472 51.6592 110.253 49.7042 96.9193 49.3953C83.5854 49.0864 86.9372 48.7905 87.2679 48.6202M146.134 52.157C125.973 52.9035 96.8167 51.5083 75.5941 48.9125C54.3714 46.3168 30.8735 40.9506 18.7969 36.5815C6.72021 32.2125 0.676834 26.8318 3.13616 22.6983C5.59549 18.5648 18.3851 14.2143 33.5526 11.7834C48.7202 9.35255 72.373 8.01623 94.1393 8.1128C117.533 8.35707 140.9 9.77624 164.151 12.3649C184.037 14.6998 202.613 18.2322 213.424 22.1208C224.235 26.0094 231.388 31.4767 229.017 35.6966C226.646 39.9164 213.372 44.8706 199.194 47.4448C185.015 50.0191 153.759 50.4378 143.951 51.1323C134.142 51.8268 140.543 51.9194 140.343 51.6097" stroke="#F27C96" stroke-width="2"/>
</svg>
