<svg width="17" height="20" viewBox="0 0 17 20" fill="none" xmlns="http://www.w3.org/2000/svg">
<path d="M16.6667 11.6667H0V6.66667H7.46833V7.5C7.46833 7.96 7.84167 8.33333 8.30167 8.33333C8.76167 8.33333 9.135 7.96 9.135 7.5V6.66667H16.6667V11.6667ZM16.6667 5V3.33333C16.6667 1.4925 15.1742 0 13.3333 0H9.135V0.833333C9.135 1.29333 8.76167 1.66667 8.30167 1.66667C7.84167 1.66667 7.46833 1.29333 7.46833 0.833333V0H3.33333C1.4925 0 0 1.4925 0 3.33333V5H16.6667ZM9.135 13.3333V14.1667C9.135 14.6275 8.76167 15 8.30167 15C7.84167 15 7.46833 14.6275 7.46833 14.1667V13.3333H0V19.1667C0 19.6275 0.373333 20 0.833333 20C1.29333 20 1.66667 19.6275 1.66667 19.1667V18.3333H15V19.1667C15 19.6275 15.3733 20 15.8333 20C16.2933 20 16.6667 19.6275 16.6667 19.1667V13.3333H9.135Z" fill="#EF3167"/>
</svg>
