<svg width="17" height="20" viewBox="0 0 17 20" fill="none" xmlns="http://www.w3.org/2000/svg">
<path fill-rule="evenodd" clip-rule="evenodd" d="M3.17348 0H15.6401C16.3201 0 17.0001 0.759494 17.0001 1.51899V16.2025C17.0001 16.962 16.3201 17.7215 15.6401 17.7215H15.1868V4.81013C15.1868 3.5443 14.2801 2.53165 13.1468 2.53165H1.81348V1.51899C1.81348 0.759494 2.49348 0 3.17348 0ZM13.1467 3.79747C13.6 3.79747 13.8267 4.05064 13.8267 4.55697V19.2405C13.8267 19.7468 13.6 20 13.1467 20H0.68C0.226667 20 0 19.7468 0 19.2405V4.55697C0 4.3038 0.226667 3.79747 0.68 3.79747H13.1467Z" fill="#EF3167"/>
</svg>
