<svg width="16" height="13" viewBox="0 0 16 13" fill="none" xmlns="http://www.w3.org/2000/svg">
<path fill-rule="evenodd" clip-rule="evenodd" d="M4.05455 1L7 3.94059L6.56364 4.48515L4.38182 2.19802V11.6733C4.38182 11.8911 4.27273 12 4.05455 12C3.83636 12 3.72727 11.8911 3.72727 11.6733V2.08911L1.32727 4.48515L1 4.0495V3.94059L3.94545 1H4.05455ZM12.0545 12L15 9.05941L14.5636 8.51485L12.3818 10.802V1.32673C12.3818 1.10891 12.2727 1 12.0545 1C11.8364 1 11.7273 1.10891 11.7273 1.32673V10.9109L9.32727 8.51485L9 8.9505V9.05941L11.9455 12H12.0545Z" fill="#430315"/>
<path d="M7 3.94059L7.15607 4.06566L7.2682 3.92574L7.1413 3.79906L7 3.94059ZM4.05455 1L4.19585 0.858462L4.13729 0.8H4.05455V1ZM6.56364 4.48515L6.41892 4.6232L6.57674 4.78863L6.71971 4.61021L6.56364 4.48515ZM4.38182 2.19802L4.52653 2.05997L4.18182 1.69862V2.19802H4.38182ZM3.72727 2.08911H3.92727V1.60683L3.58597 1.94757L3.72727 2.08911ZM1.32727 4.48515L1.16737 4.60528L1.30565 4.78935L1.46858 4.62669L1.32727 4.48515ZM1 4.0495H0.8V4.11626L0.840095 4.16963L1 4.0495ZM1 3.94059L0.858695 3.79906L0.8 3.85765V3.94059H1ZM3.94545 1V0.8H3.86271L3.80415 0.858462L3.94545 1ZM15 9.05941L15.1413 9.20094L15.2682 9.07426L15.1561 8.93434L15 9.05941ZM12.0545 12V12.2H12.1373L12.1959 12.1415L12.0545 12ZM14.5636 8.51485L14.7197 8.38979L14.5767 8.21137L14.4189 8.3768L14.5636 8.51485ZM12.3818 10.802H12.1818V11.3014L12.5265 10.94L12.3818 10.802ZM11.7273 10.9109L11.586 11.0524L11.9273 11.3932V10.9109H11.7273ZM9.32727 8.51485L9.46858 8.37331L9.30565 8.21065L9.16737 8.39472L9.32727 8.51485ZM9 8.9505L8.8401 8.83037L8.8 8.88374V8.9505H9ZM9 9.05941H8.8V9.14235L8.8587 9.20094L9 9.05941ZM11.9455 12L11.8041 12.1415L11.8627 12.2H11.9455V12ZM7.1413 3.79906L4.19585 0.858462L3.91324 1.14154L6.8587 4.08213L7.1413 3.79906ZM6.71971 4.61021L7.15607 4.06566L6.84393 3.81553L6.40756 4.36008L6.71971 4.61021ZM4.2371 2.33607L6.41892 4.6232L6.70835 4.3471L4.52653 2.05997L4.2371 2.33607ZM4.58182 11.6733V2.19802H4.18182V11.6733H4.58182ZM4.05455 12.2C4.19438 12.2 4.33601 12.165 4.4413 12.0599C4.54666 11.9547 4.58182 11.8131 4.58182 11.6733H4.18182C4.18182 11.7513 4.16243 11.773 4.1587 11.7768C4.1549 11.7806 4.13289 11.8 4.05455 11.8V12.2ZM3.52727 11.6733C3.52727 11.8131 3.56243 11.9547 3.66779 12.0599C3.77308 12.165 3.91471 12.2 4.05455 12.2V11.8C3.9762 11.8 3.95419 11.7806 3.9504 11.7768C3.94666 11.773 3.92727 11.7513 3.92727 11.6733H3.52727ZM3.52727 2.08911V11.6733H3.92727V2.08911H3.52727ZM1.46858 4.62669L3.86858 2.23065L3.58597 1.94757L1.18597 4.34361L1.46858 4.62669ZM0.840095 4.16963L1.16737 4.60528L1.48718 4.36502L1.1599 3.92938L0.840095 4.16963ZM0.8 3.94059V4.0495H1.2V3.94059H0.8ZM3.80415 0.858462L0.858695 3.79906L1.1413 4.08213L4.08676 1.14154L3.80415 0.858462ZM4.05455 0.8H3.94545V1.2H4.05455V0.8ZM14.8587 8.91787L11.9132 11.8585L12.1959 12.1415L15.1413 9.20094L14.8587 8.91787ZM14.4076 8.63992L14.8439 9.18447L15.1561 8.93434L14.7197 8.38979L14.4076 8.63992ZM12.5265 10.94L14.7084 8.6529L14.4189 8.3768L12.2371 10.6639L12.5265 10.94ZM12.1818 1.32673V10.802H12.5818V1.32673H12.1818ZM12.0545 1.2C12.1329 1.2 12.1549 1.21943 12.1587 1.22322C12.1624 1.22695 12.1818 1.24873 12.1818 1.32673H12.5818C12.5818 1.18691 12.5467 1.04533 12.4413 0.940146C12.336 0.835026 12.1944 0.8 12.0545 0.8V1.2ZM11.9273 1.32673C11.9273 1.24873 11.9467 1.22695 11.9504 1.22322C11.9542 1.21943 11.9762 1.2 12.0545 1.2V0.8C11.9147 0.8 11.7731 0.835026 11.6678 0.940146C11.5624 1.04533 11.5273 1.18691 11.5273 1.32673H11.9273ZM11.9273 10.9109V1.32673H11.5273V10.9109H11.9273ZM9.18597 8.65639L11.586 11.0524L11.8686 10.7694L9.46858 8.37331L9.18597 8.65639ZM9.1599 9.07062L9.48718 8.63498L9.16737 8.39472L8.8401 8.83037L9.1599 9.07062ZM9.2 9.05941V8.9505H8.8V9.05941H9.2ZM12.0868 11.8585L9.1413 8.91787L8.8587 9.20094L11.8041 12.1415L12.0868 11.8585ZM12.0545 11.8H11.9455V12.2H12.0545V11.8Z" fill="#430315"/>
</svg>
