<svg width="15" height="15" viewBox="0 0 15 15" fill="none" xmlns="http://www.w3.org/2000/svg">
<path d="M2.95 1.66667C2.99762 2.39743 3.12333 3.121 3.325 3.825L2.325 4.825C1.97696 3.80437 1.76404 2.74257 1.69167 1.66667H2.95ZM11.1667 11.6833C11.874 11.8829 12.6001 12.0086 13.3333 12.0583V13.3C12.2557 13.2255 11.1918 13.0156 10.1667 12.675L11.1667 11.6833ZM3.75 0H0.833333C0.61232 0 0.400358 0.0877973 0.244078 0.244078C0.0877973 0.400358 0 0.61232 0 0.833333C0 4.59057 1.49256 8.19391 4.14932 10.8507C6.80609 13.5074 10.4094 15 14.1667 15C14.3877 15 14.5996 14.9122 14.7559 14.7559C14.9122 14.5996 15 14.3877 15 14.1667V11.2583C15 11.0373 14.9122 10.8254 14.7559 10.6691C14.5996 10.5128 14.3877 10.425 14.1667 10.425C13.1561 10.4258 12.1518 10.2655 11.1917 9.95C11.1089 9.91998 11.0213 9.90584 10.9333 9.90833C10.7123 9.9092 10.5001 9.99584 10.3417 10.15L8.50833 11.9833C6.14619 10.7753 4.22467 8.85381 3.01667 6.49167L4.85 4.65833C4.96013 4.54991 5.03794 4.41299 5.07473 4.26288C5.11152 4.11278 5.10584 3.9554 5.05833 3.80833C4.74221 2.84838 4.58185 1.844 4.58333 0.833333C4.58333 0.61232 4.49554 0.400358 4.33926 0.244078C4.18298 0.0877973 3.97101 0 3.75 0Z" fill="white"/>
</svg>
