<svg width="19" height="18" viewBox="0 0 19 18" fill="none" xmlns="http://www.w3.org/2000/svg">
<path d="M14 1.5H2C1.60653 1.51369 1.2329 1.67612 0.954509 1.95451C0.676116 2.2329 0.513687 2.60653 0.5 3V5.258C0.506971 5.51553 0.579502 5.76704 0.710736 5.98874C0.84197 6.21043 1.02757 6.395 1.25 6.525V15C1.27622 15.3892 1.44267 15.7557 1.7185 16.0315C1.99432 16.3073 2.36081 16.4738 2.75 16.5H13.25C13.6392 16.4738 14.0057 16.3073 14.2815 16.0315C14.5573 15.7557 14.7238 15.3892 14.75 15V6.525C14.9726 6.39492 15.1583 6.21019 15.2895 5.9883C15.4207 5.76641 15.4932 5.51471 15.5 5.257V3C15.4863 2.60653 15.3239 2.2329 15.0455 1.95451C14.7671 1.67612 14.3935 1.51369 14 1.5ZM13.25 15H2.75V6.75H13.25V15ZM14 5.25H2V3H14V5.25Z" fill="#EF3167"/>
<path d="M10.25 9H5.75V10.5H10.25V9Z" fill="#EF3167"/>
</svg>
