<svg width="22" height="22" viewBox="0 0 22 22" fill="none" xmlns="http://www.w3.org/2000/svg">
<path d="M18.273 7.49998H15.545V3.99998H2.818C2.34529 3.99247 1.8888 4.17228 1.54818 4.50015C1.20757 4.82802 1.01051 5.27732 1 5.74998V15.375H2.818C2.82437 15.7265 2.9 16.0733 3.04056 16.3956C3.18111 16.7178 3.38384 17.0092 3.63713 17.253C3.89042 17.4968 4.18931 17.6883 4.51668 17.8165C4.84406 17.9446 5.1935 18.007 5.545 18C5.8965 18.007 6.24594 17.9446 6.57332 17.8165C6.90069 17.6883 7.19958 17.4968 7.45287 17.253C7.70616 17.0092 7.90889 16.7178 8.04944 16.3956C8.19 16.0733 8.26563 15.7265 8.272 15.375H13.727C13.7505 16.0827 14.0481 16.7536 14.5571 17.2459C15.066 17.7383 15.7464 18.0135 16.4545 18.0135C17.1626 18.0135 17.843 17.7383 18.3519 17.2459C18.8609 16.7536 19.1585 16.0827 19.182 15.375H21V11L18.273 7.49998ZM17.818 8.81298L19.6 11H15.545V8.81298H17.818ZM5.545 16.25C5.37325 16.2435 5.20721 16.1867 5.06754 16.0865C4.92786 15.9864 4.82074 15.8473 4.7595 15.6867C4.69826 15.5262 4.68561 15.3511 4.72313 15.1834C4.76064 15.0157 4.84667 14.8627 4.97049 14.7435C5.09431 14.6243 5.25046 14.5442 5.41949 14.5131C5.58852 14.482 5.76296 14.5013 5.9211 14.5686C6.07924 14.6359 6.21408 14.7483 6.30883 14.8916C6.40359 15.035 6.45407 15.2031 6.454 15.375C6.44746 15.6109 6.34852 15.8348 6.1785 15.9984C6.00848 16.1621 5.78098 16.2524 5.545 16.25ZM7.563 13.625C7.30437 13.3489 6.99183 13.1288 6.64472 12.9783C6.29762 12.8278 5.92332 12.7502 5.545 12.7502C5.16668 12.7502 4.79238 12.8278 4.44528 12.9783C4.09817 13.1288 3.78563 13.3489 3.527 13.625H2.818V5.74998H13.727V13.625H7.563ZM16.454 16.25C16.2823 16.2435 16.1162 16.1867 15.9765 16.0865C15.8369 15.9864 15.7297 15.8473 15.6685 15.6867C15.6073 15.5262 15.5946 15.3511 15.6321 15.1834C15.6696 15.0157 15.7557 14.8627 15.8795 14.7435C16.0033 14.6243 16.1595 14.5442 16.3285 14.5131C16.4975 14.482 16.672 14.5013 16.8301 14.5686C16.9882 14.6359 17.1231 14.7483 17.2178 14.8916C17.3126 15.035 17.3631 15.2031 17.363 15.375C17.3565 15.6107 17.2577 15.8345 17.0879 15.9981C16.9181 16.1617 16.6898 16.2522 16.454 16.25Z" fill="#EF3167"/>
</svg>
