<svg width="24" height="24" viewBox="0 0 24 24" fill="none" xmlns="http://www.w3.org/2000/svg">
<mask id="mask0_331_2811" style="mask-type:luminance" maskUnits="userSpaceOnUse" x="1" y="1" width="11" height="20">
<path d="M12 1.5H1.5V21H12V1.5Z" fill="white"/>
</mask>
<g mask="url(#mask0_331_2811)">
<path d="M12 17.27L18.18 21L16.54 13.97L22 9.24L14.81 8.63L12 2L9.19 8.63L2 9.24L7.46 13.97L5.82 21L12 17.27Z" fill="#EF3167"/>
</g>
<mask id="mask1_331_2811" style="mask-type:luminance" maskUnits="userSpaceOnUse" x="12" y="1" width="11" height="20">
<path d="M22.5 1.5H12V21H22.5V1.5Z" fill="white"/>
</mask>
<g mask="url(#mask1_331_2811)">
<path d="M12 7.13L12.97 9.42L13.44 10.53L14.64 10.63L17.11 10.84L15.23 12.47L14.32 13.26L14.59 14.44L15.15 16.85L13.03 15.57L12 14.93L10.97 15.55L8.85 16.83L9.41 14.42L9.68 13.24L8.77 12.45L6.89 10.82L9.36 10.61L10.56 10.51L11.03 9.4L12 7.13ZM12 2L9.19 8.63L2 9.24L7.46 13.97L5.82 21L12 17.27L18.18 21L16.54 13.97L22 9.24L14.81 8.63L12 2Z" fill="#EF3167"/>
</g>
</svg>
