<svg width="19" height="19" viewBox="0 0 19 19" fill="none" xmlns="http://www.w3.org/2000/svg">
<path d="M13.8639 12.321H13.0509L12.7629 12.043C13.8916 10.7282 14.4669 9.02715 14.3681 7.29713C14.2693 5.5671 13.5041 3.94264 12.2331 2.76481C10.9621 1.58697 9.28414 0.94739 7.55161 0.980339C5.81908 1.01329 4.1667 1.71621 2.94139 2.94151C1.71608 4.16682 1.01316 5.8192 0.980217 7.55173C0.947268 9.28426 1.58685 10.9622 2.76469 12.2332C3.94252 13.5042 5.56698 14.2694 7.29701 14.3682C9.02703 14.467 10.7281 13.8917 12.0429 12.763L12.3209 13.051V13.864L17.4669 19L18.9999 17.467L13.8639 12.321ZM7.68892 12.321C6.77304 12.3208 5.87778 12.0491 5.11635 11.5401C4.35492 11.0311 3.76151 10.3078 3.41115 9.46156C3.06079 8.61534 2.96923 7.68423 3.14803 6.78597C3.32683 5.88771 3.76797 5.06264 4.41567 4.41508C5.06336 3.76752 5.88853 3.32656 6.78683 3.14796C7.68513 2.96935 8.61621 3.06112 9.46236 3.41165C10.3085 3.76219 11.0317 4.35576 11.5405 5.1173C12.0493 5.87885 12.3209 6.77416 12.3209 7.69004C12.3217 8.29842 12.2025 8.90097 11.97 9.46319C11.7376 10.0254 11.3965 10.5362 10.9663 10.9664C10.5361 11.3966 10.0253 11.7377 9.46306 11.9701C8.90085 12.2026 8.2973 12.3218 7.68892 12.321Z" fill="#8E7D82"/>
</svg>
