<svg xmlns="http://www.w3.org/2000/svg" style="border: 0 !important; clip: rect(0 0 0 0) !important; height: 1px !important; margin: -1px !important; overflow: hidden !important; padding: 0 !important; position: absolute !important; width: 1px !important;" class="root-svg-symbols-element">
  <defs>
      <clipPath id="clip-path-moiety"><path fill="#e9164d" d="M0 0H21V39H0z"/></clipPath>
  </defs>
    <symbol id="account" viewBox="0 0 24 24">
      <path d="M0,0H24V24H0Z" fill="none"/><path d="M11.333,2a9.333,9.333,0,1,0,9.333,9.333A9.337,9.337,0,0,0,11.333,2Zm-4.6,15.195c.4-.84,2.847-1.661,4.6-1.661s4.209.821,4.6,1.661a7.4,7.4,0,0,1-9.2,0Zm10.537-1.353c-1.335-1.624-4.573-2.175-5.936-2.175s-4.6.551-5.936,2.175a7.467,7.467,0,1,1,11.872,0ZM11.333,5.733A3.267,3.267,0,1,0,14.6,9,3.258,3.258,0,0,0,11.333,5.733Zm0,4.667a1.4,1.4,0,1,1,1.4-1.4A1.4,1.4,0,0,1,11.333,10.4Z" transform="translate(.667 .667)"/>
    </symbol>
    <symbol id="ads-click" viewBox="0 0 24 24">
      <path fill="none" d="M0 0H24V24H0z"/><path d="M11.71,17.99a6,6,0,1,1,6.28-6.28l-2.1-.63a4,4,0,1,0-4.81,4.81ZM22,12c0,.3-.01.6-.04.9l-1.97-.59c.01-.1.01-.21.01-.31a8,8,0,1,0-8,8c.1,0,.21,0,.31-.01l.59,1.97c-.3.03-.6.04-.9.04A10,10,0,1,1,22,12Zm-3.77,4.26L22,15,12,12l3,10,1.26-3.77,4.27,4.27,1.98-1.98Z"/>
    </symbol>
    <symbol id="arrow-right" viewBox="0 0 26.827 19">
      <g fill="none"><path d="M0,0C9.078,0,9,8.414,9,8.414S8.9,0,18,0" transform="rotate(-90 18.207 .293)"/><path d="M0,25.827V0" transform="rotate(-90 5 4.5)"/></g>
    </symbol>
    <symbol id="bolt" viewBox="0 0 18 18">
      <path fill="none" d="M0 0H18V18H0z"/><path d="M11,17H10l1-5.444H7.5c-.88,0-.33-.583-.31-.607Q9.125,8.289,13.01,3h1l-1,5.444h3.51c.4,0,.62.148.4.513Q11,17,11,17Z" transform="translate(-3.002 -1)"/>
    </symbol>
    <symbol id="call" viewBox="0 0 24 24">
      <path d="M0,0H24V24H0Z" fill="none"/><path d="M6.54,5a12.312,12.312,0,0,0,.45,2.59l-1.2,1.2A14.826,14.826,0,0,1,5.03,5H6.54M16.4,17.02a12.753,12.753,0,0,0,2.6.45v1.49a15.426,15.426,0,0,1-3.8-.75l1.2-1.19M7.5,3H4A1,1,0,0,0,3,4,17,17,0,0,0,20,21a1,1,0,0,0,1-1V16.51a1,1,0,0,0-1-1,11.407,11.407,0,0,1-3.57-.57.839.839,0,0,0-.31-.05,1.024,1.024,0,0,0-.71.29l-2.2,2.2a15.149,15.149,0,0,1-6.59-6.59l2.2-2.2a1,1,0,0,0,.25-1.02A11.36,11.36,0,0,1,8.5,4,1,1,0,0,0,7.5,3Z"/>
    </symbol>
    <symbol id="cancellation" viewBox="0 0 16 16">
      <path d="M10,2a8,8,0,1,0,8,8A7.993,7.993,0,0,0,10,2Zm4,10.872L12.872,14,10,11.128,7.128,14,6,12.872,8.872,10,6,7.128,7.128,6,10,8.872,12.872,6,14,7.128,11.128,10Z" transform="translate(-2 -2)"/>
    </symbol>
    <symbol id="checkbox" viewBox="0 0 15.141 11.594">
      <path d="M25.5,13.563l-1.237-1.273a.266.266,0,0,0-.2-.084h0a.255.255,0,0,0-.2.084l-8.578,8.641L12.164,17.81a.272.272,0,0,0-.394,0l-1.252,1.252a.28.28,0,0,0,0,.4L14.456,23.4a1.245,1.245,0,0,0,.823.4,1.3,1.3,0,0,0,.816-.387H16.1l9.4-9.45A.3.3,0,0,0,25.5,13.563Z" transform="translate(-10.434 -12.206)"/>
    </symbol>
    <symbol id="circle-play" viewBox="0 0 56 56">
      <g fill="none" stroke="#e9164d" stroke-width="2"><circle cx="28" cy="28" r="28" stroke="none"/><circle cx="28" cy="28" r="27"/></g><path d="M9,7.114V20.387a.342.342,0,0,0,.512.315l10.521-6.637a.376.376,0,0,0,0-.626L9.512,6.8A.339.339,0,0,0,9,7.114Z" transform="translate(14.8 14.249)" fill="#e9164d"/>
    </symbol>
    <symbol id="circle-plus" viewBox="0 0 40 40">
      <path d="M0,0H40V40H0Z" fill="none"/><path d="M20.333,10.333H17V17H10.333v3.333H17V27h3.333V20.333H27V17H20.333ZM18.667,2A16.667,16.667,0,1,0,35.333,18.667,16.673,16.673,0,0,0,18.667,2Zm0,30A13.333,13.333,0,1,1,32,18.667,13.351,13.351,0,0,1,18.667,32Z" transform="translate(1.333 1.333)"/>
    </symbol>
    <symbol id="close" viewBox="0 0 18 18">
      <path d="M0,0H18V18H0Z" fill="none"/><path d="M15.077,5.634a.747.747,0,0,0-1.057,0l-3.668,3.66L6.684,5.627A.748.748,0,0,0,5.627,6.684l3.668,3.668L5.627,14.019a.748.748,0,0,0,1.057,1.057l3.668-3.667,3.668,3.667a.748.748,0,0,0,1.057-1.057l-3.667-3.668,3.667-3.667A.752.752,0,0,0,15.077,5.634Z" transform="translate(-1.352 -1.352)"/>
    </symbol>
    <symbol id="creator" viewBox="0 0 55 16">
      <path d="M297.983,229.776,300.815,233h7.2l-2.544-2.691,4.1-3.685V217H298.7l-6.5,5.988V233h5.783Zm.024-7.442h5.759v5.285h-5.759Z" transform="translate(-254.573 -217)"/><path d="M216.035,233.127H208.5v-9.939l6.527-5.988h10.846v15.927h-5.807v-3.685Zm4.007-10.594h-5.759v5.285h5.759Z" transform="translate(-190.959 -217.152)"/><path d="M175.468,217.1l-3.767,3.491v12.461h5.759V217.1Z" transform="translate(-162.989 -217.076)"/><path d="M135.4,217.2v4.848h3.192l-3.192,2.861v8.218h5.807V217.2Z" transform="translate(-135.4 -217.152)"/>
    </symbol>
    <symbol id="event" viewBox="0 0 24 24">
      <path d="M0,0H24V24H0Z" fill="none"/><path d="M19,4H18V2H16V4H8V2H6V4H5A1.991,1.991,0,0,0,3.01,6L3,20a2,2,0,0,0,2,2H19a2.006,2.006,0,0,0,2-2V6A2.006,2.006,0,0,0,19,4Zm0,16H5V10H19ZM19,8H5V6H19Zm-7,5h5v5H12Z"/>
    </symbol>
    <symbol id="expand-more" viewBox="0 0 40 40">
      <path d="M40,40H0V0H40Z" fill="none" opacity=".87"/><path d="M22.188,9.485l-6.467,6.467L9.255,9.485a1.662,1.662,0,0,0-2.35,2.35l7.65,7.65a1.66,1.66,0,0,0,2.35,0l7.65-7.65a1.66,1.66,0,0,0,0-2.35A1.7,1.7,0,0,0,22.188,9.485Z" transform="translate(4.278 5.998)"/>
    </symbol>
    <symbol id="facebook" viewBox="0 0 20 37.5">
      <path d="M20.3,21.094l1.037-6.787H14.851V9.9c0-1.857.906-3.667,3.81-3.667h2.948V.458A35.8,35.8,0,0,0,16.376,0c-5.34,0-8.831,3.25-8.831,9.135v5.172H1.609v6.787H7.546V37.5h7.306V21.094Z" transform="translate(-1.609)"/>
    </symbol>
    <symbol id="favorite" viewBox="0 0 24 24">
      <path d="M0,0H24V24H0Z" fill="none"/><path d="M16.5,3A5.988,5.988,0,0,0,12,5.09,5.988,5.988,0,0,0,7.5,3,5.447,5.447,0,0,0,2,8.5c0,3.78,3.4,6.86,8.55,11.54L12,21.35l1.45-1.32C18.6,15.36,22,12.28,22,8.5A5.447,5.447,0,0,0,16.5,3ZM12.1,18.55l-.1.1-.1-.1C7.14,14.24,4,11.39,4,8.5A3.418,3.418,0,0,1,7.5,5a3.909,3.909,0,0,1,3.57,2.36h1.87A3.885,3.885,0,0,1,16.5,5,3.418,3.418,0,0,1,20,8.5C20,11.39,16.86,14.24,12.1,18.55Z"/>
    </symbol>
    <symbol id="feather-link" viewBox="0 0 33 32.97">
      <g fill="none" stroke="#e9164d" stroke-linecap="round" stroke-linejoin="round" stroke-width="3"><path d="M15,19.492a7.5,7.5,0,0,0,11.3.81l4.5-4.5A7.5,7.5,0,1,0,20.2,5.2L17.624,7.768" transform="translate(-1.499 -1.508)"/><path d="M20.991,16.5a7.5,7.5,0,0,0-11.3-.81l-4.5,4.5a7.5,7.5,0,1,0,10.6,10.6l2.563-2.565" transform="translate(-1.493 -1.513)"/></g>
    </symbol>
    <symbol id="feather-volume" viewBox="0 0 51 38.243">
      <g fill="none" stroke="#8e7d82" stroke-linecap="round" stroke-linejoin="round" stroke-width="3"><path d="M24.6,7.5l-12,9.618H3V31.545h9.6l12,9.618Z" transform="translate(-1.5 -5.21)"/><path d="M31.783,7.395a24.076,24.076,0,0,1,0,34M23.31,15.883a12.038,12.038,0,0,1,0,17" transform="translate(10.689 -5.273)"/></g>
    </symbol>
    <symbol id="google" viewBox="0 0 36 36">
      <path d="M36,18.983c0,10.27-7.148,17.579-17.7,17.579a18.128,18.128,0,0,1-18.3-18,18.128,18.128,0,0,1,18.3-18,17.751,17.751,0,0,1,12.268,4.71l-4.98,4.71C19.07,3.8,6.957,8.445,6.957,18.563A11.365,11.365,0,0,0,18.3,29.929c7.244,0,9.959-5.11,10.387-7.759H18.3V15.979H35.712A15.533,15.533,0,0,1,36,18.983Z" transform="translate(0 -.563)"/>
    </symbol>
    <symbol id="help" viewBox="0 0 18 18">
      <path d="M0,0H18V18H0Z" fill="none"/><path d="M8.75,14h1.5V12.5H8.75ZM9.5,2A7.5,7.5,0,1,0,17,9.5,7.5,7.5,0,0,0,9.5,2Zm0,13.5a6,6,0,1,1,6-6A6.008,6.008,0,0,1,9.5,15.5ZM9.5,5a3,3,0,0,0-3,3H8a1.5,1.5,0,1,1,3,0c0,1.5-2.25,1.313-2.25,3.75h1.5c0-1.687,2.25-1.875,2.25-3.75A3,3,0,0,0,9.5,5Z" transform="translate(-.5 -.5)"/>
    </symbol>
    <symbol id="home" viewBox="0 0 36 36">
      <path fill="none" d="M0 0H36V36H0z"/><path d="M17.5,3l-9,6.87V7.5h-3v4.665L1,15.6l1.815,2.385L5.5,15.93V30h24V15.93l2.685,2.04L34,15.6Zm9,24H19V21H16v6H8.5V13.65l9-6.87,9,6.87Z" transform="translate(.5 .3)"/>
    </symbol>
    <symbol id="info" viewBox="0 0 40 40">
      <path d="M0,0H40V40H0Z" fill="none"/><path d="M17,10.333h3.333v3.333H17ZM17,17h3.333V27H17ZM18.667,2A16.667,16.667,0,1,0,35.333,18.667,16.673,16.673,0,0,0,18.667,2Zm0,30A13.333,13.333,0,1,1,32,18.667,13.351,13.351,0,0,1,18.667,32Z" transform="translate(1.333 1.333)"/>
    </symbol>
    <symbol id="instagram" viewBox="0 0 20 20">
      <path d="M10,7.11a5.128,5.128,0,1,0,5.127,5.128A5.119,5.119,0,0,0,10,7.11Zm0,8.461a3.334,3.334,0,1,1,3.333-3.334A3.339,3.339,0,0,1,10,15.571ZM16.529,6.9a1.2,1.2,0,1,1-1.2-1.2A1.193,1.193,0,0,1,16.529,6.9Zm3.4,1.214a5.92,5.92,0,0,0-1.615-4.191,5.956,5.956,0,0,0-4.19-1.616c-1.651-.094-6.6-.094-8.25,0A5.947,5.947,0,0,0,1.68,3.919,5.939,5.939,0,0,0,.065,8.11c-.094,1.651-.094,6.6,0,8.252A5.92,5.92,0,0,0,1.68,20.552a5.963,5.963,0,0,0,4.19,1.616c1.651.094,6.6.094,8.25,0a5.917,5.917,0,0,0,4.19-1.616,5.958,5.958,0,0,0,1.615-4.191c.094-1.651.094-6.6,0-8.247ZM17.792,18.133a3.375,3.375,0,0,1-1.9,1.9c-1.316.522-4.439.4-5.894.4s-4.582.116-5.894-.4a3.375,3.375,0,0,1-1.9-1.9c-.522-1.317-.4-4.44-.4-5.9s-.116-4.583.4-5.9a3.375,3.375,0,0,1,1.9-1.9c1.316-.522,4.439-.4,5.894-.4s4.582-.116,5.894.4a3.375,3.375,0,0,1,1.9,1.9c.522,1.317.4,4.44.4,5.9S18.314,16.821,17.792,18.133Z" transform="translate(.005 -2.237)"/>
    </symbol>
    <symbol id="inventory" viewBox="0 0 18 18">
      <path fill="none" d="M0 0H18V18H0z"/><path d="M15.5,2H3.5A1.555,1.555,0,0,0,2,3.5V5.758a1.515,1.515,0,0,0,.75,1.267V15.5A1.612,1.612,0,0,0,4.25,17h10.5a1.612,1.612,0,0,0,1.5-1.5V7.025A1.515,1.515,0,0,0,17,5.757V3.5A1.555,1.555,0,0,0,15.5,2Zm-.75,13.5H4.25V7.25h10.5Zm.75-9.75H3.5V3.5h12Z" transform="translate(-.5 -.5)"/><path transform="translate(6.75 9)" d="M0 0H4.5V1.5H0z"/>
    </symbol>
    <symbol id="link" viewBox="0 0 120 120">
      <path d="M71.5849 48.4157C81.3871 58.2281 81.2526 73.9599 71.6439 83.6218C71.6259 83.6415 71.6046 83.6629 71.5849 83.6825L60.5599 94.7075C50.8359 104.431 35.0155 104.43 25.293 94.7075C15.569 84.9852 15.569 69.163 25.293 59.4407L31.3807 53.353C32.9951 51.7387 35.7753 52.8116 35.8586 55.0931C35.9649 58.0006 36.4863 60.9217 37.4484 63.7426C37.7742 64.6978 37.5414 65.7543 36.8277 66.468L34.6806 68.6151C30.0826 73.2131 29.9384 80.6999 34.4912 85.3429C39.0888 90.0316 46.6459 90.0595 51.2789 85.4265L62.3039 74.4032C66.9289 69.7781 66.9096 62.3025 62.3039 57.6967C61.6967 57.0907 61.085 56.6198 60.6073 56.2909C60.2693 56.0588 59.9902 55.7509 59.7924 55.3918C59.5945 55.0328 59.4832 54.6324 59.4675 54.2227C59.4026 52.4891 60.0168 50.7026 61.3867 49.3327L64.8409 45.8784C65.7467 44.9726 67.1677 44.8613 68.218 45.5944C69.4208 46.4343 70.5475 47.3784 71.5849 48.4157ZM94.707 25.2925C84.9845 15.5698 69.1641 15.5685 59.4401 25.2925L48.4151 36.3175C48.3955 36.3371 48.3741 36.3585 48.3561 36.3782C38.7476 46.0401 38.6129 61.7719 48.4151 71.5843C49.4525 72.6216 50.5791 73.5656 51.7819 74.4055C52.8322 75.1385 54.2533 75.0271 55.1589 74.1215L58.6131 70.6672C59.983 69.2972 60.5973 67.5108 60.5323 65.7771C60.5166 65.3674 60.4054 64.9671 60.2075 64.608C60.0096 64.2489 59.7306 63.941 59.3926 63.709C58.9148 63.38 58.3032 62.9091 57.696 62.3031C53.0903 57.6974 53.0709 50.2217 57.696 45.5967L68.721 34.5733C73.354 29.9404 80.9108 29.9683 85.5087 34.657C90.0614 39.2999 89.9174 46.7868 85.3192 51.3848L83.1721 53.5319C82.4585 54.2455 82.2256 55.3021 82.5515 56.2573C83.5135 59.0781 84.0349 61.9993 84.1412 64.9068C84.2247 67.1882 87.0048 68.2612 88.6192 66.6468L94.7069 60.5591C104.431 50.837 104.431 35.0148 94.707 25.2925Z" transform="translate(0 -4.5)"/>
    </symbol>
    <symbol id="lk-account" viewBox="0 0 36 36">
      <path d="M0,0H36V36H0Z" fill="none"/><path d="M16,2A14,14,0,1,0,30,16,14.005,14.005,0,0,0,16,2ZM9.1,24.792c.6-1.26,4.27-2.492,6.9-2.492s6.314,1.232,6.9,2.492a11.1,11.1,0,0,1-13.8,0ZM24.9,22.762c-2-2.436-6.86-3.262-8.9-3.262s-6.9.826-8.9,3.262a11.2,11.2,0,1,1,17.808,0ZM16,7.6a4.9,4.9,0,1,0,4.9,4.9A4.888,4.888,0,0,0,16,7.6Zm0,7a2.1,2.1,0,1,1,2.1-2.1A2.1,2.1,0,0,1,16,14.6Z" transform="translate(2 2)"/>
    </symbol>
    <symbol id="lk-bolt" viewBox="0 0 36 36">
      <path fill="none" d="M0 0H36V36H0z"/><path d="M13,30H11.5L13,19.5H7.749c-1.32,0-.495-1.125-.465-1.17q2.9-5.13,8.73-15.33h1.5l-1.5,10.5h5.265c.6,0,.93.285.6.99Q12.992,29.992,13,30Z" transform="translate(3.501 1.5)"/>
    </symbol>
    <symbol id="lk-cottage" viewBox="0 0 36 36">
      <path fill="none" d="M0 0H36V36H0z"/><path d="M17.5,3l-9,6.87V7.5h-3v4.665L1,15.6l1.815,2.385L5.5,15.93V30h24V15.93l2.685,2.04L34,15.6Zm9,24H19V21H16v6H8.5V13.65l9-6.87,9,6.87Z" transform="translate(.5 .3)"/>
    </symbol>
    <symbol id="lk-favorite" viewBox="0 0 36 36">
      <path d="M0,0H36V36H0Z" fill="none"/><path d="M23.75,3A8.983,8.983,0,0,0,17,6.135,8.983,8.983,0,0,0,10.25,3,8.17,8.17,0,0,0,2,11.25c0,5.67,5.1,10.29,12.825,17.31L17,30.525l2.175-1.98C26.9,21.54,32,16.92,32,11.25A8.17,8.17,0,0,0,23.75,3Zm-6.6,23.325-.15.15-.15-.15C9.71,19.86,5,15.585,5,11.25A5.127,5.127,0,0,1,10.25,6,5.864,5.864,0,0,1,15.6,9.54H18.41A5.827,5.827,0,0,1,23.75,6,5.127,5.127,0,0,1,29,11.25C29,15.585,24.29,19.86,17.15,26.325Z" transform="translate(1 1.5)"/>
    </symbol>
    <symbol id="lk-forward" viewBox="0 0 36 36">
      <path fill="none" d="M0 0H36V36H0z"/><path d="M29,4H5A3.009,3.009,0,0,0,2,7V25a3.009,3.009,0,0,0,3,3H18.5V25H5V10l12,7.5L29,10v7.5h3V7A3.009,3.009,0,0,0,29,4ZM17,14.5,5,7H29Zm10.5,6,6,6-6,6V28h-6V25h6Z" transform="translate(1 2)"/>
    </symbol>
    <symbol id="lk-giftcard" viewBox="0 0 36 36">
      <path d="M0,0H36V36H0Z" fill="none"/><path d="M29,8H25.73a4.489,4.489,0,0,0-7.98-3.975L17,5.03l-.75-1.02A4.491,4.491,0,0,0,8.27,8H5a2.977,2.977,0,0,0-2.985,3L2,27.5a2.99,2.99,0,0,0,3,3H29a2.99,2.99,0,0,0,3-3V11A2.99,2.99,0,0,0,29,8ZM21.5,5A1.5,1.5,0,1,1,20,6.5,1.5,1.5,0,0,1,21.5,5Zm-9,0A1.5,1.5,0,1,1,11,6.5,1.5,1.5,0,0,1,12.5,5ZM29,27.5H5v-3H29ZM29,20H5V11h7.62L9.5,15.245,11.93,17,17,10.1,22.07,17l2.43-1.755L21.38,11H29Z" transform="translate(1 1)"/>
    </symbol>
    <symbol id="lk-logout" viewBox="0 0 36 36">
      <path d="M0,0H36V36H0Z" fill="none"/><path d="M24,10.5l-2.115,2.115L24.255,15H12v3H24.255l-2.37,2.37L24,22.5l6-6ZM6,6H16.5V3H6A3.009,3.009,0,0,0,3,6V27a3.009,3.009,0,0,0,3,3H16.5V27H6Z" transform="translate(1.5 1.5)"/>
    </symbol>
    <symbol id="lk-receipt" viewBox="0 0 36 36">
      <path d="M0,0H36V36H0Z" fill="none"/><path d="M27.75,4.25,25.5,2,23.25,4.25,21,2,18.75,4.25,16.5,2,14.25,4.25,12,2,9.75,4.25,7.5,2,5.25,4.25,3,2V32l2.25-2.25L7.5,32l2.25-2.25L12,32l2.25-2.25L16.5,32l2.25-2.25L21,32l2.25-2.25L25.5,32l2.25-2.25L30,32V2ZM27,27.635H6V6.365H27ZM7.5,21.5h18v3H7.5Zm0-6h18v3H7.5Zm0-6h18v3H7.5Z" transform="translate(1.5 1)"/>
    </symbol>
    <symbol id="lk-shopping" viewBox="0 0 36 36">
      <path d="M0,0H36V36H0Z" fill="none"/><path d="M21.944,17.834a2.865,2.865,0,0,0,2.519-1.483l5.153-9.342a1.434,1.434,0,0,0-1.252-2.13H7.06L5.707,2H1V4.879H3.879L9.061,15.8,7.118,19.317a2.884,2.884,0,0,0,2.519,4.275H26.91V20.713H9.637l1.583-2.879ZM8.428,7.758h17.49l-3.973,7.2H11.839ZM9.637,25.031a2.879,2.879,0,1,0,2.879,2.879A2.875,2.875,0,0,0,9.637,25.031Zm14.395,0A2.879,2.879,0,1,0,26.91,27.91,2.875,2.875,0,0,0,24.031,25.031Z" transform="translate(2.601 1.6)"/>
    </symbol>
    <symbol id="local-shipping" viewBox="0 0 22 22">
      <path d="M0,0H22V22H0Z" fill="none"/><path d="M18.273,7.5H15.545V4H2.818A1.79,1.79,0,0,0,1,5.75v9.625H2.818A2.674,2.674,0,0,0,5.545,18a2.674,2.674,0,0,0,2.727-2.625h5.455a2.729,2.729,0,0,0,5.455,0H21V11Zm-.455,1.313L19.6,11H15.545V8.813ZM5.545,16.25a.876.876,0,1,1,.909-.875A.9.9,0,0,1,5.545,16.25Zm2.018-2.625a2.765,2.765,0,0,0-4.036,0H2.818V5.75H13.727v7.875Zm8.891,2.625a.876.876,0,1,1,.909-.875A.9.9,0,0,1,16.455,16.25Z"/>
    </symbol>
    <symbol id="logo" viewBox="0 0 240 63">
      <path d="M31.78,15.484Zm184.451-3.052c.6-.618,1.289-.348,2.054.734.806,1.2.967,2.163.443,2.936a12.434,12.434,0,0,1-6.2,4.172,13.028,13.028,0,0,1-7.533.425c-2.377-.579-3.787-1.854-4.27-3.747a2.841,2.841,0,0,1,.765-2.472,4.692,4.692,0,0,1,2.175-1.661c.765-.27,1.289-.27,1.652,0a3.98,3.98,0,0,0,3.223,1.854,9.931,9.931,0,0,0,4.391-.425,8.9,8.9,0,0,0,3.3-1.815Zm8.62,41.021ZM227.067,25.8a21.183,21.183,0,0,0-3.3,5.33,33.327,33.327,0,0,0-2.336,7.069c-.927,4.481-.765,7.957.04,10.545a8.765,8.765,0,0,0,3.384,4.712,8.329,8.329,0,0,0,4.834,1.352,9.977,9.977,0,0,0,4.955-1.584l1.088-.657-.363,1.159a59.324,59.324,0,0,0-1.571,6.953l-.04.039-.443,2.356h0a1.674,1.674,0,0,0,.161,1.12,2.744,2.744,0,0,0,1.611.966h0a11.8,11.8,0,0,0,2.7.27c1.772-.077,3.5-.464,4.109-1l2.457-10.738.081-.464.483.116,4.794,1.391c4.512-.039,7.9-2.511,10.272-6.026a30.386,30.386,0,0,0,4.713-16.185,13.4,13.4,0,0,0-1.974-7.571A7.914,7.914,0,0,0,259.9,22.4a7.631,7.631,0,0,0-3.464-.85,10.023,10.023,0,0,0-5.519,1.777l-1.088.7.4-1.236c.363-1.159.645-2.318.927-3.515.242-1.2.483-2.511.806-4.056l.765-4.094h0a1.749,1.749,0,0,0-.161-1.159,2.918,2.918,0,0,0-1.611-.927,8.512,8.512,0,0,0-2.659-.27,8.367,8.367,0,0,0-4.189,1.043l-2.86,12.9-.161.7-.564-.425a8.092,8.092,0,0,0-6.485-1.12,13.6,13.6,0,0,0-6.969,3.94Zm4.149,20.434Zm3.545-15.567a3.606,3.606,0,0,1,1.853-.734,2.577,2.577,0,0,1,1.934.541,4.108,4.108,0,0,1,.846.811l.121.155-.04.193-1.007,5.1c-.806,4.21-2.5,7.185-4.109,8.652a4.448,4.448,0,0,1-1.571,1.043,1.827,1.827,0,0,1-1.571-.193,2.262,2.262,0,0,1-.846-1.545,16.95,16.95,0,0,1,.524-6.489,17.612,17.612,0,0,1,2.538-6.18A6.244,6.244,0,0,1,234.76,30.665Zm12.407,8.73a16.738,16.738,0,0,1,3.706-7.88,7.941,7.941,0,0,1,1.49-1.236,2.283,2.283,0,0,1,1.49-.348h0a1.161,1.161,0,0,1,.564.309h.04a2.29,2.29,0,0,1,.6,1.159,6.924,6.924,0,0,1,.2,1.738,20.728,20.728,0,0,1-2.5,10.429A7.574,7.574,0,0,1,250.551,46a3.146,3.146,0,0,1-2.578.464,3.486,3.486,0,0,1-1.772-1.313l-.121-.155.04-.193,1.047-5.408ZM195.123,53.647Zm12.608-11.858Zm-.564.773Zm-12.81-18.425-3.424,17.034-.2,1.159-.161,1.159-.121,1.082-.04,1.12c0,.27.04.579.04.85a6.629,6.629,0,0,0,.081.888,5.788,5.788,0,0,0,.161.811,4.374,4.374,0,0,0,.2.773v.039a5.215,5.215,0,0,0,.242.734h0c.121.27.242.5.362.734a6.187,6.187,0,0,0,.4.7h0c.161.193.322.425.483.618a3.658,3.658,0,0,0,.564.541,7.3,7.3,0,0,0,.645.5h0c.242.154.483.27.725.425.242.116.524.232.806.348a7.457,7.457,0,0,0,.846.309h.04a6.491,6.491,0,0,0,.927.193c.362.039.685.077,1.047.116h0a10.62,10.62,0,0,0,1.128.039,6.806,6.806,0,0,0,.886-.039c.322-.039.645-.077.926-.116a6.491,6.491,0,0,0,.926-.193c.282-.077.6-.155.886-.232h0a7.459,7.459,0,0,1,.846-.309h0c.242-.116.524-.232.806-.386.282-.116.564-.27.806-.386.282-.155.524-.309.765-.464l1.41-1,.04-.039,1.007-.773-.242,1.2V51.6l-.04.039c0,.077-.04.155-.04.232V52.1a.723.723,0,0,0,.04.309h0a.541.541,0,0,0,.081.27.617.617,0,0,0,.161.27l.242.232c.04.039.121.077.2.154l.242.116.564.155.6.116.765.077h.927l.886-.039.806-.039.645-.116.6-.155.524-.232c.04-.039.121-.077.2-.155s.161-.116.2-.193l.282-.425.161-.5,5.559-27.5a.724.724,0,0,0,.04-.27h0V23.9h0v-.039c0-.077-.04-.155-.04-.232-.04-.077-.081-.193-.121-.27h0a1.035,1.035,0,0,0-.2-.232h0a.671.671,0,0,0-.242-.232.847.847,0,0,0-.242-.155.6.6,0,0,0-.282-.077l-.6-.193-.725-.077-.886-.077-1.088-.039-1.047.039-.927.077-.765.077-.6.155-.6.232-.242.116c-.081.077-.161.116-.242.193h0l-.04.039c-.04.077-.121.116-.161.193h0c-.04.077-.121.155-.121.232h-.04c-.04.077-.04.155-.081.232h0c-.04.077-.04.193-.081.27h0l-2.336,11.858h0a7.121,7.121,0,0,1-.282,1.082h0a6.481,6.481,0,0,1-.322,1.043c-.121.309-.242.657-.363,1h0a9.689,9.689,0,0,1-.443.927c-.161.309-.322.618-.483.888h0c-.161.309-.322.579-.483.85-.2.27-.4.541-.564.773-.2.27-.4.5-.564.734h0c-.2.193-.4.425-.6.618l-.6.579-.6.464a5.681,5.681,0,0,1-.645.386,5.988,5.988,0,0,1-1.128.541,4.078,4.078,0,0,1-1.128.193h-.04l-.4-.039h-.04l-.04-.039-.242-.039-.081-.039-.04-.039-.2-.077-.04-.039-.04-.039-.121-.155-.04-.039V45.5l-.04-.039h0l-.121-.232-.04-.039v-.039l-.121-.348v-.039h0l-.081-.5h-.04V42.948l.04-.657h0l.121-.657V41.6l.121-.618h0v-.039l3.3-16.494a.725.725,0,0,0,.04-.27v-.309a.534.534,0,0,0-.081-.232,1.848,1.848,0,0,0-.121-.27h0a.694.694,0,0,0-.2-.27.408.408,0,0,0-.242-.193.847.847,0,0,0-.242-.155,2.008,2.008,0,0,0-.282-.116l-.564-.155-.725-.077-.926-.077-1.047-.039-1.047.039-.926.077-.765.077-.645.155-.564.232a1.889,1.889,0,0,0-.483.348h0a.853.853,0,0,0-.161.193c-.04.077-.121.116-.161.193l-.2.541ZM162.9,52.527Zm2.578-27.039a13.889,13.889,0,0,0-1.611,1.815,14.5,14.5,0,0,0-1.37,2.086l-.6,1.043c-.161.425-.363.773-.524,1.12h0c-.161.386-.322.773-.443,1.159-.161.348-.282.734-.443,1.159l-.363,1.159c-.121.386-.2.773-.282,1.159a8.262,8.262,0,0,0-.282,1.159c-.081.386-.161.811-.2,1.159l-.282,2.24-.121,2.086c0,.348.04.7.04,1.043.04.348.04.7.081,1.043s.081.657.121,1c.081.309.121.657.2.966s.161.657.242.966h0a8.81,8.81,0,0,0,.363.927,6.036,6.036,0,0,0,.4.888h0c.161.27.322.579.483.811.2.27.4.541.6.773s.443.464.645.657h0c.242.232.524.425.765.618a9.725,9.725,0,0,0,.846.5,6.682,6.682,0,0,0,.927.425h0c.363.116.685.193,1.088.309.363.039.725.116,1.128.155a11.814,11.814,0,0,0,1.208.039,7.435,7.435,0,0,0,.926-.039h0a3.805,3.805,0,0,0,.926-.116,7.9,7.9,0,0,0,.927-.193,7.751,7.751,0,0,0,.886-.27c.242-.077.524-.193.846-.309.282-.116.564-.232.806-.348h0c.242-.155.524-.27.765-.425a3.8,3.8,0,0,0,.725-.464l1.088-.734.886-.657-.161,1.082v.193h0v.193h0a.472.472,0,0,0,.04.232h0a.319.319,0,0,0,.081.232v.077c.04.077.121.193.161.27l.242.232h0a.89.89,0,0,1,.2.116h.04a.666.666,0,0,0,.242.116l.524.154.645.116,1.571.039,1.692-.039c.2-.039.443-.077.645-.116a1.943,1.943,0,0,0,.564-.154,1.075,1.075,0,0,0,.524-.232,1.673,1.673,0,0,0,.443-.27,3.215,3.215,0,0,0,.322-.464h0a1.894,1.894,0,0,0,.2-.5l5.357-27.309a.724.724,0,0,0,.04-.27v-.309c-.04-.077-.04-.155-.081-.232a.694.694,0,0,0-.081-.27c-.04-.077-.121-.155-.161-.232h0a1.06,1.06,0,0,0-.242-.193l-.483-.27-.483-.155-.6-.116-.765-.077H186.5l-1.692.077c-.242.039-.483.039-.685.077a1.757,1.757,0,0,0-.483.155h-.081c-.161.077-.362.155-.524.232a2.808,2.808,0,0,0-.4.309,1.72,1.72,0,0,0-.322.425,2.174,2.174,0,0,0-.2.541h0V24.1l-.161.85-.6-.657-.04-.039c-.322-.27-.6-.5-.926-.734a7.413,7.413,0,0,0-1.047-.618,9.368,9.368,0,0,0-1.088-.541c-.362-.116-.765-.232-1.128-.348a12.007,12.007,0,0,0-1.249-.193c-.4-.039-.846-.077-1.289-.077-.483,0-.967.039-1.41.077a7.426,7.426,0,0,0-1.289.193h0a11.3,11.3,0,0,0-2.457.773c-.363.155-.725.348-1.088.541s-.685.425-1.007.618c-.322.232-.645.464-.967.734s-.6.541-.886.811ZM168.9,46.695Zm6.123-18.077a6.453,6.453,0,0,1,1.732.232,5.769,5.769,0,0,1,1.49.7,8.176,8.176,0,0,1,1.329,1.082,12.1,12.1,0,0,1,1.128,1.545l.121.116-.04.193-.806,4.133c-.161.7-.363,1.391-.564,2.086a14.679,14.679,0,0,1-.846,1.97c-.322.618-.644,1.2-1.007,1.777a15.9,15.9,0,0,1-1.168,1.545h0a13.519,13.519,0,0,1-1.329,1.275,8.5,8.5,0,0,1-1.41,1,5.637,5.637,0,0,1-1.49.657,4.74,4.74,0,0,1-1.45.232,4.223,4.223,0,0,1-1.007-.116,2.968,2.968,0,0,1-.806-.348,4.037,4.037,0,0,1-.645-.5,2.54,2.54,0,0,1-.483-.657h-.04a6.288,6.288,0,0,1-.322-.773,5.288,5.288,0,0,1-.2-.85,7.12,7.12,0,0,1-.121-.85,7.75,7.75,0,0,1-.04-.966c0-.425.04-.85.04-1.313h0c.04-.464.081-.966.161-1.468h0c.081-.5.161-.966.282-1.468a10.224,10.224,0,0,1,.363-1.506h0c.121-.5.282-.966.443-1.468l.6-1.391a13.666,13.666,0,0,1,.685-1.313,11.488,11.488,0,0,1,.806-1.12,5.825,5.825,0,0,1,.967-1,6.326,6.326,0,0,1,1.047-.734,4.023,4.023,0,0,1,1.208-.5,5.32,5.32,0,0,1,1.37-.193Zm-32.467,4.79ZM134.7,29.931c-.242.464-.524.927-.725,1.391-.242.464-.443.966-.645,1.468-.2.464-.363,1-.564,1.545q-.242.753-.483,1.622c-.161.541-.282,1.12-.443,1.7h0l-.6,2.511v.039l-.564,1.854V42.1h0l-.524,1.313v.039c-.121.193-.2.348-.282.5a1.588,1.588,0,0,1-.282.425v.039h-.04l-.4.425-.04.077-.081.039-.322.155-.04.039h-.121l-.685.116V45.3h-.04l-.886.039h-.04a1.161,1.161,0,0,0-.363.039l-.363.116h0a1.225,1.225,0,0,0-.282.193c-.081.077-.2.155-.282.232l-.242.348c-.161.232-.282.464-.443.734v.039l-.04.039-.242.657-.242.734h0l-.121.657-.121.7h0l-.04.27-.121.85v.039l-.04.348v.039h0v.348h0a1.391,1.391,0,0,0,.04.425h0a1.324,1.324,0,0,0,.081.386h0c.04.155.081.27.121.386l.242.348h0a1.074,1.074,0,0,0,.322.27,1.52,1.52,0,0,0,.443.193,1.485,1.485,0,0,0,.4.077,2.217,2.217,0,0,0,.524.039l1.732-.039,1.692-.116c.242-.039.524-.077.765-.116s.524-.077.765-.116a6.954,6.954,0,0,1,.725-.193,3.57,3.57,0,0,0,.685-.27c.242-.077.483-.193.725-.27a5.684,5.684,0,0,0,.645-.386c.2-.116.4-.27.644-.425a3.428,3.428,0,0,0,.564-.5h0a7.617,7.617,0,0,0,.6-.541c.161-.193.363-.425.524-.657a7.855,7.855,0,0,0,.524-.7,7.5,7.5,0,0,0,.483-.811h0a8.328,8.328,0,0,0,.483-.85c.161-.309.282-.618.443-.966a7.543,7.543,0,0,0,.4-1c.161-.386.282-.773.443-1.159h0l.765-2.549L140.5,39.2v-.039l.564-2.24h0c.121-.348.2-.657.322-1l.363-.927a7.583,7.583,0,0,1,.4-.811,4.735,4.735,0,0,1,.4-.773c.161-.232.282-.425.443-.618l.483-.579h0a5.639,5.639,0,0,1,.524-.464,5.388,5.388,0,0,1,.564-.425h0a2.068,2.068,0,0,1,.644-.348,4.9,4.9,0,0,1,.645-.309,10.223,10.223,0,0,1,1.168-.309h0a7.8,7.8,0,0,1,1.329-.155l.6-.039-.121.541-4.069,20.588h0a.633.633,0,0,0-.04.27v.27h0v.039c0,.077.04.155.04.232h0l.121.232v.077a.85.85,0,0,0,.161.193h0l.242.232a.847.847,0,0,0,.242.155c.081.039.2.077.282.116h.04l.6.193.645.077.886.077,1.047.039,1.047-.039.926-.077.685-.077.685-.155.6-.27a.847.847,0,0,0,.242-.155c.081-.039.121-.116.2-.193l.322-.425.161-.541L159.071,25.8l.121-.7h0v-.579c-.04-.232-.081-.425-.121-.618-.081-.193-.161-.348-.242-.5h0a4.145,4.145,0,0,0-.363-.425,2.3,2.3,0,0,0-.524-.309c-.161-.077-.363-.116-.564-.193a2.851,2.851,0,0,0-.6-.077h0l-1.208-.077-1.249-.077-1.45-.039h-1.45c-.806,0-1.571.039-2.3.077s-1.45.116-2.135.193a14.875,14.875,0,0,0-1.974.348,13.186,13.186,0,0,0-1.772.464h0c-.564.193-1.088.386-1.611.618h0a10.373,10.373,0,0,0-1.49.7h0a15.3,15.3,0,0,0-1.329.85,9.924,9.924,0,0,0-1.208.966,9.33,9.33,0,0,0-1.088,1.082,12.277,12.277,0,0,0-.967,1.159l-.846,1.275ZM107.107,47.2Zm1.813-16.378ZM119.151,31.9a9.283,9.283,0,0,1,.2,1.12c.04.425.081.85.081,1.275,0,.5-.04.966-.081,1.468,0,.464-.081.966-.121,1.506h0c-.081.5-.2,1-.282,1.545-.121.5-.282,1-.4,1.506-.161.5-.322,1-.524,1.506h0c-.2.5-.443.966-.645,1.429h0a14.512,14.512,0,0,1-.806,1.313,12.671,12.671,0,0,1-.926,1.12,8.4,8.4,0,0,1-1.047,1h0a10.094,10.094,0,0,1-1.208.734h0a6.109,6.109,0,0,1-1.41.5,6.633,6.633,0,0,1-1.531.155c-.443,0-.886-.039-1.289-.077a7.783,7.783,0,0,1-1.128-.309h0a5.122,5.122,0,0,1-.927-.5,6.41,6.41,0,0,1-.765-.7h0a3.393,3.393,0,0,1-.564-.888,4.292,4.292,0,0,1-.363-1,4.99,4.99,0,0,1-.2-1.159,12.049,12.049,0,0,1-.081-1.275,25.046,25.046,0,0,1,.2-2.936c.081-.541.161-1.043.282-1.545.121-.541.242-1.043.4-1.545h0c.161-.5.322-1,.524-1.468.2-.5.443-.966.644-1.429a14.52,14.52,0,0,1,.806-1.313,8.141,8.141,0,0,1,.926-1.12,6.03,6.03,0,0,1,1.047-.966,10.54,10.54,0,0,1,1.208-.773h0a6.008,6.008,0,0,1,1.41-.464,6.633,6.633,0,0,1,1.531-.193,6.944,6.944,0,0,1,1.289.116,4.771,4.771,0,0,1,1.128.309h0a5.122,5.122,0,0,1,.926.5,4.244,4.244,0,0,1,.765.7,6.326,6.326,0,0,1,.564.85A4.291,4.291,0,0,1,119.151,31.9ZM101.065,52.218ZM103.6,26.145Zm-1.692,1.815Zm-1.45,2.047Zm-2.095,4.481c-.121.386-.242.811-.363,1.2s-.2.811-.282,1.2-.161.811-.242,1.159v.039c-.081.386-.121.811-.2,1.2-.04.348-.081.773-.121,1.159-.04.425-.04.85-.081,1.2,0,.386-.04.773-.04,1.12,0,.464.04.927.081,1.352,0,.425.081.85.121,1.275.081.425.161.85.242,1.236a9.2,9.2,0,0,0,.363,1.12,5.122,5.122,0,0,0,.443,1.082,7.482,7.482,0,0,0,.524.966,7.277,7.277,0,0,0,.644.888,7.82,7.82,0,0,0,.765.811c.282.27.564.5.846.734.322.232.644.425.967.618a8.044,8.044,0,0,0,1.007.5c.363.155.765.309,1.128.464a11.7,11.7,0,0,0,1.249.309h0a6.888,6.888,0,0,0,1.289.232c.483.077.967.116,1.45.154s.967.039,1.49.039,1.047,0,1.571-.039,1.007-.077,1.49-.154c.443-.077.927-.193,1.41-.309.443-.116.886-.232,1.329-.386.4-.155.846-.309,1.249-.5a8.2,8.2,0,0,0,1.168-.579h0a10.594,10.594,0,0,0,1.128-.657c.322-.232.685-.464,1.007-.734a10.246,10.246,0,0,0,.967-.811h0a9.416,9.416,0,0,0,.886-.888c.282-.27.564-.618.846-.927a9.262,9.262,0,0,0,.725-1h0a10.973,10.973,0,0,0,.685-1c.04-.039.04-.077.081-.116l.2-.386.04-.039v-.039l.081-.077a3.691,3.691,0,0,0,.2-.425c.2-.386.4-.734.564-1.12s.322-.734.483-1.12c.161-.425.322-.811.443-1.2l.363-1.159c.081-.425.2-.811.282-1.2h0c.081-.425.161-.811.242-1.2h0c.081-.425.121-.811.161-1.2a10.8,10.8,0,0,0,.161-1.2c.04-.425.04-.811.081-1.159V33.755c0-.464,0-.888-.04-1.313-.04-.464-.081-.888-.121-1.313-.081-.425-.161-.811-.242-1.236-.121-.386-.242-.734-.363-1.12-.121-.348-.282-.7-.443-1.043a7.991,7.991,0,0,0-.524-1h0c-.2-.27-.4-.579-.645-.888h0c-.242-.27-.524-.541-.765-.811h0l-.846-.7h0c-.322-.232-.6-.425-.967-.657-.322-.155-.645-.348-1.007-.5s-.765-.309-1.128-.425c-.4-.116-.806-.232-1.249-.348-.4-.077-.846-.155-1.289-.232-.483-.077-.967-.116-1.45-.155-.483,0-.967-.039-1.49-.039s-1.047.039-1.531.077c-.524.039-1.047.077-1.49.155-.483.077-.967.155-1.41.27-.483.116-.927.27-1.37.386-.4.155-.806.348-1.208.5l-1.208.579c-.363.193-.725.425-1.088.657s-.725.5-1.047.734c-.322.27-.685.541-.967.811a6.333,6.333,0,0,0-.886.888h0a6.215,6.215,0,0,0-.806.927c-.282.309-.524.657-.806,1-.2.348-.443.7-.644,1.043a9.925,9.925,0,0,0-.6,1.082c-.2.386-.4.734-.564,1.12-.161.348-.322.734-.483,1.12s-.282.773-.443,1.159ZM62.555,63.652Zm.242.232Zm.242.155ZM78.023,22.9Zm-7.17-.5Zm-.926,1.275L62.233,62.3c0,.077-.04.155-.04.27v.27a2.387,2.387,0,0,1,.081.27h0a.951.951,0,0,0,.081.27h.04a.617.617,0,0,0,.161.27l.242.232c.081.039.161.116.242.155l.242.116.644.193.685.116.846.077,1.088.039,1.088-.039.926-.077.765-.116.644-.193.524-.232c.081-.039.161-.116.242-.155.081-.077.161-.116.2-.193l.04-.039.322-.425a.534.534,0,0,0,.081-.232h0a.952.952,0,0,0,.081-.27l2.054-10.275.121-.7.6.425.6.425.926.541,1.047.425,1.088.309,1.208.193,1.249.077c.483,0,.967,0,1.41-.039.443-.077.886-.116,1.329-.193a7.538,7.538,0,0,0,1.249-.348c.4-.116.806-.27,1.208-.425h0c.363-.193.765-.348,1.128-.579.363-.193.685-.386,1.047-.618h0l.967-.7V51.1a5.983,5.983,0,0,0,.926-.811h0c.282-.27.564-.541.846-.85s.524-.618.806-.966h0a8.954,8.954,0,0,0,.685-1,9.988,9.988,0,0,0,.685-1.082c.2-.348.4-.734.564-1.082.2-.386.363-.773.564-1.159.161-.386.322-.773.483-1.12.121-.386.282-.773.4-1.2l.363-1.159c.121-.425.242-.811.322-1.2.081-.348.2-.734.282-1.159a11.377,11.377,0,0,0,.2-1.236L96.11,34.8l.121-2.163a19.144,19.144,0,0,0-.121-2.2,16.143,16.143,0,0,0-.363-2.086,7.38,7.38,0,0,0-.282-1h0a3.217,3.217,0,0,0-.363-.927,6.034,6.034,0,0,0-.4-.888,9.189,9.189,0,0,0-.524-.811h0c-.2-.27-.4-.541-.6-.773a5.391,5.391,0,0,0-.685-.657c-.242-.193-.483-.386-.765-.579h0c-.282-.155-.564-.348-.846-.5a9.376,9.376,0,0,0-1.934-.657,11.5,11.5,0,0,0-2.377-.232,7.117,7.117,0,0,0-.926.039h0l-.967.116c-.282.039-.6.116-.926.193-.282.077-.6.193-.886.27h0c-.282.116-.6.232-.886.348h0c-.242.116-.524.232-.806.386a5.23,5.23,0,0,0-.806.425,4.8,4.8,0,0,0-.765.425l-1.047.773-.926.657.161-1.082a1.613,1.613,0,0,1,.04-.193.472.472,0,0,0-.04-.232V23.4h0c0-.077-.04-.155-.04-.232-.04-.077-.081-.193-.121-.27s-.081-.193-.161-.232c-.081-.077-.121-.155-.2-.232l-.524-.27-.524-.155-.564-.116-.806-.039-.846-.039-1.732.077c-.242.039-.483.077-.685.116-.242.039-.4.077-.564.116h-.04a2.2,2.2,0,0,0-.524.27,1.568,1.568,0,0,0-.4.309,1.721,1.721,0,0,0-.322.425h0a1.264,1.264,0,0,0-.2.541Zm11.36,5.485a6.459,6.459,0,0,1,1.49-.7,7.233,7.233,0,0,1,1.531-.193,3.145,3.145,0,0,1,.886.077,2.448,2.448,0,0,1,.806.27h0a2.649,2.649,0,0,1,.685.464,2.6,2.6,0,0,1,.483.618h.04a7.376,7.376,0,0,1,.363.773c.081.232.161.541.242.85a7.056,7.056,0,0,1,.121.966,8.383,8.383,0,0,1,.04,1.043c0,.425,0,.888-.04,1.391-.04.464-.081.966-.161,1.468-.081.541-.161,1.043-.242,1.545l-.363,1.506c-.161.5-.322,1-.483,1.468-.2.5-.4.966-.6,1.468-.242.464-.483.888-.725,1.313a8.616,8.616,0,0,1-.806,1.159h-.04a7.6,7.6,0,0,1-.926,1c-.363.27-.725.541-1.088.773h0a4.951,4.951,0,0,1-1.249.5h0a5.267,5.267,0,0,1-1.329.193,6.241,6.241,0,0,1-1.732-.232,5.69,5.69,0,0,1-1.571-.7,8.906,8.906,0,0,1-1.329-1.159,9.988,9.988,0,0,1-1.168-1.545l-.081-.155.04-.155.806-4.21a16.5,16.5,0,0,1,.564-2.124,17.752,17.752,0,0,1,.846-2.009h0c.322-.618.685-1.236,1.047-1.815a11.569,11.569,0,0,1,1.208-1.545h0a8.4,8.4,0,0,1,1.329-1.313,8.5,8.5,0,0,1,1.41-1ZM64.65,30.317a31.716,31.716,0,0,0,.685-3.283v-.039c.161-1.043.282-2.086.4-3.09h0q.121-1.506.121-2.781a25.5,25.5,0,0,0-.242-3.554h0a22.25,22.25,0,0,0-.765-3.322,14.511,14.511,0,0,0-3.182-5.562,12.1,12.1,0,0,0-2.538-2.124h0A17.294,17.294,0,0,0,55.949,4.9a19.08,19.08,0,0,0-3.907-1.043,30.076,30.076,0,0,0-4.753-.348,27.922,27.922,0,0,0-4.471.348h0c-.765.116-1.45.232-2.095.386h0c-.645.155-1.249.348-1.853.541h0a16.917,16.917,0,0,0-1.692.618,13.762,13.762,0,0,0-1.531.7h0q-.665.348-1.208.7h0a5.717,5.717,0,0,0-.886.734h-.04a5.651,5.651,0,0,0-.363.5c-.121.193-.242.425-.363.657L32.1,10.733h0c-.081.309-.161.618-.242.966-.04.348-.121.657-.161.966L31.578,14.4a3.327,3.327,0,0,0,.081.7.561.561,0,0,0,.121.386.085.085,0,0,0,.081.077h0a1.811,1.811,0,0,0,.2.039,1.1,1.1,0,0,0,.4-.116h0q.363-.174.846-.464h0c.322-.232.725-.464,1.168-.734.443-.232.926-.5,1.45-.773h0a17.613,17.613,0,0,1,1.732-.773c.645-.27,1.289-.5,2.014-.734a13.8,13.8,0,0,1,2.417-.541,20.259,20.259,0,0,1,2.739-.193,14.61,14.61,0,0,1,4.31.618,7.8,7.8,0,0,1,5.035,5.06,13.843,13.843,0,0,1,.6,4.288v.811l-.081.85-.04.657H34.317a.152.152,0,0,0-.121.039c-.04,0-.121.077-.2.155a1.72,1.72,0,0,0-.322.425h0l-.242.464-.524,1.429-.322,1.468-.2,1.313-.081.734a1.529,1.529,0,0,0,.04.464h0a.951.951,0,0,1,.081.27c.04.039.081.077.121.077H53.29l-.242.85a22.861,22.861,0,0,1-.926,2.781h0A20.494,20.494,0,0,1,50.914,36.5h0a16.966,16.966,0,0,1-1.49,2.124,14.48,14.48,0,0,1-1.732,1.738,13.8,13.8,0,0,1-1.974,1.391,15.941,15.941,0,0,1-2.215.966,21.942,21.942,0,0,1-2.417.579,17.764,17.764,0,0,1-2.538.193,22.932,22.932,0,0,1-2.941-.193,13.62,13.62,0,0,1-2.457-.5c-.685-.232-1.289-.464-1.893-.734h0a14.553,14.553,0,0,1-1.571-.773h0c-.4-.27-.806-.541-1.128-.773-.4-.27-.725-.5-1.007-.734v-.039a3.781,3.781,0,0,0-.564-.386h0a1.059,1.059,0,0,0-.282-.077.152.152,0,0,0-.121.039c-.081,0-.121.077-.2.154v.039a1.72,1.72,0,0,0-.322.425h0c-.121.193-.2.386-.322.618-.081.232-.161.464-.242.734h0c-.081.232-.161.5-.242.773l-.322,1.7-.2,1.391-.04.888v.579c.04.193.081.348.121.5a1.131,1.131,0,0,0,.161.386h0c.04.077.161.193.242.309l.04.039a6.31,6.31,0,0,0,.765.579,8.19,8.19,0,0,0,1.168.657,9.367,9.367,0,0,0,1.41.657c.483.155.967.348,1.531.5h0q.846.232,1.813.464h0c.6.116,1.289.232,1.974.348h0c.685.077,1.37.155,2.095.193h0a21.232,21.232,0,0,0,2.216.077,37.139,37.139,0,0,0,5.237-.348,29.338,29.338,0,0,0,4.512-1.12,27.444,27.444,0,0,0,3.907-1.777,25.026,25.026,0,0,0,3.384-2.2h0a25.046,25.046,0,0,0,2.779-2.627,27.362,27.362,0,0,0,2.3-3.013A32.191,32.191,0,0,0,62.152,37a34.389,34.389,0,0,0,1.41-3.322h0a32.12,32.12,0,0,0,1.088-3.361Z" transform="translate(-24.69 -3.51)"/><path d="M40.9,25.145a2.941,2.941,0,0,1-1.974-.657A2.2,2.2,0,0,1,38.2,22.75a4.735,4.735,0,0,1,.081-.657c.121-.541.2-.888.242-1.082a3.978,3.978,0,0,1,1.329-2.24,3.742,3.742,0,0,1,2.457-.811,3.442,3.442,0,0,1,1.531.309,1.812,1.812,0,0,1,1.128,1.738V20.2a.534.534,0,0,1-.081.232.589.589,0,0,1-.242.077H44a.349.349,0,0,1-.242-.077.437.437,0,0,1-.081-.27c0-.773-.443-1.159-1.41-1.159a2.455,2.455,0,0,0-1.571.5,2.978,2.978,0,0,0-.926,1.584l-.2.927a5.544,5.544,0,0,0-.081.657c0,.966.483,1.429,1.49,1.429a2.155,2.155,0,0,0,2.095-1.2c.081-.077.121-.155.2-.193a.315.315,0,0,1,.2-.077h.645a.241.241,0,0,1,.2.077c.04.077.081.155.04.232a3.165,3.165,0,0,1-.564,1,3.31,3.31,0,0,1-1.168.85A3.933,3.933,0,0,1,40.9,25.145Zm7.694,0a2.59,2.59,0,0,1-1.893-.657,2.407,2.407,0,0,1-.645-1.815,4.031,4.031,0,0,1,.04-.7c.04-.27.121-.541.2-.888a4.543,4.543,0,0,1,1.45-2.279,3.608,3.608,0,0,1,2.417-.85,2.693,2.693,0,0,1,1.934.657,2.316,2.316,0,0,1,.645,1.777,4.533,4.533,0,0,1-.121,1l-.081.27a.211.211,0,0,1-.121.193.354.354,0,0,1-.242.116H47.384l-.04.116a2.176,2.176,0,0,0,.322,1.622,1.434,1.434,0,0,0,1.128.464,2.54,2.54,0,0,0,1.128-.27,2.1,2.1,0,0,0,.725-.5.891.891,0,0,1,.2-.193.531.531,0,0,1,.242-.039h.645a.315.315,0,0,1,.2.077.28.28,0,0,1,.04.193,1.888,1.888,0,0,1-.564.7,4.584,4.584,0,0,1-2.82,1Zm2.82-4.094.04-.039a3.2,3.2,0,0,0,.04-.579,1.545,1.545,0,0,0-.4-1.12,1.47,1.47,0,0,0-1.128-.386,2.213,2.213,0,0,0-1.531.579,2.6,2.6,0,0,0-.846,1.506v.039h3.827ZM55.6,24.99c-.121,0-.161,0-.242-.077-.04-.039-.04-.116-.04-.232l1.249-5.562H54.152a.315.315,0,0,1-.2-.077.21.21,0,0,1-.04-.232l.081-.425c0-.077.081-.155.121-.193a.35.35,0,0,1,.282-.077h6.042c.121,0,.161,0,.242.077a.28.28,0,0,1,.04.193l-.121.425a.231.231,0,0,1-.121.232.59.59,0,0,1-.242.077H57.817l-1.249,5.562a.231.231,0,0,1-.121.232.3.3,0,0,1-.242.077h-.6Zm5.2,0c-.121,0-.161,0-.242-.077-.04-.039-.04-.116-.04-.232l1.41-6.3c0-.077.081-.155.121-.193a.35.35,0,0,1,.282-.077h.6c.081,0,.161,0,.2.077a.28.28,0,0,1,.04.193l-.4,2.009H64.3a2.724,2.724,0,0,1,1.692.464,1.74,1.74,0,0,1,.564,1.313,1.355,1.355,0,0,1-.081.541,2.663,2.663,0,0,1-1.088,1.738,4.248,4.248,0,0,1-2.3.541H60.8Zm2.578-.966a2.245,2.245,0,0,0,1.329-.309,1.576,1.576,0,0,0,.6-1,1.582,1.582,0,0,0,.081-.425.836.836,0,0,0-.363-.734,1.89,1.89,0,0,0-1.047-.232H62.53l-.6,2.7h1.45Zm10.151,1.12a2.669,2.669,0,0,1-1.772-.541,2.156,2.156,0,0,1-.564-1.545,4.455,4.455,0,0,1,.121-.927l.806-3.747a.389.389,0,0,1,.161-.193c.04-.077.121-.077.242-.077h.645c.081,0,.161,0,.2.077a.28.28,0,0,1,.04.193L72.6,22.093a3.852,3.852,0,0,0-.121.888,1.1,1.1,0,0,0,.282.85,1.651,1.651,0,0,0,1.088.27,2.6,2.6,0,0,0,1.611-.541,2.78,2.78,0,0,0,.886-1.468l.806-3.708a.389.389,0,0,1,.161-.193c.04-.077.121-.077.242-.077H78.2c.081,0,.161,0,.2.077a.28.28,0,0,1,.04.193l-1.41,6.3a.326.326,0,0,1-.121.232.3.3,0,0,1-.242.077h-.6c-.081,0-.161,0-.2-.077-.081-.039-.081-.116-.081-.232l.161-.579a4.288,4.288,0,0,1-1.047.773,2.665,2.665,0,0,1-1.37.27Zm5.962-.155c-.081,0-.161,0-.2-.077-.081-.039-.081-.116-.081-.232l1.41-6.3a.838.838,0,0,1,.121-.193.35.35,0,0,1,.282-.077h.6c.081,0,.161,0,.2.077a.165.165,0,0,1,.04.193L81.3,20.973h3.827l.564-2.588c0-.077.081-.155.121-.193a.35.35,0,0,1,.282-.077h.6c.081,0,.161,0,.2.077a.165.165,0,0,1,.04.193l-1.41,6.3a.231.231,0,0,1-.121.232.3.3,0,0,1-.242.077h-.6c-.121,0-.161,0-.2-.077-.081-.039-.081-.116-.04-.232l.564-2.7H81.06l-.6,2.7a.231.231,0,0,1-.121.232.3.3,0,0,1-.242.077h-.6Zm10.272,0c-.081,0-.161,0-.2-.077a.21.21,0,0,1-.04-.232l1.249-5.562H88.351a.444.444,0,0,1-.242-.077c-.04-.039-.04-.116-.04-.232l.121-.425a.211.211,0,0,1,.121-.193.3.3,0,0,1,.242-.077h6.083c.081,0,.161,0,.2.077a.165.165,0,0,1,.04.193l-.081.425a.355.355,0,0,1-.161.232.444.444,0,0,1-.242.077H91.976l-1.249,5.562a.231.231,0,0,1-.121.232.3.3,0,0,1-.242.077Zm7.573.155a2.669,2.669,0,0,1-1.772-.541A2.156,2.156,0,0,1,95,23.059a4.455,4.455,0,0,1,.121-.927l.806-3.747a.389.389,0,0,1,.161-.193c.04-.077.121-.077.242-.077h.645c.081,0,.161,0,.2.077a.28.28,0,0,1,.04.193l-.806,3.708a3.852,3.852,0,0,0-.121.888,1.1,1.1,0,0,0,.282.85,1.651,1.651,0,0,0,1.088.27,2.6,2.6,0,0,0,1.611-.541,2.78,2.78,0,0,0,.886-1.468l.806-3.708a.389.389,0,0,1,.161-.193c.04-.077.121-.077.242-.077h.645c.081,0,.161,0,.2.077a.28.28,0,0,1,.04.193l-1.41,6.3a.231.231,0,0,1-.121.232.3.3,0,0,1-.242.077h-.6c-.081,0-.161,0-.2-.077-.081-.039-.081-.116-.081-.232l.161-.579a4.287,4.287,0,0,1-1.047.773,2.665,2.665,0,0,1-1.37.27Zm14.22-7.03c.081,0,.121,0,.161.077.04.039.081.077.04.155l-1.41,6.373a.211.211,0,0,1-.121.193c-.04.077-.121.077-.242.077h-.6c-.081,0-.161,0-.2-.077a.165.165,0,0,1-.04-.193l1.007-4.519-2.578,3.322a.565.565,0,0,1-.242.27.373.373,0,0,1-.282.116h-.2a.319.319,0,0,1-.282-.116.9.9,0,0,1-.121-.27l-1.168-3.4-1.007,4.6a.211.211,0,0,1-.121.193.3.3,0,0,1-.242.077h-.6c-.121,0-.161,0-.242-.077a.28.28,0,0,1-.04-.193l1.41-6.373a.537.537,0,0,1,.121-.155.3.3,0,0,1,.242-.077h.645a.257.257,0,0,1,.282.193L107.2,22.6l3.223-4.288a.432.432,0,0,1,.363-.193h.765Zm12.89,0c.081,0,.121,0,.161.077.04.039.081.077.04.155l-1.41,6.373a.211.211,0,0,1-.121.193c-.04.077-.121.077-.242.077h-.6c-.081,0-.161,0-.2-.077a.165.165,0,0,1-.04-.193l1.007-4.519L120.5,23.522a.884.884,0,0,1-.282.27.373.373,0,0,1-.282.116h-.2a.373.373,0,0,1-.282-.116.9.9,0,0,1-.121-.27l-1.168-3.4-1.007,4.6a.211.211,0,0,1-.121.193.3.3,0,0,1-.242.077h-.6c-.121,0-.161,0-.242-.077a.28.28,0,0,1-.04-.193l1.45-6.373a.2.2,0,0,1,.081-.155.3.3,0,0,1,.242-.077h.644a.257.257,0,0,1,.282.193l1.49,4.288,3.223-4.288a.432.432,0,0,1,.363-.193h.765Zm3.384,7.03a2.392,2.392,0,0,1-1.813-.657,2.782,2.782,0,0,1-.564-1.777,7.077,7.077,0,0,1,.081-.773,3.277,3.277,0,0,1,.161-.773,5.022,5.022,0,0,1,1.249-2.318,3.1,3.1,0,0,1,2.336-.888,2.534,2.534,0,0,1,1.289.27,1.76,1.76,0,0,1,.725.7l.121-.541a.838.838,0,0,1,.121-.193.3.3,0,0,1,.242-.077h.6c.121,0,.161,0,.2.077.081.039.081.116.04.193l-1.37,6.3a.231.231,0,0,1-.121.232.3.3,0,0,1-.242.077h-.6c-.081,0-.161,0-.2-.077C130,24.874,130,24.8,130,24.681l.161-.541a5.109,5.109,0,0,1-1.007.734A2.6,2.6,0,0,1,127.827,25.145Zm.242-1.043a2.236,2.236,0,0,0,1.652-.618,3.308,3.308,0,0,0,.886-1.468,10.39,10.39,0,0,0,.2-1.043,3.9,3.9,0,0,0,.081-.5,1.506,1.506,0,0,0-.363-1.043A1.393,1.393,0,0,0,129.358,19a1.879,1.879,0,0,0-1.49.618,3.467,3.467,0,0,0-.886,1.545,2.931,2.931,0,0,0-.161.773,5.718,5.718,0,0,0-.081.734C126.74,23.638,127.183,24.1,128.069,24.1Zm5.639.888c-.121,0-.2,0-.242-.077-.04-.039-.04-.116-.04-.232l1.41-6.3a.211.211,0,0,1,.121-.193.3.3,0,0,1,.242-.077h4.109c.121,0,.161,0,.242.077a.28.28,0,0,1,.04.193l-.121.425a.231.231,0,0,1-.121.232.589.589,0,0,1-.242.077h-3.182l-1.249,5.562a.231.231,0,0,1-.121.232.3.3,0,0,1-.242.077h-.6Zm8.137.155a2.237,2.237,0,0,1-1.772-.657,2.588,2.588,0,0,1-.6-1.777,7.08,7.08,0,0,1,.081-.773c.04-.232.081-.464.161-.773a5.417,5.417,0,0,1,1.249-2.318,3.1,3.1,0,0,1,2.336-.888,2.438,2.438,0,0,1,1.289.27,1.55,1.55,0,0,1,.725.7l.121-.541a.389.389,0,0,1,.161-.193c.04-.077.121-.077.242-.077h.6c.081,0,.161,0,.2.077.04.039.04.116.04.193l-1.41,6.3a.231.231,0,0,1-.121.232.3.3,0,0,1-.242.077h-.6c-.081,0-.161,0-.2-.077a.21.21,0,0,1-.04-.232l.121-.541a4.156,4.156,0,0,1-1.007.734,2.6,2.6,0,0,1-1.329.27Zm.282-1.043a2.2,2.2,0,0,0,1.611-.618,3.308,3.308,0,0,0,.886-1.468q.181-.7.242-1.043a2.657,2.657,0,0,0,.04-.5,1.506,1.506,0,0,0-.363-1.043A1.309,1.309,0,0,0,143.417,19a1.964,1.964,0,0,0-1.531.618A3.467,3.467,0,0,0,141,21.166a6.573,6.573,0,0,0-.161.773,5.716,5.716,0,0,0-.081.734C140.758,23.638,141.2,24.1,142.128,24.1Zm7.855,1.043a3.405,3.405,0,0,1-1.49-.27,1.628,1.628,0,0,1-.846-.657,1.15,1.15,0,0,1-.282-.773.553.553,0,0,1,.04-.232.289.289,0,0,1,.081-.193.59.59,0,0,1,.242-.077h.6a.238.238,0,0,1,.242.27.893.893,0,0,0,.483.734,2.933,2.933,0,0,0,1.128.193,2.611,2.611,0,0,0,1.41-.348,1.258,1.258,0,0,0,.564-1.12c0-.5-.4-.773-1.168-.773h-.725a.242.242,0,0,1-.2-.077c-.08-.039-.08-.116-.04-.193l.04-.348a.389.389,0,0,1,.161-.193.246.246,0,0,1,.242-.116h.645c.806,0,1.289-.27,1.41-.888,0-.116.04-.232.04-.348,0-.541-.4-.811-1.168-.811a2.284,2.284,0,0,0-1.249.27,1.72,1.72,0,0,0-.765.811.389.389,0,0,1-.161.193c-.04.039-.121.039-.242.039h-.564c-.081,0-.161,0-.2-.077a.225.225,0,0,1-.04-.155,2.446,2.446,0,0,1,1.088-1.468,3.818,3.818,0,0,1,2.216-.579,2.746,2.746,0,0,1,1.772.464,1.348,1.348,0,0,1,.564,1.12.825.825,0,0,1-.04.348,1.713,1.713,0,0,1-.443.888,2.345,2.345,0,0,1-.846.618,1.2,1.2,0,0,1,.685.464,1.385,1.385,0,0,1,.242.811,2.177,2.177,0,0,1-.081.5,2.143,2.143,0,0,1-1.088,1.429,4.5,4.5,0,0,1-2.256.541Zm7.372,0a2.669,2.669,0,0,1-1.772-.541,2.156,2.156,0,0,1-.564-1.545,4.455,4.455,0,0,1,.121-.927l.806-3.747a.389.389,0,0,1,.161-.193c.04-.077.161-.077.242-.077h.645c.081,0,.161,0,.2.077.04.039.04.116.04.193l-.806,3.708a3.853,3.853,0,0,0-.121.888.985.985,0,0,0,.322.85,1.529,1.529,0,0,0,1.047.27,2.6,2.6,0,0,0,1.611-.541,2.78,2.78,0,0,0,.886-1.468l.806-3.708a.389.389,0,0,1,.161-.193c.04-.077.161-.077.242-.077h.645c.081,0,.161,0,.2.077a.28.28,0,0,1,.04.193l-1.41,6.3a.231.231,0,0,1-.121.232.3.3,0,0,1-.242.077h-.6c-.081,0-.161,0-.2-.077-.081-.039-.081-.116-.04-.232l.121-.579a4.286,4.286,0,0,1-1.047.773,2.665,2.665,0,0,1-1.37.27Zm5.962-.155c-.081,0-.161,0-.2-.077-.081-.039-.081-.116-.081-.232l1.45-6.3a.211.211,0,0,1,.121-.193c.04-.077.161-.077.242-.077h.6c.081,0,.161,0,.2.077a.165.165,0,0,1,.04.193l-.564,2.588h3.827l.564-2.588a.839.839,0,0,1,.121-.193.35.35,0,0,1,.282-.077h.6c.081,0,.161,0,.2.077a.165.165,0,0,1,.04.193l-1.41,6.3a.231.231,0,0,1-.121.232.3.3,0,0,1-.242.077h-.6c-.081,0-.161,0-.2-.077-.081-.039-.081-.116-.04-.232l.564-2.7h-3.827l-.6,2.7a.231.231,0,0,1-.121.232.3.3,0,0,1-.242.077h-.6Zm10.957.155a2.907,2.907,0,0,1-2.014-.657,2.169,2.169,0,0,1-.725-1.7,4.139,4.139,0,0,1,.081-.657,6.591,6.591,0,0,1,.242-1.159,4.146,4.146,0,0,1,1.329-2.2,3.705,3.705,0,0,1,2.5-.811,2.979,2.979,0,0,1,2.014.657,2.307,2.307,0,0,1,.685,1.738,2.992,2.992,0,0,1-.04.618c-.081.425-.2.811-.282,1.159a4.463,4.463,0,0,1-1.329,2.2A3.668,3.668,0,0,1,174.273,25.145Zm.04-1a2.485,2.485,0,0,0,1.571-.541,2.768,2.768,0,0,0,.927-1.545c.04-.155.121-.464.242-1a3.841,3.841,0,0,0,.04-.618,1.578,1.578,0,0,0-.363-1.12,1.625,1.625,0,0,0-1.128-.348,2.485,2.485,0,0,0-1.571.541,3.013,3.013,0,0,0-.927,1.545,7.432,7.432,0,0,0-.2,1,3.243,3.243,0,0,0-.081.618,1.307,1.307,0,0,0,1.49,1.468Zm5.317.85c-.121,0-.161,0-.242-.077-.04-.039-.04-.116-.04-.232l1.41-6.3a.211.211,0,0,1,.121-.193.3.3,0,0,1,.242-.077h2.9a2.929,2.929,0,0,1,1.571.348,1.356,1.356,0,0,1,.524,1.082,1.393,1.393,0,0,1-.04.386,2.24,2.24,0,0,1-.443.927,2.115,2.115,0,0,1-.806.579,1.2,1.2,0,0,1,.644.5,1.236,1.236,0,0,1,.242.734,1.262,1.262,0,0,1-.04.386,2.338,2.338,0,0,1-1.007,1.429,3.889,3.889,0,0,1-2.095.5H179.63Zm3.625-3.94a1.889,1.889,0,0,0,1.088-.309,1.106,1.106,0,0,0,.524-.773,1.315,1.315,0,0,1,.04-.232q0-.7-1.208-.7h-1.853L181.4,21.05Zm-.524,3.013a2.06,2.06,0,0,0,1.249-.348,1.064,1.064,0,0,0,.483-.966c0-.5-.4-.734-1.289-.734H181.2l-.483,2.047Z" transform="translate(16.22 37.855)"/>
    </symbol>
    <symbol id="near-fill" viewBox="0 0 18 18">
      <path d="M0,0H18V18H0Z" fill="none"/><path d="M15,3,3,8.02v.653L7.56,10.44,9.32,15h.653Z"/>
    </symbol>
    <symbol id="near" viewBox="0 0 24 24">
      <path d="M0,0H24V24H0Z" fill="none"/><path d="M17.27,6.73,13.03,16.86l-1.32-3.42-.32-.83-.82-.32L7.14,10.96,17.27,6.73M21,3,3,10.53v.98l6.84,2.65L12.48,21h.98Z"/>
    </symbol>
    <symbol id="odnoklassniki" viewBox="0 0 24 40">
      <path d="M21.392,26.086a17.145,17.145,0,0,1-7.014,2.1L16.007,29.8l5.946,5.959c2.174,2.234-1.364,5.725-3.561,3.569-1.488-1.515-3.67-3.7-5.946-5.983L6.5,39.316C4.3,41.464.764,37.941,2.962,35.747c1.512-1.515,3.67-3.7,5.946-5.959l1.605-1.609a17.066,17.066,0,0,1-7.06-2.1C.912,24.438-.2,23.477.78,21.47c.577-1.14,2.159-2.1,4.255-.445a12.623,12.623,0,0,0,7.4,2.257,12.623,12.623,0,0,0,7.4-2.257c2.1-1.648,3.67-.7,4.255.445.966,2.007-.148,2.968-2.689,4.616ZM2.315,10.13A10.107,10.107,0,1,1,12.422,20.236,10.127,10.127,0,0,1,2.315,10.13Zm5.143,0a4.964,4.964,0,1,0,4.964-5A4.978,4.978,0,0,0,7.458,10.13Z" transform="translate(-.426)"/>
    </symbol>
    <symbol id="outline-big" viewBox="0 0 418.753 167.286">
      <g fill="none"><path d="M216.546,7.209c38.167.054,91.033,8.367,121.541,17.1s52.106,22.33,61.507,35.315,9.185,30.21-5.1,42.6-45.944,25.283-80.628,31.736-86.822,8.525-127.477,6.981S98.274,133.083,69.933,124.7,23.3,103.5,16.342,90.675s-4.3-30.463,11.815-42.946S77.85,22,113,15.778s102.16-4.7,126.079-5.387,17.99.663,17.436,1.243M150.441,7.814c35.9-4.884,88.36-4.12,126.9,1.434S359.092,28.832,381.66,41.138,416.229,69.7,412.744,83.081s-25.4,28.737-51.994,38.322-68.607,16.77-107.563,19.186-90.1.206-126.175-4.69-70.1-13.743-90.293-24.687-34.2-27.337-30.9-40.98S31.78,39.266,56.571,29.357s80.609-15.155,98-18.578,5.922-2.915,6.349-1.961" transform="rotate(-3 411.296 77.646)"/><path d="M211.207,2.636c38.167.054,91.033,8.367,121.541,17.1s52.106,22.329,61.507,35.315,9.185,30.21-5.1,42.6-45.944,25.283-80.628,31.736-86.822,8.525-127.477,6.981S92.935,128.51,64.594,120.131,17.966,98.932,11,86.1s-4.3-30.463,11.815-42.946S72.511,17.428,107.666,11.2s102.16-4.7,126.08-5.387,17.99.663,17.436,1.243M145.1,3.241C181-1.643,233.462-.88,272,4.674s81.755,19.585,104.322,31.891,34.569,28.566,31.084,41.944S382,107.246,355.411,116.83,286.8,133.6,247.848,136.016s-90.1.206-126.175-4.69-70.1-13.743-90.293-24.687S-2.824,79.3.484,65.659,26.441,34.693,51.232,24.784s80.609-15.155,98-18.578,5.922-2.915,6.349-1.961" transform="rotate(-176 206.954 75.98)"/></g>
    </symbol>
    <symbol id="outline-btn" viewBox="0 0 290.051 142.112">
      <g fill="none"><path d="M193.968,8.048c14.831,1.6,29.231,6.506,41.393,11.111s23.453,10.592,31.581,16.518S280.808,48.01,284.13,54.718s4.659,14.233,2.74,21.207-7.312,13.856-14.253,20.639-16.3,14.876-27.393,20.061-24.968,8.085-39.18,11.053-30.481,5.81-46.1,6.752a264.417,264.417,0,0,1-47.6-1.1c-15.113-1.911-30.1-6.374-43.084-10.362S44.106,114.7,34.422,109.4,16.324,98.19,11.165,91.188a41.223,41.223,0,0,1-7.7-23.8c.15-7.4,3.328-14.066,8.6-20.617A77.787,77.787,0,0,1,35.077,28.079C45.061,22.567,58.469,17.5,71.966,13.7a240.863,240.863,0,0,1,44.092-8.463c15.252-1.3,33.2-.149,47.42.667s30.649,3.25,37.91,4.229,6.759.635,5.657,1.642M134.638,3.112c14.853-1.265,32.75,3.426,47.969,5.165s30.509,1.75,43.347,5.27,24.368,10.12,33.678,15.849,17.42,11.258,22.179,18.524a42.359,42.359,0,0,1,6.374,25.073,37.343,37.343,0,0,1-10.324,22c-5.864,6.19-14.514,10.4-24.862,15.139a280.148,280.148,0,0,1-37.228,13.294c-13.5,3.893-28.725,8.112-43.773,10.062s-31,3.047-46.519,1.64S92.8,128.949,78.906,125.042s-26.434-8.074-36.8-13.358A103.1,103.1,0,0,1,16.727,93.339C10.464,87.1,5.9,81.177,4.53,74.253A32.989,32.989,0,0,1,8.489,51.79c4.131-6.937,11.856-13.214,20.827-19.157a146.311,146.311,0,0,1,33-16.5c12.5-4.236,29.88-7.161,42.018-8.918s25.724-1.56,30.81-1.622-.314.2-.293,1.246" transform="translate(-1.224 1.255)"/><path d="M89.469,6.786c12.952-3.871,30.624-4.694,46.2-5.732S167.924-.437,182.912.56s30.115,2.888,42.683,6.478S249.64,16.682,258.32,22.1s15.629,10.965,19.356,17.427,4.311,14.632,3,21.347-4.673,12.76-10.853,18.941S254.3,92.47,243.6,97.959a204.225,204.225,0,0,1-37.988,14.786c-13.883,3.815-29.654,5.989-45.309,8.1s-33.3,4.781-48.618,4.574-30.124-2.76-43.294-5.82a181.088,181.088,0,0,1-35.725-12.539c-9.9-4.708-18.213-9.437-23.657-15.71S.175,76.408.008,69.423s2.975-13.282,8-19.982A78.913,78.913,0,0,1,30.171,29.227C39.916,23.389,55.784,18.4,66.477,14.415S88.825,6.461,94.331,5.288s4.446.978,5.18,2.088m-6.4,0c13.258-4.105,30.9-6.235,46.619-7.086s33.043.3,47.717,1.983,28.115,4.941,40.323,8.133,24.563,5.761,32.924,11.017S274.532,35.6,277.939,41.941s4.77,10.573,3.2,17.546-5.843,17.388-12.632,24.29-16.988,11.988-28.1,17.121a211.563,211.563,0,0,1-38.558,13.676,327.2,327.2,0,0,1-47.758,7.3c-15.481,1.255-30.179.706-45.126.229s-31.127-.234-44.553-3.093-26.574-9.24-36.006-14.059-16-8.7-20.587-14.853A36.061,36.061,0,0,1,.89,68.05c.355-7.345,3.429-15.1,9.061-22.016S24.678,31.816,34.68,26.543s25.438-9.094,35.286-12.148,19.744-5.313,23.8-6.177-.045.231.558.995" transform="rotate(-3 302.31 -12.146)"/></g>
    </symbol>
    <symbol id="outline-line" viewBox="0 0 162.062 16.23">
      <path d="M10.707,10.924c53.806-.855,107.366.765,160-1.73M41.2,23.194c25.305-1.021,49.409-3.676,94.788-.993M41.2,23.194c50.725-10.67,101.466-12.829,129.506-14" transform="translate(-9.691 -8.147)" fill="none"/>
    </symbol>
    <symbol id="outline" viewBox="0 0 232.153 61.863">
      <g fill="none"><path d="M117.156,1.106a513.89,513.89,0,0,1,68.133,6.938c17.159,3.139,29.4,7.69,34.822,11.893s5.52,9.616-2.3,13.328-25.347,7.359-44.645,8.942-48.4,1.565-71.14.558-49.336-3.6-65.279-6.6S10.416,28.9,6.36,24.777s-2.791-9.633,6.05-13.351,27.436-7.451,47-8.956,57.024-.165,70.38-.074,10.061.44,9.758.615M80.226.447c19.995-1.074,49.32-.161,70.924,2.08s45.933,7.207,58.7,11.366,19.683,9.425,17.907,13.586-13.824,8.709-28.56,11.381-38.12,4.391-59.856,4.651S89,42.419,68.78,40.416,29.436,35.2,18.01,31.5-1.454,22.461.22,18.214s14.106-9.4,27.831-12.2S72.9,2.285,82.573,1.432,85.844.592,86.1.9" transform="rotate(-3 290.598 -12.95)"/><path d="M118.675.918a489.259,489.259,0,0,1,67.35,3.367c16.831,2.252,28.621,6.192,33.634,10.145s4.6,9.411-3.558,13.575-25.994,8.78-45.4,11.408-48.461,4.163-71.059,4.359-48.9-1-64.533-3.18S9.512,34.666,5.854,30.721s-1.877-9.573,7.3-13.8S41.241,7.939,60.909,5.376s56.932-3.209,70.255-3.831,10-.093,9.682.1m-58.969.578C101.936.072,131.119-.57,152.471.539s45.167,4.823,57.519,8.339,18.756,8.462,16.591,12.757S211.961,31.162,197,34.645s-38.463,6.466-60.183,7.888a698.647,698.647,0,0,1-70.138.642c-20-.942-38.777-3.17-49.833-6.295S-1.727,28.8.344,24.425s14.967-10.243,28.931-13.8S74.39,4.47,84.126,3.093s3.345-1.023,3.566-.728" transform="rotate(-176 114.952 26.355)"/></g>
    </symbol>
    <symbol id="pause" viewBox="0 0 32 32">
      <g fill="none" stroke="#e9164d" stroke-width="2"><circle cx="16" cy="16" r="16" stroke="none"/><circle cx="16" cy="16" r="15"/></g><g transform="translate(-774 -5136)" fill="#e9164d"><rect width="3" height="9" rx=".5" transform="translate(786 5147)"/><rect width="3" height="9" rx=".5" transform="translate(791 5147)"/></g>
    </symbol>
    <symbol id="pdf" viewBox="0 0 48 48">
      <path d="M0,0H48V48H0Z" fill="none"/><path d="M38,2H14a4.012,4.012,0,0,0-4,4V30a4.012,4.012,0,0,0,4,4H38a4.012,4.012,0,0,0,4-4V6A4.012,4.012,0,0,0,38,2Zm0,28H14V6H38ZM6,10H2V38a4.012,4.012,0,0,0,4,4H34V38H6ZM30,22V16a2.006,2.006,0,0,0-2-2H24V24h4A2.006,2.006,0,0,0,30,22Zm-4-6h2v6H26Zm8,4h2V18H34V16h2V14H32V24h2ZM18,20h2a2.006,2.006,0,0,0,2-2V16a2.006,2.006,0,0,0-2-2H16V24h2Zm0-4h2v2H18Z" transform="translate(2 2)"/>
    </symbol>
    <symbol id="percent" viewBox="0 0 18 18">
      <path fill="none" d="M0 0H18V18H0z"/><path d="M6.625,4A2.625,2.625,0,1,0,9.25,6.625,2.628,2.628,0,0,0,6.625,4Zm0,3.75A1.125,1.125,0,1,1,7.75,6.625,1.123,1.123,0,0,1,6.625,7.75Zm6.75,3A2.625,2.625,0,1,0,16,13.375,2.628,2.628,0,0,0,13.375,10.75Zm0,3.75A1.125,1.125,0,1,1,14.5,13.375,1.123,1.123,0,0,1,13.375,14.5ZM5.057,16,4,14.942,14.942,4,16,5.057Z" transform="translate(-1 -1)"/>
    </symbol>
    <symbol id="play-player" viewBox="0 0 32 32">
      <path d="M9,6.945v7.11a.183.183,0,0,0,.274.169l5.636-3.555a.2.2,0,0,0,0-.335L9.274,6.779A.181.181,0,0,0,9,6.945Z" transform="translate(4.998 5.25)"/>
    </symbol>
    <symbol id="play" viewBox="0 0 32 32">
      <g fill="none" stroke="#e9164d" stroke-width="2"><circle cx="16" cy="16" r="16" stroke="none"/><circle cx="16" cy="16" r="15"/></g><path d="M9,6.945v7.11a.183.183,0,0,0,.274.169l5.636-3.555a.2.2,0,0,0,0-.335L9.274,6.779A.181.181,0,0,0,9,6.945Z" transform="translate(4.998 5.25)" fill="#e9164d"/>
    </symbol>
    <symbol id="receiving" viewBox="0 0 16 16">
      <path d="M2974,9206a8,8,0,1,1,8-8A8.011,8.011,0,0,1,2974,9206Zm-3.191-8.142a.143.143,0,0,0-.1.043l-.661.646a.141.141,0,0,0,0,.206l2.079,2.04a.674.674,0,0,0,.437.206.686.686,0,0,0,.43-.2l4.972-4.891a.156.156,0,0,0,0-.208l-.654-.659a.152.152,0,0,0-.1-.044.142.142,0,0,0-.1.044l-4.533,4.474-1.65-1.615A.141.141,0,0,0,2970.81,9197.859Z" transform="translate(-2966 -9190.001)"/>
    </symbol>
    <symbol id="scroll-bottom" viewBox="0 0 19 121">
      <g fill="none"><path d="M0,0C9.078,0,9,9.122,9,9.122S8.9,0,18,0" transform="translate(.5 111.378)"/><path d="M0,120V0" transform="translate(9.5 .5)"/></g>
    </symbol>
    <symbol id="search" viewBox="0 0 24 24">
      <path d="M0,0H24V24H0Z" fill="none"/><path d="M15.864,14.321h-.813l-.288-.278a6.7,6.7,0,1,0-.72.72l.278.288v.813L19.467,21,21,19.467Zm-6.175,0A4.631,4.631,0,1,1,14.321,9.69,4.625,4.625,0,0,1,9.69,14.321Z"/>
    </symbol>
    <symbol id="share" viewBox="0 0 28 28">
      <path d="M0,0H28V28H0Z" fill="none"/><path d="M20.5,18.427a3.4,3.4,0,0,0-2.287.9L9.9,14.483a3.819,3.819,0,0,0,.1-.817,3.819,3.819,0,0,0-.1-.817l8.225-4.8A3.492,3.492,0,1,0,17,5.5a3.819,3.819,0,0,0,.105.817l-8.225,4.8a3.5,3.5,0,1,0,0,5.11l8.307,4.853a3.291,3.291,0,0,0-.093.758A3.407,3.407,0,1,0,20.5,18.427Zm0-14.093A1.167,1.167,0,1,1,19.333,5.5,1.17,1.17,0,0,1,20.5,4.333Zm-14,10.5a1.167,1.167,0,1,1,1.167-1.167A1.17,1.17,0,0,1,6.5,14.833Zm14,8.19a1.167,1.167,0,1,1,1.167-1.167A1.17,1.17,0,0,1,20.5,23.023Z" transform="translate(.5 .333)"/>
    </symbol>
    <symbol id="shopping-cart" viewBox="0 0 24 24">
      <path d="M0,0H24V24H0Z" fill="none"/><path d="M14.963,12.556a1.91,1.91,0,0,0,1.679-.988L20.078,5.34a.956.956,0,0,0-.835-1.42H5.04L4.138,2H1V3.919H2.919L6.374,11.2l-1.3,2.342a1.923,1.923,0,0,0,1.679,2.85H18.274V14.475H6.758l1.056-1.919ZM5.952,5.839h11.66l-2.649,4.8H8.226Zm.806,11.516a1.919,1.919,0,1,0,1.919,1.919A1.917,1.917,0,0,0,6.758,17.354Zm9.6,0a1.919,1.919,0,1,0,1.919,1.919A1.917,1.917,0,0,0,16.354,17.354Z" transform="translate(1.4 .4)"/>
    </symbol>
    <symbol id="sort" viewBox="0 0 16 11">
      <path transform="translate(0 1.719)" d="M0 0H10.667V2.063H0z"/><path d="M17,10.781h2V8.719H17V7H15v5.5h2Z" transform="translate(-3 -7)"/><path transform="translate(5.333 7.219)" d="M0 0H10.667V2.063H0z"/><path d="M8,16.5h2V11H8v1.719H6v2.063H8Z" transform="translate(-6 -5.5)"/>
    </symbol>
    <symbol id="star-empty" viewBox="0 0 48 48">
      <g fill="none"><path d="M0,0H48V48H0Z"/><path d="M0,0H48V48H0Z"/></g><path d="M22,12.26l1.94,4.58.94,2.22,2.4.2,4.94.42-3.76,3.26-1.82,1.58.54,2.36L28.3,31.7l-4.24-2.56L22,27.86,19.94,29.1,15.7,31.66l1.12-4.82.54-2.36L15.54,22.9l-3.76-3.26,4.94-.42,2.4-.2.94-2.22L22,12.26M22,2,16.38,15.26,2,16.48l10.92,9.46L9.64,40,22,32.54,34.36,40,31.08,25.94,42,16.48,27.62,15.26Z" transform="translate(2 1.999)"/>
    </symbol>
    <symbol id="star-moiety" viewBox="0 0 48 48">
      <g fill="none"><path d="M0,0H48V48H0Z"/><path d="M0,0H48V48H0Z"/></g><g transform="translate(3 3)" clip-path="url(#clip-path-moiety)"><path d="M22,32.54,34.36,40,31.08,25.94,42,16.48,27.62,15.26,22,2,16.38,15.26,2,16.48l10.92,9.46L9.64,40Z" transform="translate(-1 -1.001)" fill="#fff"/></g><g transform="translate(24 3)" clip-path="url(#clip-path-moiety)"><path d="M22,12.26l1.94,4.58.94,2.22,2.4.2,4.94.42-3.76,3.26-1.82,1.58.54,2.36L28.3,31.7l-4.24-2.56L22,27.86,19.94,29.1,15.7,31.66l1.12-4.82.54-2.36L15.54,22.9l-3.76-3.26,4.94-.42,2.4-.2.94-2.22L22,12.26M22,2,16.38,15.26,2,16.48l10.92,9.46L9.64,40,22,32.54,34.36,40,31.08,25.94,42,16.48,27.62,15.26Z" transform="translate(-22 -1.001)" fill="#e9164d"/></g>
    </symbol>
    <symbol id="star" viewBox="0 0 24 24">
      <g fill="none"><path d="M0,0H24V24H0Z"/><path d="M0,0H24V24H0Z"/></g><path d="M12,17.27,18.18,21l-1.64-7.03L22,9.24l-7.19-.61L12,2,9.19,8.63,2,9.24l5.46,4.73L5.82,21Z"/>
    </symbol>
    <symbol id="store" viewBox="0 0 22 22">
      <path d="M0,0H22V22H0Z" fill="none"/><path d="M16.653,8.375,17.187,11H4.813l.533-2.625H16.653M18.111,4H3.889V5.75H18.111Zm0,2.625H3.889L3,11v1.75h.889V18h8.889V12.75h3.556V18h1.778V12.75H19V11ZM5.667,16.25v-3.5H11v3.5Z"/>
    </symbol>
    <symbol id="subscriptions" viewBox="0 0 20 20">
      <path d="M0,0H20V20H0Z" fill="none"/><path d="M3.667,5.333H17V7H3.667ZM5.333,2h10V3.667h-10ZM17,8.667H3.667A1.672,1.672,0,0,0,2,10.333V17a1.672,1.672,0,0,0,1.667,1.667H17A1.672,1.672,0,0,0,18.667,17V10.333A1.672,1.672,0,0,0,17,8.667ZM17,17H3.667V10.333H17Z" transform="translate(-.333 -.333)"/>
    </symbol>
    <symbol id="t-logo-filled" viewBox="0 0 16 15" fill="none">
      <path d="M7.93593 0C7.02933 0 5.90295 0.560322 5.48316 0.954547L5.64817 1.3295C5.64817 1.3295 4.36995 1.34655 3.71111 1.77062C3.05228 2.19469 2.75186 2.48309 2.42742 3.16803C2.10252 3.1835 0.88433 3.70058 0.178847 4.22041C0.178847 4.22041 -0.414145 6.46521 0.708959 7.43392L0 8.40726C0.178847 9.0201 0.95098 9.6428 1.71835 9.71707C2.06362 10.1356 1.3939 10.9668 1.3939 10.9668C1.67742 11.8667 3.58602 12.8558 4.72592 12.8558L4.56901 13.3856C4.56901 13.3856 5.83869 14.3101 7.8876 14.2238C9.61963 14.28 11.0283 13.8663 11.3858 13.3856L11.2049 12.8558C12.7868 12.62 13.9817 12.1042 14.6465 11.0094C14.6465 11.0094 14.1515 9.96857 14.3243 9.70747C15.0917 9.6332 15.8092 8.8774 16 8.54735L15.3039 7.45169C15.8591 6.82819 16.1698 5.18303 15.7617 4.22041C15.0562 3.70058 13.85 3.27787 13.5251 3.2624C13.3962 2.50188 12.5686 1.9073 12.5686 1.9073C11.7849 1.22576 10.3595 1.3295 10.3595 1.3295L10.4754 0.954547C10.112 0.549454 8.96457 0 7.93593 0Z" fill="#fff"/><path fill-rule="evenodd" clip-rule="evenodd" d="M6.55843 3.77798C6.55843 3.77798 7.42095 3.60414 8.07409 3.60649C8.71649 3.6088 9.55882 3.77798 9.55882 3.77798L9.70078 1.19832L8.04292 0.671326L6.29932 1.19833L6.55843 3.77798ZM7.24582 2.92694C7.24582 2.92694 7.71195 2.86162 8.07409 2.87114C8.44379 2.88086 8.93989 2.92694 8.93989 2.92694V1.70472L8.04292 1.45967L7.13928 1.70472L7.24582 2.92694ZM5.8219 2.12875C4.91479 1.89772 4.23094 2.21391 3.63927 2.64895C3.04639 3.08489 2.81243 3.64999 2.86445 3.8523C2.37963 3.6538 1.31516 4.26936 0.808459 4.56467C0.808459 4.56467 0.41635 6.48268 1.41872 7.22482C1.36662 7.7459 0.999089 8.37126 0.808459 8.48837C1.13888 9.00942 1.83904 9.15209 2.13558 9.0197C2.63122 9.70597 2.39173 10.6358 2.11637 10.9324C2.88671 11.6279 4.72469 11.9196 5.26305 11.9632C5.26305 11.9632 4.78915 10.8525 4.57756 9.93728C3.99278 7.40789 4.30753 4.25174 4.30753 4.25174C4.30753 4.25174 2.94156 5.84189 3.70298 9.67538C3.83155 10.3227 4.01324 11.0069 4.01324 11.0069C3.97303 10.9869 3.91443 10.9772 3.835 10.9639C3.66417 10.9354 3.39695 10.8909 3.0089 10.6946C3.25242 10.4323 3.1477 8.87681 2.43024 8.11357C2.43024 8.11357 2.08887 8.27109 1.83828 8.16678C2.00687 8.06321 2.2174 7.40221 2.2174 6.89639C1.4151 6.41685 1.4904 5.55425 1.53097 5.0894L1.53232 5.07394C1.93041 4.81546 2.64436 4.37608 3.54267 4.75968C3.51907 4.54211 3.58053 3.96301 3.827 3.55745C3.827 3.55745 4.12705 3.03542 4.80474 2.87165C5.48243 2.70788 5.8219 2.12875 5.8219 2.12875ZM10.1781 2.12875C11.0852 1.89772 11.7691 2.21391 12.3607 2.64895C12.9536 3.08489 13.1876 3.64999 13.1355 3.8523C13.6204 3.6538 14.6848 4.26936 15.1915 4.56467C15.1915 4.56467 15.5836 6.48268 14.5813 7.22482C14.6334 7.7459 15.0009 8.37126 15.1915 8.48837C14.8611 9.00942 14.161 9.15209 13.8644 9.0197C13.3688 9.70597 13.6083 10.6358 13.8836 10.9324C13.1133 11.6279 11.2753 11.9196 10.737 11.9632C10.737 11.9632 11.2109 10.8525 11.4224 9.93728C12.0072 7.40789 11.6925 4.25174 11.6925 4.25174C11.6925 4.25174 13.0584 5.84189 12.297 9.67538C12.1685 10.3227 11.9868 11.0069 11.9868 11.0069C12.027 10.9869 12.0856 10.9772 12.165 10.9639C12.3358 10.9354 12.603 10.8909 12.9911 10.6946C12.7476 10.4323 12.8523 8.87681 13.5698 8.11357C13.5698 8.11357 13.9111 8.27109 14.1617 8.16678C13.9931 8.06321 13.7826 7.40221 13.7826 6.89639C14.5849 6.41685 14.5096 5.55425 14.469 5.0894L14.4677 5.07394C14.0696 4.81546 13.3556 4.37608 12.4573 4.75968C12.4809 4.54211 12.4195 3.96301 12.173 3.55745C12.173 3.55745 11.873 3.03542 11.1953 2.87165C10.5176 2.70788 10.1781 2.12875 10.1781 2.12875ZM7.99096 13.4095C9.50024 13.3919 10.4664 12.9423 10.4664 12.9423L9.87637 11.0886C9.87637 11.0886 8.60998 11.4556 7.99998 11.4561C7.38997 11.4556 6.14372 11.0886 6.14372 11.0886L5.53357 12.9423C5.53357 12.9423 6.48167 13.3919 7.99096 13.4095ZM7.99998 12.7909C8.85932 12.7875 9.39028 12.6111 9.67841 12.4943L9.52066 11.8589C9.16495 11.9758 8.54785 12.1048 7.99998 12.1094C7.4521 12.1048 6.83122 12.0086 6.47552 11.8917L6.33814 12.4943C6.62626 12.6111 7.14063 12.7875 7.99998 12.7909ZM4.94482 4.59052H11.0552C11.0078 4.65653 10.8152 4.97715 10.7463 5.16215C10.6772 5.34773 10.6263 5.53494 10.624 5.65031C10.6222 5.74168 10.611 6.02548 10.5965 6.39629L10.5964 6.39969C10.5675 7.13481 10.5252 8.2154 10.5132 8.85378C10.508 9.13538 10.4454 9.50876 10.2195 9.81406C9.98948 10.1249 9.60098 10.3505 8.97641 10.3505H8.53713C8.49382 10.3505 8.4646 10.3617 8.44178 10.3776C8.41734 10.3946 8.39475 10.421 8.37204 10.4592C8.34904 10.4978 8.32682 10.5482 8.30439 10.5997C8.28359 10.6475 8.25506 10.7015 8.22661 10.7504C8.22509 10.7523 8.22298 10.7551 8.22037 10.7585C8.20574 10.7777 8.1754 10.8175 8.14513 10.8362C8.10721 10.8595 8.05945 10.8742 7.99999 10.8742C7.94171 10.8742 7.89453 10.8601 7.85686 10.836C7.82156 10.8135 7.78379 10.763 7.77444 10.7504C7.7469 10.703 7.7236 10.6508 7.70277 10.6041C7.67987 10.5528 7.65529 10.4988 7.63164 10.4602C7.60826 10.422 7.58494 10.3953 7.55972 10.378C7.53606 10.3617 7.50619 10.3505 7.46284 10.3505H7.02355C6.39899 10.3505 6.01048 10.1249 5.78048 9.81405C5.55456 9.50876 5.49199 9.13538 5.48673 8.85378C5.47481 8.21538 5.43243 7.1347 5.40359 6.39958L5.40345 6.39596C5.38891 6.02526 5.37779 5.74166 5.37595 5.65031C5.37362 5.53493 5.32275 5.34773 5.25365 5.16215C5.18478 4.97715 4.99219 4.65653 4.94482 4.59052ZM6.08443 5.34354C6.09261 5.3782 6.10051 5.41648 6.10778 5.45573C6.12809 5.5653 6.14855 5.7742 6.14855 5.7742C6.17691 6.50717 6.23217 7.93549 6.23217 8.78638C6.23217 9.29813 6.56339 9.56907 6.89064 9.5587C6.91462 9.55794 6.96755 9.55717 7.02396 9.55634C7.09737 9.55526 7.17714 9.55409 7.20588 9.55278C7.51388 9.53871 7.81479 9.61989 8.00137 9.80413C8.08111 9.73083 8.17962 9.68319 8.28695 9.65369C8.43489 9.61303 8.60499 9.60517 8.78007 9.61316C8.80888 9.61448 8.88068 9.61567 8.94698 9.61677C8.99642 9.61759 9.04297 9.61837 9.0661 9.6191C9.24014 9.62461 9.4232 9.57022 9.5619 9.44209C9.69891 9.31551 9.8026 9.10773 9.8026 8.78638C9.8026 8.00739 9.86272 6.44143 9.89263 5.68947C9.89263 5.68947 9.89511 5.54574 9.90882 5.45636C9.91435 5.42027 9.92198 5.38184 9.93276 5.34354H6.08443Z" fill="#000"/><path d="M6.07568 5.34354C6.08386 5.3782 6.09177 5.41648 6.09904 5.45573C6.11934 5.5653 6.1398 5.7742 6.1398 5.7742C6.16816 6.50717 6.22342 7.93549 6.22342 8.78638C6.22342 9.29813 6.55465 9.56907 6.8819 9.5587C6.90597 9.55794 6.95921 9.55716 7.01585 9.55633C7.08926 9.55525 7.16839 9.55409 7.19713 9.55278C7.50514 9.5387 7.80605 9.61989 7.99263 9.80412C8.07236 9.73082 8.17088 9.68319 8.27821 9.65369C8.42615 9.61303 8.59624 9.60517 8.77133 9.61316C8.80013 9.61448 8.87194 9.61567 8.93823 9.61677C8.98775 9.61759 9.03419 9.61836 9.05736 9.6191C9.2314 9.62461 9.41445 9.57022 9.55315 9.44209C9.69017 9.31551 9.79386 9.10772 9.79386 8.78638C9.79386 8.00739 9.85397 6.44143 9.88389 5.68947C9.88389 5.68947 9.88637 5.54573 9.90008 5.45636C9.90561 5.42027 9.91323 5.38184 9.92401 5.34354H6.07568Z" fill="#FFDD2D"/>
    </symbol>
    <symbol id="telegram" viewBox="0 0 20 17">
      <path d="M19.944,6.076,16.926,20.5c-.228,1.018-.822,1.272-1.665.792l-4.6-3.435L8.443,20.022a1.15,1.15,0,0,1-.924.457l.33-4.747,8.523-7.806c.371-.335-.08-.52-.576-.186L5.26,14.465.724,13.026c-.987-.312-1-1,.205-1.48L18.672,4.619c.822-.312,1.54.186,1.272,1.457Z" transform="translate(-.001 -4.528)"/>
    </symbol>
    <symbol id="textsms" viewBox="0 0 24 24">
      <path d="M0,0H24V24H0Z" fill="none"/><path d="M20,2H4A2.006,2.006,0,0,0,2,4V22l4-4H20a2.006,2.006,0,0,0,2-2V4A2.006,2.006,0,0,0,20,2Zm0,14H6L4,18V4H20ZM7,9H9v2H7Zm4,0h2v2H11Zm4,0h2v2H15Z"/>
    </symbol>
    <symbol id="tiktok" viewBox="0 0 32 36">
      <path d="M19.175.03c2.01-.03,4.006-.015,6-.03a9.238,9.238,0,0,0,2.686,6.255A10.952,10.952,0,0,0,34.369,8.94v6.045a16.743,16.743,0,0,1-6.446-1.455,19.078,19.078,0,0,1-2.486-1.395c-.015,4.38.015,8.76-.031,13.125a11.288,11.288,0,0,1-2.072,5.91,11.5,11.5,0,0,1-9.07,4.815A11.437,11.437,0,0,1,2.4,25.875c-.031-.75-.046-1.5-.015-2.235a11.178,11.178,0,0,1,3.96-7.44,11.61,11.61,0,0,1,9.438-2.58c.031,2.22-.061,4.44-.061,6.66a5.478,5.478,0,0,0-4.635.555A5.228,5.228,0,0,0,9,23.46a5.822,5.822,0,0,0-.215,2.415,5.277,5.277,0,0,0,9.623,1.89,3.415,3.415,0,0,0,.629-1.59c.153-2.685.092-5.355.107-8.04.015-6.045-.015-12.075.031-18.1Z" transform="translate(-2.369)"/>
    </symbol>
    <symbol id="upload" viewBox="0 0 24 24">
      <path d="M0,0H24V24H0Z" fill="none"/><path d="M21,6H17.83L16,4H10V6h5.12l1.83,2H21V20H5V11H3v9a2.006,2.006,0,0,0,2,2H21a2.006,2.006,0,0,0,2-2V8A2.006,2.006,0,0,0,21,6ZM8,14a5,5,0,1,0,5-5A5,5,0,0,0,8,14Zm5-3a3,3,0,1,1-3,3A3.009,3.009,0,0,1,13,11ZM5,6H8V4H5V1H3V4H0V6H3V9H5Z"/>
    </symbol>
    <symbol id="viber" viewBox="0 0 20 21">
      <path d="M18.672,2.048c-.523-.48-2.64-2.01-7.36-2.03,0,0-5.565-.332-8.275,2.145C1.529,3.663,1,5.866.94,8.593S.812,16.43,5.759,17.816h0l0,2.116s-.033.857.535,1.029c.684.213,1.087-.439,1.742-1.14.358-.385.853-.951,1.227-1.382a19.22,19.22,0,0,0,6.281-.459c.684-.221,4.551-.714,5.177-5.823.651-5.274-.313-8.6-2.051-10.109Zm.573,9.724c-.531,4.265-3.666,4.536-4.242,4.72a17.782,17.782,0,0,1-5.4.459s-2.142,2.571-2.809,3.24c-.218.217-.457.2-.453-.234,0-.283.016-3.515.016-3.515h0c-4.193-1.156-3.946-5.508-3.9-7.784s.478-4.142,1.755-5.4C6.5,1.19,11.225,1.5,11.225,1.5c3.991.016,5.9,1.214,6.347,1.616,1.47,1.255,2.22,4.257,1.672,8.657ZM13.519,8.457a.266.266,0,0,1-.531.025,1.271,1.271,0,0,0-1.343-1.39.265.265,0,0,1,.029-.529A1.787,1.787,0,0,1,13.519,8.457Zm.836.463a3.069,3.069,0,0,0-3.122-3.252.265.265,0,0,1,.037-.529,3.6,3.6,0,0,1,3.616,3.793.266.266,0,0,1-.531-.012Zm1.936.55a.266.266,0,0,1-.531,0,4.845,4.845,0,0,0-4.976-5.184.265.265,0,0,1,0-.529A5.376,5.376,0,0,1,16.291,9.47Zm-.465,4.023V13.5c-.445.779-1.277,1.64-2.134,1.366l-.008-.012a15.854,15.854,0,0,1-4.21-2.317A10.745,10.745,0,0,1,7.728,10.8,13.3,13.3,0,0,1,6.459,8.888,12.228,12.228,0,0,1,5.389,6.6c-.276-.853.585-1.681,1.372-2.124h.008a.752.752,0,0,1,.984.16s.511.607.729.906c.206.279.482.726.626.976a.854.854,0,0,1-.152,1.091l-.494.394a.72.72,0,0,0-.218.574,5.143,5.143,0,0,0,3.472,3.457.727.727,0,0,0,.577-.217l.4-.492a.863.863,0,0,1,1.1-.152,10.671,10.671,0,0,1,1.886,1.349.73.73,0,0,1,.157.968Z" transform="translate(-.927 -.003)"/>
    </symbol>
    <symbol id="visibility-off" viewBox="0 0 24 24">
      <path d="M0,0H24V24H0ZM0,0H24V24H0ZM0,0H24V24H0ZM0,0H24V24H0Z" fill="none"/><path d="M12,7a5,5,0,0,1,5,5,4.853,4.853,0,0,1-.36,1.83l2.92,2.92A11.817,11.817,0,0,0,22.99,12a11.827,11.827,0,0,0-11-7.5,11.645,11.645,0,0,0-3.98.7l2.16,2.16A4.853,4.853,0,0,1,12,7ZM2,4.27,4.28,6.55l.46.46A11.8,11.8,0,0,0,1,12a11.822,11.822,0,0,0,15.38,6.66l.42.42L19.73,22,21,20.73,3.27,3ZM7.53,9.8l1.55,1.55A2.821,2.821,0,0,0,9,12a3,3,0,0,0,3,3,2.821,2.821,0,0,0,.65-.08l1.55,1.55A4.967,4.967,0,0,1,7.53,9.8Zm4.31-.78,3.15,3.15.02-.16a3,3,0,0,0-3-3Z"/>
    </symbol>
    <symbol id="visibility" viewBox="0 0 24 24">
      <path d="M0,0H24V24H0Z" fill="none"/><path d="M12,6a9.77,9.77,0,0,1,8.82,5.5,9.822,9.822,0,0,1-17.64,0A9.77,9.77,0,0,1,12,6m0-2A11.827,11.827,0,0,0,1,11.5a11.817,11.817,0,0,0,22,0A11.827,11.827,0,0,0,12,4Zm0,5a2.5,2.5,0,1,1-2.5,2.5A2.5,2.5,0,0,1,12,9m0-2a4.5,4.5,0,1,0,4.5,4.5A4.507,4.507,0,0,0,12,7Z" transform="translate(.3 1.3)"/>
    </symbol>
    <symbol id="vk" viewBox="0 0 20 11">
      <path d="M20.852,7.5c.137-.43,0-.746-.661-.746H18a.94.94,0,0,0-.95.574,16.71,16.71,0,0,1-2.688,4.142c-.509.471-.743.622-1.021.622-.137,0-.349-.151-.349-.581V7.5c0-.516-.156-.746-.616-.746H8.941a.512.512,0,0,0-.557.464c0,.488.787.6.869,1.977v2.984c0,.653-.126.773-.4.773-.743,0-2.547-2.523-3.616-5.411-.215-.56-.427-.787-.988-.787H2.058c-.624,0-.75.272-.75.574,0,.536.743,3.2,3.457,6.72a8.673,8.673,0,0,0,6.672,3.706c1.392,0,1.563-.289,1.563-.787,0-2.3-.126-2.513.572-2.513.323,0,.88.151,2.179,1.31,1.485,1.375,1.73,1.99,2.562,1.99H20.5c.624,0,.939-.289.757-.859-.416-1.2-3.226-3.668-3.353-3.833-.323-.385-.23-.557,0-.9,0,0,2.673-3.482,2.948-4.661Z" transform="translate(-1.308 -6.75)"/>
    </symbol>
    <symbol id="volume" viewBox="0 0 51 38.243">
      <g id="Icon_feather-volume-2" data-name="Icon feather-volume-2" transform="translate(-1.5 -5.273)" fill="none" stroke="#8e7d82" stroke-linecap="round" stroke-linejoin="round" stroke-width="3"><path id="&#x41a;&#x43e;&#x43d;&#x442;&#x443;&#x440;_398" data-name="&#x41a;&#x43e;&#x43d;&#x442;&#x443;&#x440; 398" d="M24.6,7.5l-12,9.618H3V31.545h9.6l12,9.618Z" transform="translate(0 .063)"/><path id="&#x41a;&#x43e;&#x43d;&#x442;&#x443;&#x440;_399" data-name="&#x41a;&#x43e;&#x43d;&#x442;&#x443;&#x440; 399" d="M31.783,7.395a24.076,24.076,0,0,1,0,34M23.31,15.883a12.038,12.038,0,0,1,0,17" transform="translate(12.189)"/></g>
    </symbol>
    <symbol id="whatsapp" viewBox="0 0 20 20">
      <path d="M17,5.156a9.914,9.914,0,0,0-15.6,11.96L0,22.25l5.254-1.379a9.881,9.881,0,0,0,4.737,1.205h0a10.006,10.006,0,0,0,10-9.911,9.95,9.95,0,0,0-3-7.009ZM10,20.406a8.223,8.223,0,0,1-4.2-1.147l-.3-.179L2.384,19.9l.83-3.04-.2-.312a8.253,8.253,0,1,1,15.308-4.379A8.329,8.329,0,0,1,10,20.406Zm4.518-6.17c-.246-.125-1.464-.723-1.692-.8s-.393-.125-.558.125-.638.8-.786.973-.29.188-.536.063a6.741,6.741,0,0,1-3.371-2.946c-.254-.437.254-.406.728-1.353a.459.459,0,0,0-.022-.433c-.062-.125-.558-1.344-.763-1.839s-.406-.415-.558-.424-.308-.009-.473-.009a.917.917,0,0,0-.661.308,2.783,2.783,0,0,0-.866,2.067,4.851,4.851,0,0,0,1.009,2.563A11.066,11.066,0,0,0,10.2,16.268a4.846,4.846,0,0,0,2.973.621,2.536,2.536,0,0,0,1.67-1.179,2.071,2.071,0,0,0,.143-1.179C14.924,14.42,14.759,14.357,14.513,14.237Z" transform="translate(0 -2.25)"/>
    </symbol>
    <symbol id="youtube" viewBox="0 0 24 16">
      <path d="M23.844,8.033A3.422,3.422,0,0,0,20.375,4.65c-2.6-.108-5.246-.15-7.951-.15H11.58c-2.7,0-5.354.042-7.951.15A3.428,3.428,0,0,0,.164,8.041C.047,9.525,0,11.008,0,12.491s.047,2.967.159,4.454a3.431,3.431,0,0,0,3.465,3.4c2.729.112,5.527.162,8.373.158s5.64-.042,8.373-.158a3.432,3.432,0,0,0,3.469-3.4c.113-1.487.164-2.971.159-4.458S23.956,9.521,23.844,8.033ZM9.7,16.578V8.391l6.8,4.091Z" transform="translate(0 -4.5)"/>
</symbol></svg>