<svg width="20" height="21" viewBox="0 0 20 21" fill="none" xmlns="http://www.w3.org/2000/svg">
<path d="M17.7439 2.04484C17.2209 1.56484 15.1039 0.0348367 10.3839 0.0148367C10.3839 0.0148367 4.81894 -0.317163 2.10894 2.15984C0.600941 3.65984 0.0719413 5.86284 0.0119413 8.58984C-0.0480587 11.3168 -0.116059 16.4268 4.83094 17.8128V19.9288C4.83094 19.9288 4.79794 20.7858 5.36594 20.9578C6.04994 21.1708 6.45294 20.5188 7.10794 19.8178C7.46594 19.4328 7.96094 18.8668 8.33494 18.4358C10.4396 18.6292 12.5618 18.4741 14.6159 17.9768C15.2999 17.7558 19.1669 17.2628 19.7929 12.1538C20.4439 6.87984 19.4799 3.55384 17.7419 2.04484H17.7439ZM18.3169 11.7688C17.7859 16.0338 14.6509 16.3048 14.0749 16.4888C12.309 16.9168 10.4878 17.0716 8.67494 16.9478C8.67494 16.9478 6.53294 19.5188 5.86594 20.1878C5.64794 20.4048 5.40894 20.3878 5.41294 19.9538C5.41294 19.6708 5.42894 16.4388 5.42894 16.4388C1.23594 15.2828 1.48294 10.9308 1.52894 8.65484C1.57494 6.37884 2.00694 4.51284 3.28394 3.25484C5.57194 1.18684 10.2969 1.49684 10.2969 1.49684C14.2879 1.51284 16.1969 2.71084 16.6439 3.11284C18.1139 4.36784 18.8639 7.36984 18.3159 11.7698L18.3169 11.7688ZM12.5909 8.45384C12.5915 8.52257 12.5654 8.58884 12.5181 8.63876C12.4709 8.68867 12.4061 8.71836 12.3375 8.72159C12.2688 8.72482 12.2016 8.70135 12.1498 8.6561C12.0981 8.61084 12.0659 8.54732 12.0599 8.47884C12.0775 8.29597 12.0552 8.11147 11.9946 7.93805C11.9339 7.76464 11.8365 7.60642 11.7088 7.47431C11.5812 7.34219 11.4264 7.23932 11.2552 7.17277C11.0839 7.10623 10.9003 7.07759 10.7169 7.08884C10.6482 7.08314 10.5843 7.05085 10.539 6.99882C10.4937 6.94679 10.4704 6.87914 10.4742 6.81024C10.478 6.74133 10.5085 6.67662 10.5592 6.62986C10.61 6.5831 10.677 6.55798 10.7459 6.55984C10.9947 6.5513 11.2426 6.59484 11.4735 6.68766C11.7045 6.78048 11.9136 6.92054 12.0873 7.09885C12.261 7.27717 12.3955 7.48981 12.4822 7.72314C12.569 7.95648 12.606 8.20536 12.5909 8.45384ZM13.4269 8.91684C13.4523 8.49418 13.3899 8.07086 13.2436 7.67349C13.0974 7.27612 12.8706 6.91331 12.5773 6.60787C12.2841 6.30243 11.9309 6.06097 11.5398 5.89868C11.1487 5.73638 10.7283 5.65677 10.3049 5.66484C10.2348 5.65993 10.1695 5.62736 10.1233 5.57429C10.0772 5.52121 10.054 5.45199 10.0589 5.38184C10.0638 5.31169 10.0964 5.24636 10.1495 5.20023C10.2026 5.15409 10.2718 5.13093 10.3419 5.13584C10.8327 5.13295 11.3189 5.23045 11.7707 5.42234C12.2224 5.61424 12.6301 5.89647 12.9688 6.25171C13.3074 6.60695 13.5699 7.02768 13.74 7.48806C13.9101 7.94844 13.9843 8.43874 13.9579 8.92884C13.9525 8.99655 13.9214 9.05962 13.871 9.10514C13.8206 9.15065 13.7547 9.17515 13.6868 9.17362C13.6189 9.17208 13.5541 9.14463 13.5058 9.09688C13.4575 9.04914 13.4293 8.98472 13.4269 8.91684ZM15.3629 9.46684C15.3588 9.53444 15.329 9.59791 15.2797 9.6443C15.2303 9.6907 15.1652 9.71653 15.0974 9.71653C15.0297 9.71653 14.9645 9.6907 14.9152 9.6443C14.8659 9.59791 14.8361 9.53444 14.8319 9.46684C14.8796 8.79148 14.7852 8.11362 14.5548 7.47699C14.3244 6.84035 13.9631 6.25907 13.4943 5.77063C13.0255 5.28219 12.4595 4.89744 11.8328 4.64118C11.2061 4.38492 10.5327 4.26285 9.85594 4.28284C9.7886 4.27869 9.72538 4.24902 9.67916 4.19988C9.63294 4.15073 9.60721 4.0858 9.60721 4.01834C9.60721 3.95087 9.63294 3.88595 9.67916 3.8368C9.72538 3.78765 9.7886 3.75798 9.85594 3.75384C10.6021 3.73416 11.3443 3.8701 12.0351 4.153C12.7258 4.4359 13.3501 4.85956 13.8682 5.39699C14.3862 5.93442 14.7867 6.57384 15.044 7.27454C15.3014 7.97524 15.41 8.72186 15.3629 9.46684ZM14.8979 13.4898V13.4968C14.4529 14.2758 13.6209 15.1368 12.7639 14.8628L12.7559 14.8508C11.243 14.2969 9.82339 13.5156 8.54594 12.5338C7.89929 12.0237 7.31344 11.4408 6.79994 10.7968C6.32265 10.1973 5.89807 9.55754 5.53094 8.88484C5.09625 8.16115 4.73767 7.39439 4.46094 6.59684C4.18494 5.74384 5.04594 4.91584 5.83294 4.47284H5.84094C5.99621 4.37475 6.18199 4.33687 6.36326 4.36635C6.54453 4.39582 6.70875 4.49061 6.82494 4.63284C6.82494 4.63284 7.33594 5.23984 7.55394 5.53884C7.75994 5.81784 8.03594 6.26484 8.17994 6.51484C8.28745 6.68537 8.33117 6.88845 8.30335 7.08812C8.27553 7.28779 8.17797 7.47118 8.02794 7.60584L7.53394 7.99984C7.45754 8.07353 7.39838 8.1632 7.36069 8.26243C7.323 8.36167 7.30772 8.46801 7.31594 8.57384C7.56147 9.39337 8.00757 10.1387 8.61382 10.7424C9.22008 11.346 9.96735 11.7889 10.7879 12.0308C10.8941 12.0391 11.0009 12.024 11.1006 11.9865C11.2003 11.949 11.2905 11.8901 11.3649 11.8138L11.7649 11.3218C11.9011 11.1711 12.086 11.0732 12.2872 11.0454C12.4885 11.0176 12.693 11.0617 12.8649 11.1698C13.5407 11.5497 14.1731 12.002 14.7509 12.5188C14.8926 12.6319 14.9872 12.7936 15.0162 12.9725C15.0452 13.1515 15.0066 13.3348 14.9079 13.4868L14.8979 13.4898Z" fill="#E9164D"/>
</svg>
