<svg width="20" height="11" viewBox="0 0 20 11" fill="none" xmlns="http://www.w3.org/2000/svg">
<path d="M19.545 0.75013C19.682 0.32013 19.545 0.00412976 18.884 0.00412976H16.693C16.4942 -0.0134155 16.295 0.0327498 16.1242 0.135944C15.9534 0.239138 15.8199 0.394006 15.743 0.57813C15.057 2.08429 14.1512 3.4802 13.055 4.72013C12.546 5.19113 12.312 5.34213 12.034 5.34213C11.897 5.34213 11.685 5.19113 11.685 4.76113V0.75013C11.685 0.23413 11.529 0.00412976 11.069 0.00412976H7.63398C7.56692 -0.00205916 7.4993 0.0050403 7.435 0.0250219C7.37069 0.0450035 7.31096 0.0774744 7.25922 0.120575C7.20748 0.163676 7.16475 0.21656 7.13348 0.276199C7.1022 0.335838 7.083 0.40106 7.07698 0.46813C7.07698 0.95613 7.86398 1.06813 7.94598 2.44513V5.42913C7.94598 6.08213 7.81998 6.20213 7.54598 6.20213C6.80298 6.20213 4.99898 3.67913 3.92998 0.791129C3.71498 0.231129 3.50298 0.00412976 2.94198 0.00412976H0.750977C0.126977 0.00412976 0.000976562 0.27613 0.000976562 0.57813C0.000976562 1.11413 0.743976 3.77813 3.45798 7.29813C4.21382 8.38378 5.20799 9.28214 6.36441 9.92448C7.52084 10.5668 8.80888 10.9361 10.13 11.0041C11.522 11.0041 11.693 10.7151 11.693 10.2171C11.693 7.91713 11.567 7.70413 12.265 7.70413C12.588 7.70413 13.145 7.85513 14.444 9.01413C15.929 10.3891 16.174 11.0041 17.006 11.0041H19.193C19.817 11.0041 20.132 10.7151 19.95 10.1451C19.534 8.94513 16.724 6.47713 16.597 6.31213C16.274 5.92713 16.367 5.75513 16.597 5.41213C16.597 5.41213 19.27 1.92913 19.545 0.75013Z" fill="#E9164D"/>
</svg>
