<svg width="20" height="20" viewBox="0 0 20 20" fill="none" xmlns="http://www.w3.org/2000/svg">
<path d="M17 2.90617C15.2997 1.20614 13.0396 0.181945 10.6404 0.0242797C8.24115 -0.133385 5.8664 0.586226 3.95827 2.04913C2.05013 3.51203 0.738661 5.61852 0.268032 7.9764C-0.202597 10.3343 0.199693 12.7828 1.4 14.8662L0 20.0002L5.254 18.6212C6.70717 19.4132 8.336 19.8276 9.991 19.8262C12.6273 19.8247 15.1566 18.7829 17.0291 16.927C18.9016 15.0712 19.966 12.5514 19.991 9.91517C19.9763 8.60703 19.7037 7.31463 19.1889 6.11194C18.6742 4.90925 17.9273 3.81988 16.991 2.90617H17ZM10 18.1562C8.52237 18.1581 7.07152 17.7619 5.8 17.0092L5.5 16.8302L2.384 17.6502L3.214 14.6102L3.014 14.2982C2.35547 13.213 1.95615 11.9905 1.84709 10.7258C1.73803 9.46106 1.92218 8.18825 2.38521 7.00632C2.84824 5.82439 3.57767 4.76519 4.51677 3.91112C5.45587 3.05704 6.57933 2.4311 7.79977 2.08198C9.02021 1.73287 10.3047 1.66998 11.5534 1.89821C12.8021 2.12644 13.9814 2.63964 14.9994 3.3979C16.0175 4.15616 16.8469 5.13903 17.4231 6.27008C17.9994 7.40113 18.307 8.64987 18.322 9.91917C18.2978 12.111 17.4106 14.2049 15.8527 15.7468C14.2948 17.2888 12.1919 18.1545 10 18.1562ZM14.518 11.9862C14.272 11.8612 13.054 11.2632 12.826 11.1862C12.598 11.1092 12.433 11.0612 12.268 11.3112C12.103 11.5612 11.63 12.1112 11.482 12.2842C11.334 12.4572 11.192 12.4722 10.946 12.3472C9.51954 11.7779 8.33025 10.7385 7.575 9.40117C7.321 8.96417 7.829 8.99517 8.303 8.04817C8.33529 7.97977 8.35019 7.90445 8.34635 7.82891C8.34251 7.75337 8.32006 7.67994 8.281 7.61517C8.219 7.49017 7.723 6.27117 7.518 5.77617C7.313 5.28117 7.112 5.36117 6.96 5.35217C6.808 5.34317 6.652 5.34317 6.487 5.34317C6.36162 5.34657 6.23826 5.37566 6.12457 5.42864C6.01087 5.48162 5.90926 5.55735 5.826 5.65117C5.54626 5.91686 5.32482 6.23781 5.17574 6.59365C5.02666 6.94948 4.95319 7.33243 4.96 7.71817C5.04162 8.65205 5.39209 9.54228 5.969 10.2812C7.03255 11.8717 8.49032 13.1592 10.2 14.0182C11.0989 14.5384 12.1411 14.7561 13.173 14.6392C13.5179 14.5693 13.8445 14.4284 14.1321 14.2254C14.4196 14.0224 14.6617 13.7618 14.843 13.4602C15.0047 13.0896 15.0545 12.6797 14.986 12.2812C14.924 12.1702 14.759 12.1072 14.513 11.9872L14.518 11.9862Z" fill="#E9164D"/>
</svg>
