<svg width="24" height="16" viewBox="0 0 24 16" fill="none" xmlns="http://www.w3.org/2000/svg">
<path d="M23.844 3.533C23.8389 3.08293 23.7451 2.63828 23.5679 2.22452C23.3907 1.81076 23.1336 1.43603 22.8114 1.12178C22.4891 0.807526 22.1081 0.559934 21.69 0.39318C21.2719 0.226427 20.8251 0.143789 20.375 0.15C17.775 0.0420001 15.129 0 12.424 0H11.58C8.88 0 6.226 0.0420001 3.629 0.15C3.17882 0.145115 2.73209 0.228953 2.31431 0.396728C1.89654 0.564503 1.5159 0.812927 1.19414 1.12782C0.872383 1.4427 0.6158 1.81789 0.439047 2.23195C0.262294 2.646 0.168833 3.09082 0.164 3.541C0.047 5.025 0 6.508 0 7.991C0 9.474 0.047 10.958 0.159 12.445C0.163051 12.8958 0.255914 13.3414 0.43228 13.7563C0.608647 14.1713 0.865058 14.5474 1.18686 14.8631C1.50866 15.1789 1.88953 15.4281 2.30771 15.5966C2.72589 15.7651 3.17318 15.8495 3.624 15.845C6.353 15.957 9.151 16.007 11.997 16.003C14.843 15.999 17.637 15.961 20.37 15.845C20.8211 15.8499 21.2688 15.7658 21.6874 15.5975C22.1059 15.4292 22.4872 15.18 22.8094 14.8642C23.1316 14.5485 23.3884 14.1722 23.5651 13.7571C23.7417 13.342 23.8348 12.8961 23.839 12.445C23.952 10.958 24.003 9.474 23.998 7.987C23.993 6.5 23.956 5.021 23.844 3.533ZM9.7 12.078V3.891L16.5 7.982L9.7 12.078Z" fill="#E9164D"/>
</svg>
